<svg width="49" height="49" viewBox="0 0 49 49" fill="none" xmlns="http://www.w3.org/2000/svg">
<path d="M18.2137 41.802C17.8337 41.802 17.4538 41.662 17.1538 41.362C16.5738 40.782 16.5738 39.822 17.1538 39.242L30.1937 26.202C31.1537 25.242 31.1537 23.682 30.1937 22.722L17.1538 9.68195C16.5738 9.10195 16.5738 8.14195 17.1538 7.56195C17.7337 6.98195 18.6937 6.98195 19.2737 7.56195L32.3138 20.602C33.3338 21.622 33.9137 23.002 33.9137 24.462C33.9137 25.922 33.3538 27.302 32.3138 28.322L19.2737 41.362C18.9737 41.642 18.5937 41.802 18.2137 41.802Z" fill="#171717"/>
</svg>
