<svg width="48" height="49" viewBox="0 0 48 49" fill="none" xmlns="http://www.w3.org/2000/svg">
<path d="M17.8192 41.9396C17.4392 41.9396 17.0592 41.7996 16.7592 41.4996C16.1792 40.9196 16.1792 39.9596 16.7592 39.3796L29.7992 26.3396C30.7592 25.3796 30.7592 23.8196 29.7992 22.8596L16.7592 9.81965C16.1792 9.23965 16.1792 8.27965 16.7592 7.69965C17.3392 7.11965 18.2992 7.11965 18.8792 7.69965L31.9192 20.7396C32.9392 21.7596 33.5192 23.1396 33.5192 24.5996C33.5192 26.0596 32.9592 27.4397 31.9192 28.4597L18.8792 41.4996C18.5792 41.7796 18.1992 41.9396 17.8192 41.9396Z" fill="#171717"/>
</svg>
