<svg width="20" height="19" viewBox="0 0 20 19" fill="none" xmlns="http://www.w3.org/2000/svg">
<g clip-path="url(#clip0_7_9845)">
<g clip-path="url(#clip1_7_9845)">
<g clip-path="url(#clip2_7_9845)">
<path d="M5.69239 5.41666C4.672 4.38239 4.672 2.70257 5.69239 1.6683C5.9331 1.4227 6.22038 1.22758 6.53743 1.09438C6.85448 0.961186 7.19491 0.892578 7.5388 0.892578C7.88269 0.892578 8.22313 0.961186 8.54018 1.09438C8.85722 1.22758 9.14451 1.4227 9.38522 1.6683L9.99953 2.29303L10.6138 1.6683C10.8546 1.4227 11.1418 1.22758 11.4589 1.09438C11.7759 0.961186 12.1164 0.892578 12.4603 0.892578C12.8042 0.892578 13.1446 0.961186 13.4616 1.09438C13.7787 1.22758 14.066 1.4227 14.3067 1.6683C15.3271 2.70257 15.3271 4.38239 14.3067 5.41666L10.7804 8.99843C10.5653 9.21708 10.2841 9.32467 9.99953 9.32467C9.71493 9.32467 9.43381 9.21708 9.21862 8.99843L5.69239 5.41666ZM19.7244 12.3372C20.1791 12.955 20.0472 13.8227 19.4294 14.2774L15.0355 17.5155C14.2234 18.1125 13.2446 18.4353 12.2347 18.4353H6.66766H1.11453C0.968644 18.4354 0.824161 18.4068 0.689352 18.351C0.554543 18.2952 0.432054 18.2134 0.328896 18.1103C0.225737 18.0071 0.143935 17.8846 0.0881691 17.7498C0.0324035 17.615 0.00376978 17.4705 0.00390674 17.3246V15.1034C0.00376978 14.9575 0.0324035 14.813 0.0881691 14.6782C0.143935 14.5434 0.225737 14.4209 0.328896 14.3178C0.432054 14.2146 0.554543 14.1328 0.689352 14.077C0.824161 14.0213 0.968644 13.9926 1.11453 13.9928H2.39175L3.9501 12.7433C4.73795 12.1116 5.71668 11.7715 6.72666 11.7715H9.44422H9.99953H12.2208C12.5153 11.7715 12.7978 11.8885 13.0061 12.0968C13.2144 12.3051 13.3314 12.5876 13.3314 12.8821C13.3314 13.1767 13.2144 13.4592 13.0061 13.6675C12.7978 13.8758 12.5153 13.9928 12.2208 13.9928H9.99953H9.44422C9.1388 13.9928 8.88891 14.2427 8.88891 14.5481C8.88891 14.8535 9.1388 15.1034 9.44422 15.1034H13.6299L17.7843 12.0422C18.4021 11.5876 19.2698 11.7195 19.7244 12.3372Z" fill="black"/>
</g>
</g>
</g>
<defs>
<clipPath id="clip0_7_9845">
<rect width="20" height="17.77" fill="white" transform="translate(0 0.666016)"/>
</clipPath>
<clipPath id="clip1_7_9845">
<rect width="20" height="17.77" fill="white" transform="translate(0 0.666016)"/>
</clipPath>
<clipPath id="clip2_7_9845">
<rect width="19.9912" height="17.77" fill="white" transform="translate(0.00390625 0.666016)"/>
</clipPath>
</defs>
</svg>
