<svg width="69" height="60" viewBox="0 0 69 60" fill="none" xmlns="http://www.w3.org/2000/svg">
<g clip-path="url(#clip0_11_5604)">
<g clip-path="url(#clip1_11_5604)">
<g clip-path="url(#clip2_11_5604)">
<path fill-rule="evenodd" clip-rule="evenodd" d="M67.4826 32.9978L53.64 56.9978C52.5685 58.8554 50.5871 60 48.4425 60H20.7676C18.6231 60 16.6417 58.8554 15.5702 56.9978L1.72758 32.9978C0.657501 31.1425 0.657501 28.8575 1.72758 27.0022L15.5702 3.00224C16.6417 1.14457 18.6231 0 20.7676 0L48.4425 0C50.5871 0 52.5685 1.14457 53.64 3.00224L67.4826 27.0022C68.5527 28.8575 68.5527 31.1425 67.4826 32.9978Z" fill="#00AF3B"/>
<path d="M35.7212 15.958C27.7579 15.958 21.3002 22.4221 21.3002 30.3933C21.2955 33.047 22.0258 35.6501 23.41 37.9134L18.8398 44.8255H35.7212C43.6845 44.8255 50.1421 38.3614 50.1421 30.3902C50.1421 22.419 43.6845 15.958 35.7212 15.958Z" fill="white"/>
<path d="M35.4872 19.7119C35.4872 19.7119 35.9568 22.9988 35.8378 25.2266C35.8378 25.2266 35.1335 25.8125 32.9079 25.9316C32.9079 25.9316 32.0878 32.3863 36.7769 36.14C36.7769 36.14 38.1824 35.0841 39.2404 34.965C39.2404 34.965 41.1154 36.021 42.6398 39.3079C42.6398 39.3079 41.466 40.5988 38.7708 41.1847C38.4227 41.2547 38.0641 41.2547 37.716 41.1847C37.716 41.1847 32.7921 38.6029 31.0329 32.9691C29.2737 27.3353 29.8591 22.6416 29.8591 22.6416C29.8591 22.6416 30.0938 21.7016 30.914 21.1157C31.7341 20.5297 32.3226 20.0628 35.4872 19.7119Z" fill="black"/>
<path d="M35.2529 19.9463C35.2529 19.9463 35.7224 23.2332 35.6034 25.461C35.6034 25.461 34.8991 26.0469 32.6735 26.166C32.6735 26.166 31.8534 32.6207 36.5425 36.3744C36.5425 36.3744 37.948 35.3185 39.006 35.1994C39.006 35.1994 40.881 36.2554 42.4054 39.5422C42.4054 39.5422 41.2316 40.8332 38.5365 41.4191C38.1883 41.4891 37.8297 41.4891 37.4816 41.4191C37.4816 41.4191 32.5577 38.8372 30.7985 33.2035C29.0394 27.5697 29.6247 22.876 29.6247 22.876C29.6247 22.876 29.8595 21.936 30.6796 21.35C31.4997 20.7641 32.0882 20.2972 35.2529 19.9463Z" fill="#00AF3B"/>
</g>
</g>
</g>
<defs>
<clipPath id="clip0_11_5604">
<rect width="69" height="60" fill="white"/>
</clipPath>
<clipPath id="clip1_11_5604">
<rect width="69" height="60" fill="white"/>
</clipPath>
<clipPath id="clip2_11_5604">
<rect width="69" height="60" fill="white"/>
</clipPath>
</defs>
</svg>
