<svg width="69" height="60" viewBox="0 0 69 60" fill="none" xmlns="http://www.w3.org/2000/svg">
<g clip-path="url(#clip0_11_5614)">
<g clip-path="url(#clip1_11_5614)">
<g clip-path="url(#clip2_11_5614)">
<path fill-rule="evenodd" clip-rule="evenodd" d="M67.5 33L53.6 57C52.5 58.9 50.5 60 48.4 60H20.8C18.7 60 16.7 58.9 15.6 57L1.7 33C0.6 31.1 0.6 28.9 1.7 27L15.6 3C16.7 1.1 18.7 0 20.8 0H48.5C50.6 0 52.6 1.1 53.7 3L67.5 27C68.6 28.9 68.6 31.1 67.5 33Z" fill="#FF671D"/>
<path d="M11.6 29C11 29 10.5 29.2 10.1 29.7C9.7 30.1 9.5 30.7 9.5 31.3C9.5 31.9 9.7 32.4 10.1 32.9C10.5 33.3 11 33.5 11.6 33.5C12.2 33.5 12.7 33.3 13.1 32.8C13.5 32.4 13.7 31.8 13.7 31.2C13.7 30.6 13.5 30.1 13.1 29.6C12.7 29.2 12.2 29 11.6 29Z" fill="white"/>
<path d="M33.2992 26.2002C31.8992 26.2002 30.5992 26.7002 29.6992 27.7002C28.6992 28.7002 28.1992 29.9002 28.1992 31.3002C28.1992 32.7002 28.6992 33.9002 29.6992 34.9002C30.6992 35.9002 31.8992 36.4002 33.2992 36.4002C34.6992 36.4002 35.8992 35.9002 36.8992 34.9002C37.8992 33.9002 38.3992 32.7002 38.3992 31.3002C38.3992 29.9002 37.8992 28.7002 36.8992 27.7002C35.7992 26.7002 34.6992 26.2002 33.2992 26.2002ZM34.7992 32.8002C34.3992 33.2002 33.8992 33.5002 33.2992 33.5002C32.6992 33.5002 32.1992 33.3002 31.7992 32.9002C31.3992 32.5002 31.1992 31.9002 31.1992 31.3002C31.1992 30.7002 31.3992 30.2002 31.7992 29.7002C32.1992 29.3002 32.6992 29.0002 33.2992 29.0002C33.8992 29.0002 34.3992 29.2002 34.7992 29.6002C35.1992 30.0002 35.3992 30.5002 35.3992 31.2002C35.3992 31.8002 35.1992 32.4002 34.7992 32.8002Z" fill="white"/>
<path d="M22.3992 26.2002C21.5992 26.2002 20.7992 26.4002 20.0992 26.7002V23.7002H17.1992V31.2002C17.1992 32.6002 17.6992 33.8002 18.6992 34.8002C19.6992 35.8002 20.8992 36.3002 22.2992 36.3002C23.6992 36.3002 24.8992 35.8002 25.8992 34.8002C26.8992 33.8002 27.3992 32.6002 27.3992 31.2002C27.3992 29.8002 26.8992 28.6002 25.8992 27.6002C24.9992 26.7002 23.7992 26.2002 22.3992 26.2002ZM23.8992 32.8002C23.4992 33.2002 22.9992 33.4002 22.3992 33.4002C21.7992 33.4002 21.2992 33.2002 20.8992 32.8002C20.4992 32.4002 20.2992 31.8002 20.2992 31.2002C20.2992 30.6002 20.4992 30.1002 20.8992 29.6002C21.2992 29.2002 21.7992 29.0002 22.3992 29.0002C22.9992 29.0002 23.4992 29.2002 23.8992 29.6002C24.2992 30.0002 24.4992 30.6002 24.4992 31.2002C24.4992 31.9002 24.2992 32.4002 23.8992 32.8002Z" fill="white"/>
<path d="M48.6988 26.4002H45.4988L42.0988 31.1002V23.7002H39.2988V36.1002H41.4988L43.9988 32.7002L46.3988 36.1002H49.6988L45.5988 30.6002L48.6988 26.4002Z" fill="white"/>
<path d="M56.5988 26.4004C56.5988 26.4004 56.5988 30.6004 56.5988 31.2004C56.5988 31.8004 56.2988 32.3004 55.8988 32.8004C55.4988 33.2004 54.9988 33.4004 54.3988 33.4004C53.7988 33.4004 53.2988 33.2004 52.8988 32.8004C52.4988 32.4004 52.1988 31.8004 52.1988 31.2004C52.1988 30.6004 52.1988 26.4004 52.1988 26.4004H49.2988C49.2988 26.4004 49.2988 29.8004 49.2988 31.2004C49.2988 32.6004 49.7988 33.8004 50.7988 34.8004C51.7988 35.8004 52.9988 36.3004 54.3988 36.3004C55.7988 36.3004 56.9988 35.8004 57.9988 34.8004C58.9988 33.8004 59.4988 32.6004 59.4988 31.2004C59.4988 29.8004 59.4988 26.4004 59.4988 26.4004H56.5988Z" fill="white"/>
</g>
</g>
</g>
<defs>
<clipPath id="clip0_11_5614">
<rect width="69" height="60" fill="white"/>
</clipPath>
<clipPath id="clip1_11_5614">
<rect width="69" height="60" fill="white"/>
</clipPath>
<clipPath id="clip2_11_5614">
<rect width="69" height="60" fill="white"/>
</clipPath>
</defs>
</svg>
