<svg width="30" height="30" viewBox="0 0 30 30" fill="none" xmlns="http://www.w3.org/2000/svg">
<path d="M14.7749 0.736328C6.81247 0.736328 0.355469 7.19976 0.355469 15.1701C0.355469 23.1404 6.81247 29.6038 14.7749 29.6038C22.7373 29.6038 29.1943 23.1404 29.1943 15.1701C29.1943 7.19976 22.7373 0.736328 14.7749 0.736328ZM14.7749 27.7563C7.83048 27.7563 2.20115 22.1214 2.20115 15.1701C2.20115 8.21879 7.83048 2.58385 14.7749 2.58385C21.7192 2.58385 27.3486 8.21879 27.3486 15.1701C27.3486 22.1214 21.7192 27.7563 14.7749 27.7563Z" fill="white"/>
<path d="M7.98944 7.50278C5.08249 10.3636 10.3081 18.2184 10.3081 18.2184C10.3081 18.2184 15.1357 26.3273 18.9684 24.9359C18.9684 24.9359 19.3058 24.8464 20.5718 24.0554C20.7761 23.9268 20.838 23.657 20.7102 23.4521L18.0311 19.2288C17.97 19.1315 17.8727 19.0625 17.7607 19.0371C17.6488 19.0116 17.5313 19.0318 17.4341 19.0931L16.9093 19.4193C16.9093 19.4193 15.303 20.7472 12.6873 16.7173C10.1841 12.6181 12.073 11.7405 12.073 11.7405L12.5921 11.4086C12.6893 11.3474 12.7582 11.25 12.7836 11.1379C12.8091 11.0258 12.7889 10.9082 12.7277 10.811L10.0774 6.56748C10.0158 6.46906 9.91745 6.39937 9.80426 6.37389C9.69107 6.34841 9.5724 6.36926 9.47464 6.4318C8.21439 7.2372 7.98944 7.50278 7.98944 7.50278Z" fill="white"/>
<path d="M11.6574 5.14766L14.7057 9.98586C14.7529 10.06 14.7684 10.1499 14.7489 10.2356C14.7294 10.3213 14.6765 10.3956 14.6019 10.442L13.5925 11.0771C13.5185 11.1243 13.4286 11.1399 13.343 11.1204C13.2574 11.1008 13.1831 11.0478 13.1368 10.9731L10.0886 6.13782C10.0414 6.0637 10.0258 5.97375 10.0453 5.88806C10.0648 5.80236 10.1178 5.72805 10.1924 5.68171L11.2018 5.04663C11.3555 4.94903 11.5592 4.99419 11.6574 5.14766Z" fill="white"/>
<path d="M19.632 17.8116L22.6803 22.6498C22.7275 22.724 22.7431 22.8139 22.7236 22.8996C22.704 22.9853 22.6511 23.0596 22.5765 23.1059L21.5671 23.741C21.4931 23.7883 21.4032 23.8039 21.3176 23.7843C21.232 23.7648 21.1577 23.7118 21.1115 23.6371L18.0632 18.8018C18.016 18.7277 18.0004 18.6377 18.0199 18.552C18.0394 18.4663 18.0924 18.392 18.167 18.3457L19.1764 17.7106C19.2499 17.6624 19.3397 17.6459 19.4255 17.6649C19.5113 17.684 19.5857 17.7369 19.632 17.8116Z" fill="white"/>
</svg>
