<svg width="47" height="11" viewBox="0 0 47 11" fill="none" xmlns="http://www.w3.org/2000/svg">
<path d="M5.52144 0.760185L5.43692 6.06385C5.33655 5.86839 5.43692 6.06385 5.33655 5.86839C4.8981 5.00206 4.46493 4.13044 4.02648 3.26411C3.70953 2.64077 3.41371 2.00686 3.06506 1.39937C2.68472 0.739055 1.90819 0.437951 1.16863 0.617557C0.524165 0.776033 0.11741 1.23033 0.112128 1.9065C0.09628 4.67454 0.106845 7.80708 0.101562 10.5804L2.49455 10.5963C2.46814 9.06433 2.48398 6.99886 2.48398 5.46692C2.48398 5.2926 2.48398 4.75906 2.48398 4.58474C2.64774 4.90169 2.48398 4.58474 2.64774 4.90169C3.02809 5.63068 3.40843 6.36495 3.79405 7.08866C4.29061 8.02367 4.75019 8.97981 5.30486 9.87784C5.51616 10.2212 5.91235 10.5646 6.28741 10.6702C7.14318 10.9185 7.85632 10.2899 7.85632 9.36015C7.86689 6.5921 7.8616 3.81877 7.85632 1.05072C7.85632 0.971487 7.8616 1.05072 7.8616 0.760185C7.23826 0.77075 6.9266 0.776033 5.52144 0.760185Z" fill="#EF008C"/>
<path d="M20.5135 3.60742C18.6065 3.60742 17.0006 5.24501 17.0059 7.19954C17.0059 9.12239 18.6065 10.7283 20.5135 10.7283C22.4627 10.723 24.0105 9.13823 24.0105 7.152C24.0105 5.21859 22.4205 3.60742 20.5135 3.60742ZM20.4976 8.67865C19.7211 8.66281 19.1031 7.98664 19.1136 7.15728C19.1189 6.33321 19.7581 5.67289 20.5452 5.67817C21.3164 5.68874 21.9503 6.37547 21.9398 7.19954C21.9186 8.01305 21.2636 8.6945 20.4976 8.67865Z" fill="#EF008C"/>
<path d="M11.9076 8.55167C11.0624 7.90192 10.9409 6.58129 11.6488 5.75721C12.1612 5.16029 12.9483 5.07048 13.5188 5.58289C12.9377 5.9738 12.3672 6.35942 11.7544 6.77146C12.0344 7.20991 12.2932 7.61666 12.5679 8.04455C13.1596 7.64308 13.709 7.26802 14.2583 6.89296C14.8024 6.5179 15.3465 6.13755 15.8801 5.76778C15.1352 4.13019 13.4343 3.29027 11.7914 3.71287C10.1432 4.13547 8.98109 5.71495 9.08674 7.37895C9.19239 9.03238 10.55 10.5379 12.0925 10.7017C13.9625 10.9024 15.8114 9.77722 16.3027 8.09209C15.8273 7.84909 15.3413 7.60082 14.8394 7.34197C13.7988 8.77882 12.7423 9.19614 11.9076 8.55167Z" fill="#EF008C"/>
<path d="M36.3401 3.82422C35.6798 3.82422 35.0301 3.82422 34.3222 3.82422C34.3222 4.51623 34.3222 5.17655 34.3222 5.84215C34.3169 6.52359 34.3328 7.21032 34.2958 7.89177C34.2694 8.35663 33.9155 8.68415 33.514 8.67887C33.0438 8.67887 32.8061 8.38305 32.7163 7.96572C32.6688 7.74914 32.6793 7.51143 32.6793 7.28428C32.6741 6.14853 32.6793 5.01279 32.6793 3.83478C31.9398 3.83478 31.2795 3.83478 30.6086 3.83478C30.6086 5.30861 30.5452 6.74018 30.6403 8.16646C30.6773 8.72641 30.9625 9.33918 31.3059 9.79876C31.9768 10.7074 33.3872 10.9821 34.618 10.5647C35.6428 10.2214 36.3507 9.25466 36.393 7.99742C36.4352 6.66622 36.4035 5.32974 36.4035 3.99326C36.3982 3.94043 36.356 3.88233 36.3401 3.82422Z" fill="#EF008C"/>
<path d="M28.6222 6.90921C28.3845 6.76658 28.131 6.65564 27.888 6.52886C27.7136 6.43906 27.534 6.36511 27.3597 6.27002C27.3016 6.23833 27.2488 6.20663 27.1907 6.17493C27.1537 6.1538 27.1167 6.11683 27.0797 6.07457C27.0533 6.03231 27.0375 5.97948 27.0375 5.91081C27.0375 5.74705 27.2488 5.57273 27.4284 5.53575C27.5499 5.5199 27.6714 5.5199 27.7929 5.5199C28.2419 5.51462 28.6909 5.5199 29.1452 5.5199C29.1452 4.91241 29.1452 4.37887 29.1452 3.79251C28.3845 3.79251 27.6555 3.78195 26.9265 3.79779C25.8912 3.81893 25.0671 4.42113 24.9086 5.24521C24.6973 6.36511 25.1252 7.1839 26.1817 7.65404C26.4194 7.75969 27.1959 7.98156 27.4389 8.08193L27.5129 8.11362C27.6397 8.18758 27.7084 8.25625 27.7084 8.40416C27.7084 8.58905 27.5604 8.74225 27.3756 8.74753H24.7871C24.803 9.20183 24.7924 10.047 24.7924 10.496C25.9229 10.496 26.9794 10.5647 28.02 10.4749C28.8705 10.401 29.3935 9.77762 29.5361 8.9694C29.721 8.0291 29.4463 7.40576 28.6222 6.90921Z" fill="#EF008C"/>
<path d="M41.1357 3.80789H40.993V3.81317C40.3644 3.85543 39.889 4.17238 39.5668 4.84326V3.76562H37.5911V4.21992C37.5911 4.24634 37.5911 4.27275 37.5911 4.29916L37.5488 10.6012C38.1246 10.6012 38.9857 10.6012 39.7675 10.5959C39.7516 9.6715 39.7516 8.2505 39.7675 7.32605C39.7833 6.21672 39.9629 5.98957 40.993 5.80997H41.4896V3.81317H41.1832C41.1726 3.80789 41.1515 3.80789 41.1357 3.80789Z" fill="#EF008C"/>
<path d="M45.4261 0.765625C45.1937 0.765625 44.9665 0.765625 44.7341 0.781473C43.3976 0.876558 42.4204 1.79044 42.4045 3.02655C42.3834 4.97052 42.394 6.91978 42.3887 8.86375V10.6017H44.5545V10.2636C44.5651 10.2002 44.5704 10.1263 44.5651 10.0418C44.5439 8.7581 44.5651 7.46916 44.5545 6.1855C44.5545 5.91609 44.6179 5.76818 44.8134 5.72592H45.2307C45.4473 5.73121 45.6691 5.73121 45.9174 5.72592H46.3136V3.69743C46.3136 3.69743 44.7552 3.71328 44.5862 3.71328L44.5915 3.22729C44.5915 2.96316 44.9348 2.75186 45.3575 2.75186H45.5265C45.6163 2.75714 45.7325 2.75714 45.9016 2.75714H46.3136V0.770908H45.4261V0.765625Z" fill="#EF008C"/>
</svg>
