<svg width="26" height="31" viewBox="0 0 26 31" fill="none" xmlns="http://www.w3.org/2000/svg">
<path opacity="0.606201" d="M23.1435 8.9512C21.9182 15.2514 17.7234 17.4305 12.3659 17.4305H9.63799C8.98355 17.4305 8.4308 17.9076 8.32911 18.5544L6.53606 29.9324C6.46907 30.3565 6.79669 30.7407 7.22529 30.7407H12.063C12.6355 30.7407 13.1229 30.3237 13.2124 29.7577L13.2595 29.5109L14.1713 23.7266L14.23 23.4069C14.3195 22.8409 14.8068 22.424 15.3792 22.4238H16.1033C20.7896 22.4238 24.4591 20.5181 25.5314 15.0063C25.979 12.7029 25.7474 10.7799 24.5634 9.42908C24.2042 9.01995 23.7582 8.68206 23.2387 8.40625C23.2105 8.58435 23.18 8.76484 23.1435 8.9512Z" fill="white"/>
<path opacity="0.700131" d="M21.9772 3.05652C20.5922 1.47631 18.0885 0.798828 14.8856 0.798828H5.58989C4.93523 0.798828 4.37775 1.27534 4.27515 1.92255L0.404575 26.4951C0.327641 26.9797 0.702472 27.4185 1.1931 27.4185H6.93197L8.37325 18.2676L8.32852 18.5541C8.4312 17.9073 8.98385 17.4302 9.63829 17.4302H12.3654C17.7228 17.4302 21.9177 15.252 23.1431 8.95095C23.1794 8.76459 23.2109 8.58321 23.2382 8.406C23.0835 8.32402 23.0835 8.32402 23.2382 8.406C23.6031 6.07707 23.2357 4.49177 21.9772 3.05652Z" fill="white"/>
<path d="M10.5692 7.56704C10.726 7.49226 10.8976 7.45351 11.0714 7.45361H18.3591C19.2221 7.45361 20.027 7.50983 20.7626 7.62833C20.9684 7.66118 21.1731 7.7004 21.3765 7.74594C21.6648 7.80961 21.9498 7.88755 22.2304 7.97946C22.592 8.10035 22.9288 8.24113 23.2383 8.406C23.6031 6.07617 23.2357 4.49177 21.9772 3.05652C20.5914 1.47631 18.0885 0.798828 14.8856 0.798828H5.5891C4.93456 0.798828 4.37773 1.27582 4.27515 1.92255L0.404576 26.4942C0.327642 26.9796 0.702473 27.4178 1.19231 27.4178H6.93197L9.92217 8.43665C9.98186 8.05792 10.2238 7.73278 10.5692 7.56704Z" fill="white"/>
</svg>
