<svg width="40" height="31" viewBox="0 0 40 31" fill="none" xmlns="http://www.w3.org/2000/svg">
<path d="M7.39254 30.4911V28.467C7.42332 27.7897 6.95386 27.2125 6.27659 27.1817H6.10728C5.66859 27.1509 5.22991 27.3818 4.96054 27.7589C4.73208 27.382 4.3156 27.1605 3.87538 27.1817C3.49924 27.1609 3.13981 27.3391 2.92875 27.6512V27.251H2.2207V30.4988H2.92875V28.7055C2.8983 28.5081 2.949 28.3068 3.06932 28.1473C3.18964 27.9879 3.36934 27.8839 3.56754 27.859H3.70607C4.17553 27.859 4.41411 28.1591 4.41411 28.7055V30.4988H5.12216V28.7055C5.09171 28.5081 5.14241 28.3068 5.26273 28.1473C5.38305 27.9879 5.56275 27.8839 5.76095 27.859H5.89948C6.36895 27.859 6.60753 28.1591 6.60753 28.7055V30.4988H7.39254V30.4911ZM17.9055 27.251H16.7588V26.2736H16.0507V27.251H15.412V27.8897H16.0507V29.3751C16.0507 30.1216 16.3509 30.5603 17.1667 30.5603C17.4737 30.5503 17.7742 30.4686 18.0441 30.3217L17.844 29.7137C17.657 29.8162 17.4489 29.8742 17.236 29.8831C16.8973 29.8831 16.7588 29.683 16.7588 29.3443V27.859H17.9055V27.251ZM23.9239 27.1817C23.5783 27.1764 23.2559 27.3552 23.0774 27.6512V27.251H22.3693V30.4988H23.0774V28.6748C23.0774 28.136 23.3159 27.8282 23.7546 27.8282C23.9028 27.8362 24.0498 27.8594 24.1933 27.8974L24.3934 27.2202C24.2241 27.1817 24.0625 27.1432 23.9239 27.1817ZM14.8347 27.5203C14.4321 27.2902 13.9747 27.1732 13.511 27.1817C12.7029 27.1817 12.1565 27.5896 12.1565 28.2284C12.1565 28.7671 12.5644 29.075 13.2724 29.175L13.6111 29.2058C13.9805 29.2751 14.1883 29.3751 14.1883 29.5444C14.1883 29.783 13.9189 29.9523 13.4417 29.9523C13.0529 29.9599 12.6721 29.8411 12.3566 29.6137L12.0179 30.1524C12.4258 30.4218 12.9338 30.5911 13.4033 30.5603C14.3499 30.5603 14.8886 30.1216 14.8886 29.5136C14.8886 28.9056 14.4499 28.6363 13.7727 28.5362L13.434 28.5054C13.1262 28.4747 12.8953 28.4054 12.8953 28.2053C12.8953 28.0052 13.1339 27.8359 13.5033 27.8359C13.8596 27.8357 14.2098 27.9286 14.5192 28.1052L14.8347 27.5203ZM33.6596 27.1817C33.314 27.1764 32.9916 27.3552 32.813 27.6512V27.251H32.0973V30.4988H32.8053V28.6748C32.8053 28.136 33.0439 27.8282 33.4826 27.8282C33.6308 27.8362 33.7778 27.8594 33.9213 27.8974L34.1214 27.2202C33.9731 27.169 33.8143 27.1558 33.6596 27.1817ZM24.6012 28.8672C24.566 29.7629 25.2603 30.5191 26.1558 30.5603H26.3251C26.7411 30.5925 27.153 30.4598 27.4719 30.1909L27.1332 29.6137C26.8813 29.7843 26.5898 29.8877 26.2867 29.9138C25.7095 29.8831 25.3092 29.3751 25.34 28.7979C25.3746 28.2901 25.7789 27.8859 26.2867 27.8513C26.5948 27.8521 26.8934 27.9579 27.1332 28.1514L27.4719 27.5742C27.1524 27.3063 26.7409 27.1737 26.3251 27.2048C25.4093 27.1355 24.6705 27.8436 24.6012 28.7286V28.8672ZM31.1891 28.8672V27.251H30.4811V27.6589C30.236 27.3502 29.8591 27.176 29.4652 27.1894C28.8359 27.138 28.2302 27.4411 27.8941 27.9756C27.558 28.5101 27.5472 29.1872 27.8661 29.7322C28.185 30.2771 28.7807 30.5993 29.4113 30.568H29.4729C29.8671 30.5749 30.2423 30.3987 30.4888 30.0909V30.4988H31.1968V28.8672H31.1891ZM28.5878 28.8672C28.6283 28.3374 29.0837 27.9364 29.6143 27.9634C30.1449 27.9903 30.5574 28.4352 30.5441 28.9664C30.5308 29.4975 30.0966 29.9212 29.5652 29.9215C29.3094 29.9282 29.0616 29.8316 28.8777 29.6535C28.6939 29.4754 28.5894 29.2309 28.5878 28.9749V28.8672ZM20.1066 27.1817C19.6688 27.1807 19.2485 27.3536 18.9382 27.6625C18.6279 27.9714 18.453 28.3909 18.452 28.8287V28.9056C18.4827 29.8523 19.2293 30.5988 20.1759 30.5603C20.6658 30.5845 21.1477 30.4285 21.5304 30.1216L21.1918 29.6137C20.9203 29.8243 20.5887 29.943 20.2452 29.9523C19.7682 29.9824 19.3458 29.6466 19.2677 29.175H21.669V28.9056C21.6613 27.8513 21.0148 27.1817 20.1066 27.1817ZM20.1066 27.7897C20.3169 27.7854 20.5203 27.8649 20.6719 28.0107C20.8235 28.1565 20.9109 28.3567 20.9147 28.567H19.2216C19.2663 28.1155 19.6531 27.7758 20.1066 27.7897ZM37.7155 28.8672V25.958H37.0382V27.6512C36.7932 27.3425 36.4162 27.1683 36.0223 27.1817C35.393 27.1303 34.7874 27.4334 34.4513 27.9679C34.1151 28.5024 34.1043 29.1795 34.4232 29.7245C34.7422 30.2694 35.3378 30.5916 35.9685 30.5603H36.03C36.4243 30.5672 36.7995 30.391 37.0459 30.0832V30.4911H37.7232L37.7155 28.8672ZM35.1065 28.8672C35.1509 28.332 35.6163 27.9315 36.1521 27.9672C36.6879 28.0029 37.096 28.4617 37.069 28.998C37.0365 29.5136 36.6083 29.9149 36.0916 29.9138C35.8357 29.9205 35.588 29.8239 35.4041 29.6458C35.2202 29.4677 35.1158 29.2232 35.1142 28.9672L35.1065 28.8672ZM11.3792 28.8672V27.251H10.6711V27.6589C10.4261 27.3502 10.0491 27.176 9.65521 27.1894C8.76642 27.2494 8.07614 27.9879 8.07614 28.8787C8.07614 29.7695 8.76642 30.508 9.65521 30.568C10.0495 30.5749 10.4247 30.3987 10.6711 30.0909V30.4988H11.3792V28.8672ZM8.74707 28.8672C8.76769 28.5166 8.97377 28.2037 9.28768 28.0462C9.6016 27.8888 9.97566 27.9108 10.2689 28.1039C10.5622 28.2971 10.7302 28.632 10.7096 28.9826V29.0057C10.677 29.5213 10.2488 29.9226 9.73218 29.9215C9.47631 29.9282 9.22853 29.8316 9.04467 29.6535C8.86081 29.4754 8.75633 29.2309 8.75476 28.9749L8.74707 28.8672Z" fill="black"/>
<path d="M25.2708 2.63867H14.627V21.7714H25.2708V2.63867Z" fill="#FF5F00"/>
<path d="M15.3036 12.2052C15.3112 8.47046 17.0299 4.94515 19.9675 2.63886C14.6956 -1.51708 7.02248 -0.608926 2.89733 4.70144C-1.22782 10.0118 -0.350459 17.6464 4.95991 21.7716C9.36921 25.2501 15.5889 25.2501 19.9982 21.7716C16.9967 19.4396 15.2728 15.9225 15.3036 12.2052Z" fill="#EB001B"/>
<path d="M39.609 12.2053C39.6166 18.9164 34.1754 24.3653 27.4644 24.373C24.7349 24.3735 22.0842 23.4574 19.9375 21.7717C25.2094 17.6157 26.1252 9.94263 22.0001 4.67074C21.3998 3.90116 20.7071 3.20843 19.9375 2.60817C25.2094 -1.54777 32.8825 -0.631926 37.0384 4.67074C38.7066 6.82798 39.6108 9.47831 39.609 12.2053Z" fill="#F79E1B"/>
</svg>
