<svg width="48" height="16" viewBox="0 0 48 16" fill="none" xmlns="http://www.w3.org/2000/svg">
<path d="M4.25977 1.74819L7.81346 15.1865H11.8599L17.9221 0.349609H13.8458L10.0631 10.5229L8.33606 1.61879L4.25977 1.74819Z" fill="white"/>
<path d="M0.4065 0.349609L0.341797 0.643262C0.341797 0.643262 6.73247 1.58892 9.669 8.4375L8.33014 1.65363C8.20073 0.902074 7.51389 0.379472 6.76233 0.379472H0.411477L0.4065 0.349609Z" fill="#FAA61A"/>
<path d="M23.3073 0.349609H19.4898L17.041 15.2214H20.8585L23.3073 0.349609Z" fill="white"/>
<path d="M44.6677 0.349609H41.4375C40.6871 0.354533 40.0101 0.801327 39.7104 1.48938L33.9668 15.1865H38.0083L38.8245 12.9667H43.7469L44.2048 15.1865H47.7585L44.6677 0.349609ZM39.9344 9.93562L41.9551 4.3612L43.1297 9.9406L39.9344 9.93562Z" fill="white"/>
<path d="M34.8185 0.707694L34.2959 3.90303C34.2959 3.90303 31.3594 2.43477 29.3386 3.60938C29.3386 3.60938 28.0346 4.58988 29.697 5.53554C31.3594 6.51604 34.3606 7.5264 34.2611 10.3932C34.1615 13.2601 31.7874 15.3853 27.6414 15.3853C27.6414 15.3853 24.904 15.3505 23.2715 14.6039L23.7941 11.2792C23.7941 11.2792 26.1085 12.5832 28.393 12.2597C30.6775 11.9362 30.1897 10.4978 30.1897 10.4978C30.1897 10.4978 30.0255 9.91046 29.05 9.4227C28.0695 8.9001 25.5261 7.8549 25.0035 5.93371C24.5158 4.00755 25.561 2.21577 26.5066 1.56377C27.4772 0.966506 29.5975 -0.825272 34.8185 0.707694Z" fill="white"/>
</svg>
