<svg width="48" height="21" viewBox="0 0 48 21" fill="none" xmlns="http://www.w3.org/2000/svg">
<path fill-rule="evenodd" clip-rule="evenodd" d="M0.384766 3.75471C0.384766 1.73559 2.02996 0.0986328 4.05845 0.0986328H44.0973C46.1269 0.0986328 47.7714 1.73559 47.7714 3.75471V16.8204C47.7714 18.8384 46.1269 20.4757 44.0973 20.4757H4.05845C2.02996 20.4757 0.386639 18.8384 0.386639 16.8204V3.75471H0.384766Z" fill="#000268"/>
<path fill-rule="evenodd" clip-rule="evenodd" d="M1.89258 3.88019V16.6971C1.89397 17.3048 2.1368 17.8871 2.56763 18.3157C2.99846 18.7444 3.58197 18.9843 4.18971 18.9826H25.1666V1.59766H4.18971C3.582 1.59608 2.99855 1.83599 2.56774 2.26462C2.13693 2.69325 1.89407 3.27548 1.89258 3.88319V3.88019ZM30.5863 10.2246C30.5863 11.0406 30.1828 11.6015 29.5147 11.6015C28.9242 11.6015 28.4323 11.0395 28.4323 10.2931C28.4323 9.52617 28.865 8.95591 29.5147 8.95591C30.2034 8.95591 30.5863 9.54602 30.5863 10.2246ZM26.6631 14.9046H28.4323V12.1219H28.4522C28.7871 12.7315 29.4563 12.9574 30.0756 12.9574C31.5994 12.9574 32.4151 11.6993 32.4151 10.1848C32.4151 8.94655 31.6388 7.59959 30.2225 7.59959C29.4166 7.59959 28.6695 7.92443 28.3146 8.64268H28.2948V7.71761H26.6631V14.9046ZM34.831 11.2174C34.831 10.7263 35.3023 10.54 35.9029 10.54C36.1682 10.54 36.4245 10.5584 36.6523 10.5693C36.6523 11.1687 36.2297 11.7783 35.5605 11.7783C35.1461 11.7783 34.831 11.5723 34.831 11.2174ZM38.3998 12.8398C38.3284 12.4409 38.2956 12.0359 38.302 11.6307V9.72287C38.302 8.15973 37.1716 7.59846 35.8636 7.59846C35.1068 7.59846 34.4481 7.70675 33.8186 7.96302L33.8486 9.16198C34.3387 8.88622 34.9101 8.77794 35.4803 8.77794C36.1173 8.77794 36.6399 8.96528 36.6504 9.66367C36.3772 9.61823 36.1008 9.59492 35.8239 9.59398C34.8808 9.59398 33.1794 9.78132 33.1794 11.3441C33.1794 12.4557 34.0839 12.9552 35.0966 12.9552C35.8239 12.9552 36.3162 12.6712 36.719 12.0312H36.7388C36.7388 12.2976 36.7677 12.5618 36.7786 12.8375L38.3998 12.8398ZM39.196 14.9046C39.5577 14.9838 39.9269 15.0238 40.2971 15.0238C41.9198 15.0238 42.3028 13.7746 42.8041 12.4861L44.6827 7.71761H42.9124L41.8614 11.0605H41.8415L40.7404 7.71761H38.8336L40.9078 12.9574C40.7801 13.41 40.4459 13.6663 40.0128 13.6663C39.7757 13.6693 39.5398 13.6327 39.3147 13.558L39.196 14.9046Z" fill="white"/>
<path fill-rule="evenodd" clip-rule="evenodd" d="M6.21551 10.2352C6.21551 9.5368 6.55983 8.95606 7.21851 8.95606C8.01507 8.95606 8.34891 9.59525 8.34891 10.1655C8.34891 10.9523 7.84722 11.4829 7.21851 11.4829C6.68797 11.4829 6.21551 11.0314 6.21551 10.2352ZM10.06 7.71776H8.45719V8.64171H8.43845C8.06378 8.01225 7.45381 7.59861 6.69734 7.59861C5.10497 7.59861 4.38672 8.74062 4.38672 10.264C4.38672 11.7785 5.26196 12.8399 6.66699 12.8399C7.37588 12.8399 7.96599 12.5642 8.38825 11.9647H8.4081V12.2405C8.4081 13.2431 7.85771 13.7249 6.83447 13.7249C6.09674 13.7249 5.64413 13.5676 5.10385 13.3023L5.01542 14.6991C5.64484 14.916 6.30621 15.0259 6.97198 15.0239C9.03681 15.0239 10.0589 14.345 10.0589 12.2405L10.06 7.71776ZM13.0511 5.58398H11.2811V6.88073H13.0511V5.58398ZM11.2819 12.8399H13.0511V7.71776H11.2819V12.8399ZM17.9792 7.65818C17.7812 7.62243 17.5808 7.60251 17.3797 7.59861C16.6127 7.59861 16.1702 8.01075 15.8653 8.66156H15.8458V7.71776H14.2347V12.8399H16.0043V10.6777C16.0043 9.67431 16.4674 9.07483 17.2928 9.07483C17.5 9.07483 17.6955 9.07483 17.8923 9.1329L17.9792 7.65818ZM21.0264 11.7193C20.2104 11.7193 19.8765 11.0407 19.8765 10.2839C19.8765 9.51695 20.2104 8.83841 21.0264 8.83841C21.8424 8.83841 22.1774 9.51695 22.1774 10.2839C22.1774 11.0396 21.8432 11.7193 21.0264 11.7193ZM21.0264 12.9576C22.7177 12.9576 24.0062 11.9752 24.0062 10.2839C24.0062 8.58251 22.7177 7.59861 21.0264 7.59861C19.3351 7.59861 18.0481 8.58251 18.0481 10.2839C18.0481 11.9763 19.3355 12.9576 21.0264 12.9576Z" fill="#FF0007"/>
</svg>
