<svg width="35" height="32" viewBox="0 0 35 32" fill="none" xmlns="http://www.w3.org/2000/svg">
<path d="M0.302734 0.716797H21.9093C29.089 0.716797 34.9093 6.5371 34.9093 13.7168V18.1239C34.9093 25.3036 29.089 31.1239 21.9093 31.1239H0.302734V0.716797Z" fill="white"/>
<path d="M10.0646 17.9375H4.79297V26.6288H10.0646V17.9375Z" fill="black"/>
<path d="M10.3742 13.4384C10.3735 15.0668 9.05426 16.3864 7.42745 16.3859C5.80065 16.3855 4.48218 15.0651 4.48242 13.4367C4.48266 11.8083 5.80151 10.4883 7.42832 10.4883C8.21006 10.4876 8.95995 10.7982 9.5126 11.3517C10.0653 11.9051 10.3753 12.6559 10.3742 13.4384Z" fill="black"/>
<path d="M20.1508 1.48633H1.07227V30.3538H20.1508V30.3482C24.3176 30.2936 27.6164 29.2583 29.9612 27.2692C32.8087 24.8488 34.2524 21.0308 34.2524 15.9211C34.2524 13.4781 33.8735 11.2861 33.1216 9.40823C32.4023 7.61117 31.3428 6.08227 29.9721 4.86591C27.555 2.72421 24.1623 1.56314 20.1435 1.49725C20.1474 1.4948 20.15 1.49083 20.1508 1.48633ZM19.7859 3.40357C23.4805 3.40357 26.5659 4.40043 28.6957 6.29581C31.1069 8.43189 32.3309 11.6694 32.3309 15.9211C32.3309 24.3393 28.2302 28.4356 19.7859 28.4356H2.99373V3.40357H19.7859Z" fill="black"/>
<path d="M19.251 26.6291H12.5449V5.83203H18.9787C24.5769 5.83203 30.5304 8.04299 30.5304 16.258C30.5304 24.9434 24.5717 26.6291 18.9787 26.6291H19.251Z" fill="#CD0067"/>
<path d="M11.1309 11.2471H12.9855C13.4039 11.2471 13.7229 11.2801 13.943 11.3399C14.2329 11.4229 14.4951 11.5815 14.7024 11.7992C14.9187 12.0316 15.0821 12.3076 15.1813 12.6083C15.2922 12.9255 15.3476 13.3191 15.3476 13.7892C15.3476 14.1992 15.2981 14.5544 15.1936 14.8551C15.0669 15.2215 14.891 15.5112 14.6542 15.7405C14.4782 15.91 14.2417 16.0468 13.9391 16.1397C13.7132 16.2107 13.4162 16.2437 13.041 16.2437H11.1309V11.2471ZM12.149 12.0946V15.3963H12.9086C13.1947 15.3963 13.3982 15.3797 13.525 15.347C13.6781 15.3139 13.8202 15.2423 13.9377 15.1392C14.0475 15.0401 14.1373 14.8825 14.2018 14.6581C14.2663 14.4338 14.3063 14.1295 14.3063 13.7452C14.3063 13.3574 14.273 13.062 14.2018 12.8598C14.1487 12.6785 14.0502 12.5135 13.9154 12.3804C13.7944 12.2657 13.6351 12.189 13.4421 12.1454C13.2991 12.1124 13.0241 12.0962 12.606 12.0962L12.149 12.0946Z" fill="white"/>
<path d="M10.9941 11.111V16.3806H13.0413C13.4265 16.3806 13.7455 16.3423 13.9823 16.266C14.3016 16.1619 14.56 16.0198 14.7526 15.8341C15.0004 15.5936 15.193 15.282 15.325 14.8991C15.4351 14.5875 15.4847 14.2158 15.4847 13.7896C15.4847 13.3085 15.4241 12.8975 15.314 12.5651C15.2094 12.2447 15.0346 11.9513 14.8021 11.7061C14.5782 11.4708 14.2952 11.2991 13.9823 11.2085C13.7455 11.1424 13.4208 11.1094 12.9845 11.1094L10.9941 11.111ZM12.9918 11.3843C13.3936 11.3843 13.7072 11.4173 13.9108 11.4718C14.1778 11.5465 14.4193 11.692 14.6092 11.8928C14.8132 12.1107 14.9672 12.37 15.0606 12.6527C15.165 12.959 15.2202 13.3416 15.2202 13.7899C15.2202 14.1834 15.1707 14.5277 15.0716 14.8066C14.9558 15.1456 14.7855 15.4297 14.5653 15.6375C14.4057 15.7905 14.1855 15.9164 13.9048 16.004C13.6959 16.07 13.4097 16.1031 13.0463 16.1031H11.2749V11.3787C11.5057 11.3843 12.9918 11.3843 12.9918 11.3843Z" fill="white"/>
<path d="M12.0117 11.958V15.5333H12.9098C13.2068 15.5333 13.4213 15.5168 13.559 15.4841C13.7332 15.4454 13.8944 15.3626 14.0266 15.2435C14.1534 15.1285 14.2578 14.9481 14.335 14.7023C14.4065 14.4618 14.4451 14.1502 14.4451 13.7511C14.4451 13.3467 14.4065 13.0404 14.335 12.8217C14.2578 12.5904 14.1477 12.4117 14.0103 12.2805C13.8601 12.1449 13.6756 12.0524 13.4765 12.0129C13.3222 11.9798 13.0418 11.9636 12.6117 11.9636H12.013L12.0117 11.958ZM12.6061 12.2313C13.1067 12.2313 13.3212 12.2531 13.4093 12.2752C13.5609 12.3051 13.7017 12.3749 13.8168 12.4774C13.9355 12.5963 14.0226 12.7428 14.0699 12.9036C14.1364 13.0949 14.1633 13.3794 14.1633 13.7511C14.1633 14.1228 14.1301 14.4119 14.0636 14.6257C14.003 14.8239 13.9259 14.9647 13.8381 15.0466C13.7373 15.1334 13.6162 15.1937 13.4858 15.2217C13.3701 15.2488 13.1775 15.2653 12.9024 15.2653H12.2805V12.2369C12.4188 12.2313 12.6061 12.2313 12.6061 12.2313Z" fill="white"/>
<path d="M16.4964 16.2437V11.2471H20.2216V12.0946H17.5142V13.1988H20.035V14.0515H17.5145V15.4019H20.3211V16.249H16.4961L16.4964 16.2437Z" fill="white"/>
<path d="M16.3594 11.1113V16.3809H20.4538V15.2602H17.6472V14.1834H20.1677V13.0683H17.6472V12.2373H20.3546V11.1166H16.3594V11.1113ZM20.0846 11.3846V11.9585H17.3775V13.3415H19.898V13.9155H17.3775V15.5391H20.184V16.1146H16.6401V11.3899C16.8822 11.3846 19.8368 11.3846 20.0846 11.3846Z" fill="white"/>
<path d="M26.0028 16.2437H24.8949L24.4549 15.1065H22.4463L22.0279 16.2437H20.9492L22.9029 11.2471H23.9869L26.0028 16.2437ZM24.1299 14.2636L23.4368 12.4104L22.7543 14.2636H24.1299Z" fill="white"/>
<path d="M22.8141 11.1113L20.752 16.3809H22.1276C22.1276 16.3809 22.4908 15.397 22.5457 15.244H24.3674C24.4223 15.3917 24.8078 16.3809 24.8078 16.3809H26.211L24.0853 11.1113H22.8141ZM23.8928 11.3846C23.9593 11.5432 25.6592 15.7687 25.7969 16.1093H24.988C24.9328 15.9616 24.5477 14.9724 24.5477 14.9724H22.3465C22.3465 14.9724 21.9833 15.9563 21.928 16.1093H21.1461C21.2791 15.7703 22.9292 11.5448 22.995 11.3846H23.8928Z" fill="white"/>
<path d="M22.5605 14.4021H24.327L23.4356 12.0176L22.5605 14.4021ZM23.4356 12.8059C23.5843 13.2103 23.8427 13.8883 23.9309 14.1232H22.9514C23.0395 13.8936 23.287 13.2103 23.4356 12.8059Z" fill="white"/>
<path d="M26.8477 16.2445V11.2861H27.8601V15.397H30.3879V16.2445H26.8477Z" fill="white"/>
<path d="M26.7109 11.1543V16.3859H30.5303V15.2652H28.0024V11.1543H26.7109ZM27.729 11.4275V15.5384H30.2549V16.114H26.9863V11.4275H27.729Z" fill="white"/>
</svg>
