<svg width="35" height="37" viewBox="0 0 35 37" fill="none" xmlns="http://www.w3.org/2000/svg">
<path d="M26.8849 11.8819C27.4149 9.81189 27.2192 7.55336 26.1674 5.52027C23.8844 1.10158 18.4092 -0.603591 13.9654 1.71643L8.56358 4.53652C7.41799 5.13496 6.97361 6.54911 7.56883 7.70092C8.16405 8.85273 9.57056 9.29952 10.7162 8.70107L16.118 5.88508C18.2787 4.75376 20.9327 5.56536 22.0294 7.68452C23.1261 9.80779 22.2577 12.4516 20.097 13.5829L14.6952 16.403C13.5496 17.0015 13.1052 18.4156 13.7004 19.5674C14.2956 20.7192 15.7021 21.166 16.8477 20.5676L22.2495 17.7475L23.6601 17.0097C25.8209 15.8784 28.4749 16.69 29.5716 18.8091C30.6682 20.9324 29.7999 23.5762 27.6391 24.7075L13.8472 31.9094C12.7016 32.5079 12.2572 33.922 12.8524 35.0738C13.4476 36.2256 14.8542 36.6724 15.9997 36.074L29.7876 28.8721C34.2355 26.548 35.9926 21.0677 33.7096 16.649C32.3112 13.9395 29.7102 12.2508 26.8849 11.8819Z" fill="white"/>
<path d="M12.3273 29.1385C13.4658 28.5375 13.9075 27.1173 13.3159 25.9605L4.75031 9.21451C4.15873 8.05776 2.76084 7.60906 1.62227 8.21008C0.483702 8.81109 0.0420496 10.2313 0.63362 11.388L9.19924 28.1382C9.79081 29.2908 11.1887 29.7395 12.3273 29.1385Z" fill="white"/>
</svg>
