<svg width="25" height="31" viewBox="0 0 25 31" fill="none" xmlns="http://www.w3.org/2000/svg">
<path d="M17.0062 5.45347C15.9431 6.69531 14.2344 7.67172 12.5353 7.52952C12.3265 5.84846 13.152 4.06944 14.1348 2.9698C15.1979 1.69004 17.0608 0.786314 18.5704 0.716797C18.7438 2.46738 18.0533 4.1832 17.0062 5.45347ZM18.5511 7.86763C16.0876 7.72544 13.971 9.24534 12.7954 9.24534C11.6038 9.24534 9.8148 7.94031 7.85877 7.96559C5.32138 8.00035 2.96064 9.41282 1.65983 11.669C-1.00283 16.175 0.969272 22.8487 3.54199 26.5141C4.80426 28.3374 6.31385 30.3313 8.30522 30.2618C10.1874 30.1891 10.9325 29.0547 13.2033 29.0547C15.4934 29.0547 16.1486 30.2618 18.14 30.227C20.202 30.1923 21.4932 28.4101 22.7587 26.5963C24.1944 24.5392 24.7854 22.5264 24.8207 22.4189C24.7854 22.3842 20.838 20.899 20.8123 16.4278C20.777 12.6896 23.9214 10.9106 24.0563 10.8032C22.2801 8.21838 19.5051 7.94031 18.5511 7.86763Z" fill="black"/>
</svg>
