<svg width="38" height="31" viewBox="0 0 38 31" fill="none" xmlns="http://www.w3.org/2000/svg">
<path d="M14.4651 21.6826C13.9422 21.6826 13.4553 21.8263 13.0403 22.0777C12.6451 21.8582 12.1902 21.7345 11.7032 21.7345C10.1786 21.7345 8.94141 22.9717 8.94141 24.4963C8.94141 26.0209 10.1786 27.2582 11.7032 27.2582C12.2261 27.2582 12.713 27.1145 13.1281 26.8631C13.5232 27.0826 13.9782 27.2063 14.4651 27.2063C15.9897 27.2063 17.2269 25.969 17.2269 24.4445C17.2229 22.9199 15.9897 21.6826 14.4651 21.6826ZM14.4651 26.6356C14.1697 26.6356 13.8904 26.5757 13.6349 26.4719C14.1458 25.969 14.4651 25.2706 14.4651 24.4963C14.4651 23.6861 14.1139 22.9558 13.5591 22.4529C13.8345 22.3252 14.1418 22.2573 14.4651 22.2573C15.6744 22.2573 16.6562 23.2391 16.6562 24.4484C16.6562 25.6538 15.6704 26.6356 14.4651 26.6356Z" fill="black"/>
<path d="M18.2285 25.6683C18.3642 25.5097 18.5358 25.4258 18.7434 25.4258C19.0227 25.4258 19.2263 25.533 19.354 25.7475C19.4258 25.8688 19.4617 25.99 19.4697 26.1112H19.1225C19.0986 26.018 19.0706 25.948 19.0387 25.9014C18.9748 25.8175 18.883 25.7755 18.7633 25.7755C18.6396 25.7755 18.5398 25.8361 18.468 25.9527C18.3961 26.0739 18.3602 26.2418 18.3602 26.461C18.3602 26.6801 18.3961 26.8433 18.472 26.9506C18.5478 27.0578 18.6436 27.1138 18.7593 27.1138C18.879 27.1138 18.9708 27.0671 19.0347 26.9739C19.0706 26.9226 19.0986 26.848 19.1225 26.7454H19.4697C19.4418 26.9599 19.362 27.1324 19.2422 27.263C19.1185 27.3982 18.9629 27.4635 18.7713 27.4635C18.5318 27.4635 18.3482 27.3749 18.2125 27.193C18.0768 27.0112 18.009 26.764 18.009 26.447C17.997 26.1159 18.0768 25.8501 18.2285 25.6683Z" fill="black"/>
<path d="M21.352 25.5162C21.4419 25.5502 21.5198 25.5939 21.5858 25.6571C21.6397 25.7106 21.6816 25.7641 21.7116 25.8273C21.7416 25.8905 21.7596 25.9634 21.7596 26.0412C21.7596 26.1384 21.7296 26.2308 21.6697 26.328C21.6097 26.4204 21.5078 26.4885 21.37 26.5273C21.4839 26.5662 21.5678 26.6197 21.6157 26.6878C21.6637 26.7558 21.6876 26.8628 21.6876 27.0038V27.1399C21.6876 27.2323 21.6936 27.2955 21.6996 27.3295C21.7116 27.383 21.7476 27.4219 21.7955 27.4462V27.4996H21.2142C21.1962 27.4559 21.1842 27.417 21.1782 27.3927C21.1662 27.3344 21.1602 27.276 21.1542 27.2177L21.1482 27.0281C21.1482 26.8968 21.1183 26.8142 21.0643 26.7704C21.0104 26.7267 20.9145 26.7072 20.7647 26.7072H20.2672V27.5045H19.7578V25.4675H20.9565C21.1243 25.4627 21.2561 25.4821 21.352 25.5162ZM20.2672 25.8176V26.3621H20.8306C20.9445 26.3621 21.0284 26.3523 21.0823 26.328C21.1842 26.2891 21.2322 26.2113 21.2322 26.0995C21.2322 25.978 21.1842 25.8953 21.0883 25.8516C21.0344 25.8273 20.9565 25.8176 20.8486 25.8176H20.2672Z" fill="black"/>
<path d="M22.6589 25.8079H21.7728V26.223H22.583V26.5633H21.7728V27.0669H22.6988V27.4167H21.4336V25.4629H22.6589V25.8079Z" fill="black"/>
<path d="M24.381 25.5066C24.5479 25.5553 24.6861 25.6379 24.7897 25.7644C24.876 25.8665 24.9336 25.9735 24.9624 26.0951C24.9911 26.2118 25.0084 26.3237 25.0084 26.4307C25.0084 26.703 24.9451 26.9316 24.8127 27.1164C24.64 27.3693 24.3695 27.4957 24.0068 27.4957H22.9707V25.458H24.0068C24.1565 25.4629 24.2831 25.4775 24.381 25.5066ZM23.46 25.8179V27.1456H23.9262C24.1622 27.1456 24.3292 27.0483 24.4213 26.8489C24.4731 26.7419 24.4961 26.6106 24.4961 26.4598C24.4961 26.2507 24.4558 26.0951 24.381 25.9832C24.3061 25.8714 24.1507 25.8179 23.9205 25.8179H23.46Z" fill="black"/>
<path d="M24.9664 27.4118H24.6191V25.458H24.9664V27.4118Z" fill="black"/>
<path d="M26.5054 25.4629V25.8079H26.0025V27.412H25.6513V25.8079H25.1484V25.4629H26.5054Z" fill="black"/>
<path d="M27.5117 25.6683C27.6474 25.5097 27.819 25.4258 28.0266 25.4258C28.3059 25.4258 28.5095 25.533 28.6372 25.7475C28.709 25.8688 28.745 25.99 28.7529 26.1112H28.4057C28.3818 26.018 28.3538 25.948 28.3219 25.9014C28.258 25.8175 28.1662 25.7755 28.0465 25.7755C27.9228 25.7755 27.823 25.8361 27.7512 25.9527C27.6793 26.0739 27.6434 26.2418 27.6434 26.461C27.6434 26.6801 27.6793 26.8433 27.7552 26.9506C27.831 27.0578 27.9268 27.1138 28.0425 27.1138C28.1623 27.1138 28.254 27.0671 28.3179 26.9739C28.3538 26.9226 28.3818 26.848 28.4057 26.7454H28.7529C28.725 26.9599 28.6452 27.1324 28.5254 27.263C28.4017 27.3982 28.2461 27.4635 28.0545 27.4635C27.815 27.4635 27.6314 27.3749 27.4957 27.193C27.36 27.0112 27.2922 26.764 27.2922 26.447C27.2802 26.1159 27.36 25.8501 27.5117 25.6683Z" fill="black"/>
<path d="M29.6788 25.4629H30.1882L30.9498 27.5006H30.461L30.3169 27.0824H29.5245L29.3804 27.5006H28.9121L29.6788 25.4629ZM29.6479 26.7273H30.1985L29.9258 25.9249L29.6479 26.7273Z" fill="black"/>
<path d="M32.3071 25.5162C32.397 25.5502 32.4749 25.5939 32.5408 25.6571C32.5948 25.7106 32.6367 25.7641 32.6667 25.8273C32.6967 25.8905 32.7146 25.9634 32.7146 26.0412C32.7146 26.1384 32.6847 26.2308 32.6247 26.328C32.5648 26.4204 32.4629 26.4885 32.3251 26.5273C32.4389 26.5662 32.5229 26.6197 32.5708 26.6878C32.6187 26.7558 32.6427 26.8628 32.6427 27.0038V27.1399C32.6427 27.2323 32.6487 27.2955 32.6547 27.3295C32.6667 27.383 32.7027 27.4219 32.7506 27.4462V27.4996H32.1693C32.1513 27.4559 32.1393 27.417 32.1333 27.3927C32.1213 27.3344 32.1153 27.276 32.1093 27.2177L32.1033 27.0281C32.1033 26.8968 32.0734 26.8142 32.0194 26.7704C31.9655 26.7267 31.8696 26.7072 31.7198 26.7072H31.2103V27.5045H30.7129V25.4675H31.9115C32.0853 25.4627 32.2172 25.4821 32.3071 25.5162ZM31.2283 25.8176V26.3621H31.7917C31.9055 26.3621 31.9895 26.3523 32.0434 26.328C32.1453 26.2891 32.1932 26.2113 32.1932 26.0995C32.1932 25.978 32.1453 25.8953 32.0494 25.8516C31.9954 25.8273 31.9175 25.8176 31.8097 25.8176H31.2283Z" fill="black"/>
<path d="M33.7911 25.5066C33.9581 25.5553 34.0962 25.6379 34.1998 25.7644C34.2862 25.8665 34.3437 25.9735 34.3725 26.0951C34.4013 26.2118 34.4186 26.3237 34.4186 26.4307C34.4186 26.703 34.3552 26.9316 34.2229 27.1164C34.0502 27.3693 33.7796 27.4957 33.417 27.4957H32.3809V25.458H33.417C33.5724 25.4629 33.6933 25.4775 33.7911 25.5066ZM32.8701 25.8179V27.1456H33.3364C33.5724 27.1456 33.7393 27.0483 33.8314 26.8489C33.8832 26.7419 33.9063 26.6106 33.9063 26.4598C33.9063 26.2507 33.866 26.0951 33.7911 25.9832C33.7163 25.8714 33.5609 25.8179 33.3306 25.8179H32.8701Z" fill="black"/>
<path d="M34.3518 8.35208L34.4795 7.54588C34.7389 5.9255 33.6334 4.39691 32.017 4.13749L6.54986 0.0426294C4.92948 -0.216792 3.40089 0.888741 3.14147 2.50513L0.559231 18.5773C0.29981 20.1976 1.40534 21.7262 3.02173 21.9856L5.4563 22.3768V27.5971C5.4563 29.2375 6.78932 30.5705 8.42966 30.5705H34.2241C35.8644 30.5705 37.1974 29.2375 37.1974 27.5971V11.3215C37.1974 9.72502 35.9323 8.41594 34.3518 8.35208ZM5.02127 2.80846C5.11307 2.22576 5.66384 1.83064 6.24654 1.92243L31.7137 6.01729C32.2964 6.10909 32.6915 6.65986 32.5997 7.24256L32.4201 8.34809H23.1289L4.61019 5.37074L5.02127 2.80846ZM3.32506 20.1058C2.74236 20.014 2.34724 19.4633 2.43903 18.8806L3.77206 10.5951L5.49222 10.8705C5.46827 11.0181 5.4563 11.1658 5.4563 11.3215V20.4491L3.32506 20.1058ZM35.2937 27.6011C35.2937 28.1918 34.8148 28.6707 34.2241 28.6707H8.42966C7.83898 28.6707 7.36005 28.1918 7.36005 27.6011V19.2078H35.2897V27.6011H35.2937ZM35.2937 13.9157H7.36005V11.3215C7.36005 10.7308 7.83898 10.2518 8.42966 10.2518H34.2241C34.8148 10.2518 35.2937 10.7308 35.2937 11.3215V13.9157Z" fill="black"/>
</svg>
