<svg width="47" height="22" viewBox="0 0 47 22" fill="none" xmlns="http://www.w3.org/2000/svg">
<path d="M36.0824 0.811523C34.1871 0.811523 32.4166 1.32927 30.8957 2.23071L30.891 2.23533C30.4103 2.52194 29.9526 2.84553 29.5227 3.20611L20.7302 9.45144C19.9814 4.56057 15.7562 0.811523 10.6573 0.811523C8.54931 0.811523 6.58464 1.45409 4.96206 2.54968C2.24851 4.38028 0.46875 7.48215 0.46875 11.0001C0.46875 13.464 1.34245 15.7199 2.79399 17.4811C4.66158 19.7463 7.4907 21.1886 10.6573 21.1886C12.4139 21.1886 14.0689 20.7448 15.5158 19.9589C15.7932 19.8064 16.0613 19.6446 16.3201 19.4689C16.4866 19.358 16.6484 19.2424 16.8102 19.1222L26.014 12.5625C26.7629 17.4488 30.9881 21.1886 36.0824 21.1886C37.7373 21.1886 39.2998 20.7957 40.682 20.093C43.9965 18.4103 46.2709 14.971 46.2709 11.0001C46.2709 8.89208 45.6284 6.92742 44.5328 5.30483C42.7022 2.59128 39.6003 0.811523 36.0824 0.811523ZM10.6573 15.5997C9.39065 15.5997 8.24883 15.0912 7.41674 14.2637C6.58002 13.4316 6.05765 12.2759 6.05765 11.0001C6.05765 9.60861 6.6771 8.36047 7.6525 7.51913C8.45686 6.82109 9.51084 6.40042 10.6573 6.40042C13.1998 6.40042 15.2569 8.45755 15.2569 11.0001C15.2569 13.5426 13.1998 15.5997 10.6573 15.5997ZM36.0824 15.5997C33.5399 15.5997 31.4828 13.5426 31.4828 11.0001C31.4828 8.45755 33.5399 6.40042 36.0824 6.40042C37.668 6.40042 39.0687 7.20478 39.8962 8.42981C40.3908 9.16483 40.682 10.0478 40.682 11.0001C40.682 12.7151 39.7436 14.2082 38.3522 14.9987C37.6819 15.3824 36.9099 15.5997 36.0824 15.5997Z" fill="white"/>
</svg>
