<svg width="37" height="37" viewBox="0 0 37 37" fill="none" xmlns="http://www.w3.org/2000/svg">
<path d="M18.1993 20.3419C23.2173 20.3419 27.2853 16.274 27.2853 11.2559C27.2853 6.23786 23.2173 2.16992 18.1993 2.16992C13.1812 2.16992 9.11328 6.23786 9.11328 11.2559C9.11328 16.274 13.1812 20.3419 18.1993 20.3419Z" fill="#89C763"/>
<path d="M10.8516 34.8527C15.8697 34.8527 19.9376 30.7847 19.9376 25.7667C19.9376 20.7486 15.8697 16.6807 10.8516 16.6807C5.83357 16.6807 1.76562 20.7486 1.76562 25.7667C1.76562 30.7847 5.83357 34.8527 10.8516 34.8527Z" fill="#FFCB5B"/>
<path d="M25.4161 32.5988C30.4341 32.5988 34.5021 28.5308 34.5021 23.5128C34.5021 18.4947 30.4341 14.4268 25.4161 14.4268C20.398 14.4268 16.3301 18.4947 16.3301 23.5128C16.3301 28.5308 20.398 32.5988 25.4161 32.5988Z" fill="#D5E3EF"/>
<path d="M25.4277 18.6348L28.6289 22.7142L25.4277 24.3144L22.2305 22.672L25.4277 18.6348Z" fill="#0B3A5B"/>
<path d="M22.2305 23.5547L25.4277 25.1514L28.6289 23.5547L25.4277 28.3525L22.2305 23.5547Z" fill="#0B3A5B"/>
<path d="M25.4303 17.0344C28.4887 17.0371 31.1193 19.1995 31.714 22.1994C32.3087 25.1993 30.7018 28.2017 27.8757 29.3708C25.0497 30.5399 21.7914 29.5504 20.0928 27.0071C18.3943 24.4638 18.7284 21.075 20.8909 18.9124C22.0925 17.7053 23.7271 17.029 25.4303 17.0344ZM25.4303 16.1602C21.4006 16.1602 18.1387 19.4221 18.1387 23.4479C18.1387 27.4737 21.4006 30.7396 25.4303 30.7396C27.3644 30.7404 29.2195 29.9725 30.5872 28.605C31.9548 27.2374 32.7228 25.3823 32.722 23.4483C32.7181 19.4225 29.4561 16.1602 25.4303 16.1602Z" fill="#0B3A5B"/>
<path d="M8.1558 28.3787H7.95421C7.54479 28.3787 7.21289 28.7106 7.21289 29.12C7.21289 29.5294 7.54479 29.8613 7.95421 29.8613H9.71065C9.712 30.2686 10.0407 30.5991 10.448 30.6026C10.8554 30.6013 11.1858 30.2726 11.1894 29.8652H12.2806C12.558 29.8652 13.3072 29.812 13.8891 29.2723C14.1929 28.991 14.5539 28.4698 14.5646 27.5945C14.5836 26.5936 14.1768 26.0217 13.8347 25.7126C13.695 25.5888 13.5405 25.4829 13.3747 25.3973C13.5799 25.0399 13.7093 24.5949 13.6939 24.0512C13.6485 22.4395 12.3596 21.8616 11.683 21.7779C11.6539 21.7747 11.6246 21.7734 11.5954 21.774H11.1972V21.6525C11.1972 21.243 10.8653 20.9111 10.4559 20.9111C10.0465 20.9111 9.71458 21.243 9.71458 21.6525V21.774H7.95421C7.54479 21.774 7.21289 22.1059 7.21289 22.5153C7.21289 22.9247 7.54479 23.2566 7.95421 23.2566H8.1558V28.3787ZM11.5318 23.2466C11.6613 23.2758 11.7839 23.33 11.8928 23.406C12.1072 23.5544 12.2084 23.771 12.2145 24.0852C12.2334 24.7314 11.8192 24.9938 11.6215 25.086H9.63844V23.2466H11.5318ZM12.8965 28.1621C12.7102 28.3368 12.3961 28.3672 12.2806 28.3672H9.63844V26.569H11.7559C11.7928 26.5686 11.8297 26.566 11.8663 26.5615C12.0865 26.5465 12.5769 26.5729 12.8507 26.8199C12.9115 26.8771 13.1009 27.0483 13.0941 27.5612C13.0902 27.835 13.0276 28.0441 12.8965 28.1621Z" fill="#0B3A5B"/>
<path d="M28.5789 13.3433C28.7149 12.6584 28.7836 11.9619 28.7841 11.2637C28.7841 5.42035 24.0434 0.679688 18.2001 0.679688C12.3567 0.679688 7.62002 5.41678 7.62002 11.2598C7.61779 12.6962 7.90884 14.1179 8.47536 15.4378C3.77259 16.5176 0.267578 20.7261 0.267578 25.7555C0.267578 31.5978 5.00466 36.3396 10.8516 36.3396C14.3187 36.3396 17.3927 34.6707 19.3253 32.0968C21.1101 33.3609 23.2439 34.0386 25.431 34.0359C31.2744 34.0359 36.0111 29.2988 36.0111 23.4519C36.0111 18.7034 32.8825 14.6851 28.5789 13.3433ZM10.1292 7.85734C10.5686 6.81707 11.2064 5.87239 12.0072 5.07614C12.8055 4.27657 13.7503 3.63835 14.7902 3.19639C18.0727 1.8078 21.8696 2.55161 24.3855 5.07614C25.1843 5.87466 25.8219 6.81952 26.2635 7.85913C26.9405 9.46811 27.1235 11.2421 26.7893 12.9554C26.3363 12.8974 25.8801 12.8683 25.4235 12.8682H25.3238C25.4311 12.3647 25.4847 11.8511 25.4836 11.3363C25.4836 7.31011 22.2216 4.04458 18.1919 4.04458C14.1622 4.04458 10.9002 7.30653 10.9002 11.3363C10.8974 12.7192 11.2906 14.074 12.0333 15.2405C11.637 15.1947 11.2384 15.1719 10.8394 15.1723C10.6797 15.1723 10.5177 15.1758 10.3565 15.1833C9.74943 13.966 9.43314 12.6244 9.43257 11.2641C9.43861 10.0937 9.67533 8.93608 10.1292 7.85734ZM20.4012 10.8308C20.1076 10.6249 19.7685 10.4932 19.4129 10.447C19.3876 10.4437 19.3622 10.4424 19.3367 10.443H17.0063C16.9077 10.421 16.8154 10.3769 16.7364 10.314C16.6756 10.2643 16.4819 10.1124 16.4819 9.622C16.4819 9.1316 16.691 8.96432 16.7593 8.91106C16.8481 8.84158 16.9503 8.79109 17.0595 8.76272H19.6981C20.122 8.75365 20.461 8.40738 20.461 7.98334C20.461 7.5593 20.122 7.21303 19.6981 7.20395H18.9185V7.12424C18.9185 6.6939 18.5697 6.34503 18.1393 6.34503C17.709 6.34503 17.3601 6.6939 17.3601 7.12424V7.20395H16.9798C16.948 7.20445 16.9162 7.20708 16.8847 7.21181C16.2056 7.29545 14.9231 7.91131 14.9231 9.62593C14.9231 10.4838 15.2616 11.1922 15.8775 11.6218C16.171 11.8272 16.5103 11.9576 16.8658 12.0018C16.891 12.0051 16.9165 12.0064 16.9419 12.0057H19.2799C19.3625 12.0289 19.4408 12.0651 19.5119 12.113C19.5834 12.1623 19.7978 12.3142 19.7978 12.835C19.7978 13.1735 19.7067 13.409 19.5205 13.5574C19.4318 13.6271 19.3295 13.6776 19.2202 13.7057H16.5806C16.1566 13.7148 15.8177 14.061 15.8177 14.4851C15.8177 14.9091 16.1566 15.2554 16.5806 15.2645H17.3408V15.4432C17.3406 15.7409 17.5105 16.0126 17.7783 16.1427C17.4859 16.4498 17.2114 16.7734 16.9562 17.1121C15.849 16.328 14.6007 15.7652 13.28 15.4546C11.3429 13.1306 11.2946 9.76858 13.1642 7.38992C15.0338 5.01126 18.312 4.26385 21.0279 5.59709C23.7438 6.93032 25.1575 9.98108 24.4191 12.915C23.314 13.0193 22.2324 13.2977 21.2143 13.74C21.3104 13.4472 21.3583 13.1407 21.3562 12.8325C21.3516 11.7273 20.8387 11.1343 20.4012 10.8308ZM16.4476 29.0479C15.0804 31.3819 12.3957 32.6072 9.73663 32.1107C7.07757 31.6143 5.01587 29.5029 4.58292 26.8327C4.14997 24.1626 5.43886 21.5079 7.8048 20.1966C10.1707 18.8854 13.105 19.1996 15.1397 20.982C14.4841 23.738 14.9548 26.6416 16.4476 29.0493V29.0479ZM17.0406 31.9485C13.9286 35.0572 8.99274 35.3732 5.50985 32.6865C2.02696 29.9999 1.07936 25.1455 3.29616 21.3462C5.51297 17.547 10.2053 15.9834 14.2579 17.6936C14.8691 17.9532 15.4493 18.2806 15.9876 18.6694C15.7583 19.119 15.5626 19.5849 15.4021 20.0634C14.1212 19.059 12.5401 18.5139 10.9124 18.5157C6.8862 18.5157 3.62068 21.7777 3.62068 25.8074C3.61878 29.0253 5.72656 31.8641 8.80753 32.793C11.8885 33.7219 15.2141 32.5213 16.9913 29.8385C17.2805 30.2197 17.5942 30.5817 17.9302 30.9223C17.6588 31.2853 17.3615 31.6283 17.0406 31.9485ZM31.62 29.6409C28.4399 32.8074 23.3754 33.042 19.9161 30.1832C16.4568 27.3244 15.7333 22.3063 18.2441 18.5867C20.7549 14.8671 25.6795 13.6615 29.6245 15.8007C33.5696 17.9399 35.2458 22.7247 33.4983 26.8582C33.0582 27.8986 32.4203 28.8436 31.62 29.6409Z" fill="#0B3A5B"/>
</svg>
