<svg width="47" height="11" viewBox="0 0 47 11" fill="none" xmlns="http://www.w3.org/2000/svg">
<path d="M0.195312 0.914062H10.4804V4.3135H7.29658V8.65056H3.78978V7.17716L6.64597 4.3135L3.79439 1.48679V4.30888H0.195312V0.914062Z" fill="white"/>
<path d="M19.4418 2.42903H17.2593V8.65056H15.5012L15.5105 2.42903H13.3418L13.351 0.914062H19.4464L19.4418 2.42903Z" fill="white"/>
<path d="M22.5141 4.55912L21.942 4.5776C21.6467 4.60069 21.3468 4.68383 21.1253 4.89168C20.8807 5.12262 20.7284 5.4875 20.7284 5.82006C20.7284 6.08333 20.7284 6.34198 20.7284 6.60525C20.7284 7.21031 20.7238 7.82 20.7238 8.42506C20.7238 8.43892 20.7238 8.66524 20.7238 8.66524L19.1504 8.67447V3.0303L20.6823 3.02568L20.6731 3.82473C20.9638 3.27048 21.4667 2.97949 21.9927 2.97949C22.1773 2.97949 22.3619 2.98873 22.5464 2.98873L22.5141 4.55912Z" fill="white"/>
<path d="M26.8054 8.0042C26.427 8.47993 25.8779 8.8171 25.1212 8.78477C24.4937 8.75706 24.0184 8.60464 23.6954 8.24437C23.3724 7.88411 23.2109 7.36218 23.2109 6.68784V3.02051H24.7521L24.7475 6.42457C24.7475 6.90954 25.2273 7.37604 25.7026 7.37604C25.9425 7.37604 26.1733 7.28828 26.3532 7.13124C26.4732 7.02501 26.5839 6.89106 26.6485 6.73864C26.7223 6.56775 26.7131 6.40147 26.7131 6.22134C26.7131 6.0412 26.7131 5.85645 26.7131 5.67632C26.7131 5.21906 26.7177 4.76642 26.7177 4.30915C26.7177 3.94427 26.7177 3.584 26.7223 3.21912C26.7223 3.15445 26.7223 3.08517 26.7223 3.02051H28.2912L28.2958 8.67392L26.8008 8.6693V8.0042H26.8054Z" fill="white"/>
<path d="M32.5311 5.37607C32.2865 5.28831 31.9451 5.24674 31.6175 5.18208C31.2898 5.11742 31.0084 5.08508 30.8607 4.98809C30.7131 4.89109 30.6392 4.76177 30.6392 4.60473C30.6392 4.45231 30.6992 4.32298 30.8238 4.22137C30.9438 4.11975 31.096 4.13361 31.276 4.13361C31.7374 4.13361 32.2173 4.35531 32.2173 4.80796L33.5831 4.54468C33.5831 3.99043 33.3247 3.70406 32.8864 3.36227C32.448 3.0251 32.005 2.90039 31.2806 2.90039C30.6069 2.90039 30.0625 3.07129 29.6472 3.40846C29.2319 3.74563 29.0243 4.17518 29.0243 4.6971C29.0243 4.99271 29.0612 5.29755 29.2042 5.52387C29.3473 5.75019 29.5411 5.9488 29.8179 6.10584C30.0948 6.26288 30.5054 6.34602 30.9299 6.44301C31.3544 6.54001 31.6451 6.637 31.7974 6.72476C31.9497 6.81713 32.1112 6.93722 32.1112 7.08964C32.1112 7.19588 32.0466 7.28825 31.9681 7.36677C31.4329 7.7917 30.7177 7.40372 30.5654 7.31135C30.4224 7.16816 30.2747 6.96494 30.2701 6.77095L28.9043 7.05269C28.9043 7.38525 28.9597 7.50534 29.1673 7.80556C29.3749 8.10578 29.661 8.34596 30.0302 8.51685C30.3993 8.69237 30.8192 8.78013 31.2898 8.78013C31.9958 8.78013 32.5726 8.61847 33.0156 8.29053C33.4585 7.96722 33.68 7.54229 33.68 7.02498C33.6708 6.27212 33.3524 5.66705 32.5311 5.37607Z" fill="white"/>
<path d="M36.5048 1.3252V3.01568H37.6122L37.603 4.41056L36.5048 4.41979L36.5325 6.73843C36.5325 6.9509 36.5648 7.0987 36.634 7.18184C36.7032 7.26498 36.837 7.30654 37.0401 7.30654C37.1969 7.30654 37.5938 7.29731 37.6999 7.27883L37.6907 8.65062C37.3861 8.67371 36.8555 8.65985 36.5463 8.65985C36.0019 8.65985 35.6097 8.48434 35.3513 8.19797C35.0929 7.91161 34.9498 7.53287 34.9498 6.9509L34.9683 4.3736L34.0039 4.36899L34.0085 3.01106H34.9683L34.9637 1.77322L36.5048 1.3252Z" fill="white"/>
<path d="M40.058 8.66948H38.5215V0.905273H40.058V8.66948Z" fill="white"/>
<path d="M44.6631 3.01562H46.3381L43.9848 10.6875H42.3191L42.9697 8.66904L42.1161 8.67366L40.5703 3.01562H42.273L43.3988 7.32035L44.6631 3.01562Z" fill="white"/>
</svg>
