<svg width="20" height="19" viewBox="0 0 20 19" fill="none" xmlns="http://www.w3.org/2000/svg">
<g clip-path="url(#clip0_7_9829)">
<g clip-path="url(#clip1_7_9829)">
<g clip-path="url(#clip2_7_9829)">
<path fill-rule="evenodd" clip-rule="evenodd" d="M19.7943 7.22312C19.7943 4.19223 18.4438 1.93099 16.3413 1.10802C14.3966 0.345021 12.061 0.915883 9.99968 2.84504C7.93836 0.915883 5.60383 0.345021 3.65801 1.10802C1.5556 1.93099 0.205078 4.19223 0.205078 7.22201C0.205078 9.15228 1.23463 11.0514 2.51629 12.6863C3.81239 14.3378 5.44168 15.8171 6.80108 16.9211L6.92325 17.0211C8.0161 17.9096 8.80687 18.5515 9.99968 18.5515C11.1925 18.5515 11.9821 17.9096 13.0772 17.0211L13.1994 16.9211C14.5588 15.8182 16.1881 14.3389 17.4842 12.6874C18.7658 11.0526 19.7954 9.15339 19.7954 7.22423L19.7943 7.22312ZM10.4995 4.27885C12.4242 2.22087 14.4189 1.82215 15.8438 2.37969C17.2687 2.93722 18.4282 4.57539 18.4282 7.22201C18.4282 8.69026 17.6263 10.2873 16.4069 11.8411C15.2007 13.3804 13.6592 14.7865 12.3375 15.8582C11.0681 16.8878 10.6583 17.1821 9.99968 17.1821C9.34108 17.1821 8.93126 16.8878 7.66181 15.8571C6.34017 14.7854 4.79862 13.3793 3.59248 11.8411C2.37191 10.2862 1.57115 8.68804 1.57115 7.2209C1.57115 4.57428 2.7262 2.93833 4.15557 2.37858C5.58495 1.81882 7.5763 2.21865 9.50101 4.27774C9.56543 4.3466 9.64206 4.40102 9.72869 4.43767C9.81532 4.47433 9.9075 4.49432 10.0008 4.49432C10.0941 4.49432 10.1874 4.47544 10.2729 4.43767C10.3584 4.39991 10.4362 4.34549 10.5006 4.27774L10.4995 4.27885Z" fill="black"/>
</g>
</g>
</g>
<defs>
<clipPath id="clip0_7_9829">
<rect width="20" height="17.77" fill="white" transform="translate(0 0.78125)"/>
</clipPath>
<clipPath id="clip1_7_9829">
<rect width="20" height="17.77" fill="white" transform="translate(0 0.78125)"/>
</clipPath>
<clipPath id="clip2_7_9829">
<rect width="19.9912" height="17.77" fill="white" transform="translate(0.00390625 0.78125)"/>
</clipPath>
</defs>
</svg>
