<svg width="20" height="21" viewBox="0 0 20 21" fill="none" xmlns="http://www.w3.org/2000/svg">
<g clip-path="url(#clip0_7_9821)">
<g clip-path="url(#clip1_7_9821)">
<g clip-path="url(#clip2_7_9821)">
<path d="M9.9993 1.33227L10.433 0.826016C10.3118 0.722266 10.158 0.666016 9.9993 0.666016C9.84055 0.666016 9.6868 0.722266 9.56555 0.826016L9.9993 1.33227ZM0.665547 9.33227L0.231797 8.82602L-0.00195312 9.02602V9.33227H0.665547ZM7.3318 19.9985V20.666C7.50805 20.666 7.67805 20.596 7.80305 20.471C7.92805 20.346 7.99805 20.176 7.99805 19.9998H7.3318V19.9985ZM12.6655 19.9985H11.9993C11.9993 20.1748 12.0693 20.3448 12.1943 20.4698C12.3193 20.5948 12.4893 20.6648 12.6655 20.6648V19.9985ZM19.3318 9.33227H19.9993V9.02602L19.7655 8.82602L19.3318 9.33227ZM1.9993 20.666H7.3318L7.33305 19.3323H1.9993V20.666ZM19.7655 8.82602L10.433 0.826016L9.5668 1.83977L18.9005 9.83977L19.7668 8.82602H19.7655ZM9.56555 0.826016L0.231797 8.82602L1.09805 9.83977L10.4318 1.83977L9.56555 0.826016ZM7.99805 19.9998L7.9993 15.9998H6.66555V19.9998H7.99805ZM11.9993 15.9998V19.9998H13.333V15.9998H11.9993ZM12.6655 20.666H17.9993V19.3323H12.6655V20.666ZM19.9993 18.666V9.33227H18.6655V18.666H19.9993ZM-0.000703125 9.33227V18.666H1.33305V9.33227H-0.000703125ZM9.9993 13.9985C10.5297 13.9985 11.0384 14.2092 11.4135 14.5843C11.7886 14.9594 11.9993 15.4681 11.9993 15.9985H13.333C13.333 15.1148 12.9818 14.266 12.3568 13.641C11.7318 13.016 10.883 12.666 9.9993 12.666V13.9985ZM9.9993 12.666C9.11555 12.666 8.2668 13.0173 7.6418 13.6423C7.0168 14.2673 6.66555 15.1148 6.66555 15.9998H7.9993C7.9993 15.4693 8.21001 14.9606 8.58508 14.5856C8.96016 14.2105 9.46886 13.9985 9.9993 13.9985V12.666ZM17.9993 20.666C18.5297 20.666 19.0384 20.4553 19.4135 20.0802C19.7886 19.7052 19.9993 19.1964 19.9993 18.666H18.6655C18.6655 18.8423 18.5955 19.0123 18.4705 19.1373C18.3455 19.2623 18.1755 19.3323 17.9993 19.3323V20.666ZM1.9993 19.3323C1.82305 19.3323 1.65305 19.2623 1.52805 19.1373C1.40305 19.0123 1.33305 18.8423 1.33305 18.666H-0.000703125C-0.000703125 19.1964 0.210011 19.7052 0.585083 20.0802C0.960156 20.4553 1.46886 20.666 1.9993 20.666V19.3323Z" fill="black"/>
</g>
</g>
</g>
<defs>
<clipPath id="clip0_7_9821">
<rect width="20" height="20" fill="white" transform="translate(0 0.666016)"/>
</clipPath>
<clipPath id="clip1_7_9821">
<rect width="20" height="20" fill="white" transform="translate(0 0.666016)"/>
</clipPath>
<clipPath id="clip2_7_9821">
<rect width="20" height="20" fill="white" transform="translate(0 0.666016)"/>
</clipPath>
</defs>
</svg>
