<svg width="64" height="65" viewBox="0 0 64 65" fill="none" xmlns="http://www.w3.org/2000/svg">
<path fill-rule="evenodd" clip-rule="evenodd" d="M38.2825 11.7913C35.7392 12.4929 34.0844 14.1097 33.5861 16.3782C33.3573 17.4187 32.9304 18.4179 32.6367 18.5995C31.8604 19.0795 29.8561 15.7593 30.3951 14.8866C30.6495 14.4755 30.5596 14.3287 30.1931 14.5549C29.8312 14.7791 28.9028 14.2343 28.1292 13.3452C26.3609 11.3114 24.2766 11.2891 21.9616 13.281C19.6839 15.24 19.5521 18.1425 21.6521 20.1154C26.7812 24.9337 41.3095 24.4846 45.8925 19.3653C47.8764 17.1499 47.3952 15.5252 44.0895 13.279C41.3731 11.4321 40.4441 11.1947 38.2825 11.7913ZM37.417 18.4487C35.494 20.5848 34.8076 21.8961 35.9562 21.2391C37.4544 20.3822 39.8278 18.0993 39.8278 17.5151C39.8278 16.5369 38.7683 16.9473 37.417 18.4487ZM26.5511 19.0677C27.3424 19.859 28.198 20.299 28.4518 20.0446C28.7062 19.7902 28.3455 19.1522 27.6506 18.6264C25.7007 17.1512 24.9401 17.4567 26.5511 19.0677ZM16.0608 24.0604C15.4294 24.1823 14.9036 24.7763 14.8911 25.3808C14.8787 25.9853 14.842 30.8318 14.8098 36.151C14.758 44.597 14.6158 45.8283 13.6848 45.8736C12.7931 45.9168 12.7793 45.9844 13.6021 46.2866C14.143 46.4859 15.0282 46.9999 15.5691 47.43C16.11 47.8595 17.8802 48.6102 19.5029 49.0973C21.1256 49.5851 22.7339 50.2277 23.0762 50.5253C23.4191 50.823 24.0091 51.0577 24.3874 51.0472C24.7664 51.0361 24.5481 50.7201 23.9036 50.345C22.8382 49.7248 22.7385 48.5269 22.81 37.1961C22.8532 30.3401 22.7516 24.5934 22.5844 24.4262C22.1917 24.0335 17.5504 23.7732 16.0608 24.0604ZM25.7374 24.7311C25.2634 25.9716 25.3217 50.0906 25.8017 51.3409C26.0206 51.9114 26.6278 52.3782 27.1516 52.3782C27.6755 52.3782 27.9692 52.5998 27.8053 52.8699C27.3044 53.6967 33.4536 53.715 35.8939 52.8942C39.3374 51.7356 39.8153 51.7396 39.9642 52.9276C40.0396 53.5269 40.2612 48.1165 40.4559 40.9044C40.6513 33.6924 40.7064 26.9983 40.5785 26.0279L40.3464 24.2649L33.2084 24.061C27.7227 23.905 25.9938 24.0597 25.7374 24.7311ZM45.2368 24.0676C43.7643 24.2761 43.7616 24.3016 43.7616 37.0873V49.8979L45.5286 49.4547C46.5003 49.2108 48.2705 48.6036 49.4625 48.1054L51.6293 47.1999V35.7616V24.3233L49.1707 24.0905C47.8188 23.9627 46.0485 23.9522 45.2368 24.0676Z" fill="black"/>
</svg>
