<svg width="64" height="64" viewBox="0 0 64 64" fill="none" xmlns="http://www.w3.org/2000/svg">
<path fill-rule="evenodd" clip-rule="evenodd" d="M38.2825 11.2913C35.7392 11.9929 34.0844 13.6097 33.5861 15.8782C33.3573 16.9187 32.9304 17.9179 32.6367 18.0995C31.8604 18.5795 29.8561 15.2593 30.3951 14.3866C30.6495 13.9755 30.5596 13.8287 30.1931 14.0549C29.8312 14.2791 28.9028 13.7343 28.1292 12.8452C26.3609 10.8114 24.2766 10.7891 21.9616 12.781C19.6839 14.74 19.5521 17.6425 21.6521 19.6154C26.7812 24.4337 41.3095 23.9846 45.8925 18.8653C47.8764 16.6499 47.3952 15.0252 44.0895 12.779C41.3731 10.9321 40.4441 10.6947 38.2825 11.2913ZM37.417 17.9487C35.494 20.0848 34.8076 21.3961 35.9562 20.7391C37.4544 19.8822 39.8278 17.5993 39.8278 17.0151C39.8278 16.0369 38.7683 16.4473 37.417 17.9487ZM26.5511 18.5677C27.3424 19.359 28.198 19.799 28.4518 19.5446C28.7062 19.2902 28.3455 18.6522 27.6506 18.1264C25.7007 16.6512 24.9401 16.9567 26.5511 18.5677ZM16.0608 23.5604C15.4294 23.6823 14.9036 24.2763 14.8911 24.8808C14.8787 25.4853 14.842 30.3318 14.8098 35.651C14.758 44.097 14.6158 45.3283 13.6848 45.3736C12.7931 45.4168 12.7793 45.4844 13.6021 45.7866C14.143 45.9859 15.0282 46.4999 15.5691 46.93C16.11 47.3595 17.8802 48.1102 19.5029 48.5973C21.1256 49.0851 22.7339 49.7277 23.0762 50.0253C23.4191 50.323 24.0091 50.5577 24.3874 50.5472C24.7664 50.5361 24.5481 50.2201 23.9036 49.845C22.8382 49.2248 22.7385 48.0269 22.81 36.6961C22.8532 29.8401 22.7516 24.0934 22.5844 23.9262C22.1917 23.5335 17.5504 23.2732 16.0608 23.5604ZM25.7374 24.2311C25.2634 25.4716 25.3217 49.5906 25.8017 50.8409C26.0206 51.4114 26.6278 51.8782 27.1516 51.8782C27.6755 51.8782 27.9692 52.0998 27.8053 52.3699C27.3044 53.1967 33.4536 53.215 35.8939 52.3942C39.3374 51.2356 39.8153 51.2396 39.9642 52.4276C40.0396 53.0269 40.2612 47.6165 40.4559 40.4044C40.6513 33.1924 40.7064 26.4983 40.5785 25.5279L40.3464 23.7649L33.2084 23.561C27.7227 23.405 25.9938 23.5597 25.7374 24.2311ZM45.2368 23.5676C43.7643 23.7761 43.7616 23.8016 43.7616 36.5873V49.3979L45.5286 48.9547C46.5003 48.7108 48.2705 48.1036 49.4625 47.6054L51.6293 46.6999V35.2616V23.8233L49.1707 23.5905C47.8188 23.4627 46.0485 23.4522 45.2368 23.5676Z" fill="white"/>
</svg>
