<svg width="42" height="42" viewBox="0 0 42 42" fill="none" xmlns="http://www.w3.org/2000/svg">
<g clip-path="url(#clip0_2001_3333)">
<path d="M12.224 7.14214C12.2116 7.09262 12.4963 6.90695 12.8553 6.72127L13.5113 6.41182L14.155 7.60013C14.514 8.25618 15.6033 10.3233 16.5811 12.1925C17.559 14.0616 18.7102 16.2897 19.1558 17.1438C19.8861 18.5549 19.948 18.7406 19.9109 19.3224C19.8738 19.7432 19.7624 20.0774 19.5395 20.3745C19.3662 20.6097 19.0197 20.8944 18.7721 21.0058C18.3512 21.2162 17.7323 21.2286 4.57422 21.2286V19.7432H11.2832C17.4724 19.7432 18.017 19.7185 18.2274 19.5204C18.3512 19.409 18.4503 19.2605 18.4379 19.1862C18.4379 19.1119 18.3017 18.8148 18.1408 18.5054C17.9799 18.1959 17.101 16.5001 16.1727 14.73C15.2567 12.9599 13.9941 10.5462 13.3752 9.37022C12.7563 8.20667 12.2364 7.19165 12.224 7.14214Z" fill="white"/>
<path d="M25.4316 12.4277C26.2238 10.9051 27.276 8.91223 27.7587 7.99624L28.6252 6.3623L29.2565 6.72127C29.6031 6.91933 29.8754 7.12976 29.863 7.19165C29.8506 7.25354 29.046 8.82558 28.0558 10.6947L27.9268 10.943C26.9654 12.7928 25.7379 15.1545 25.1221 16.3268C24.4908 17.5523 23.9214 18.6168 23.8596 18.6787C23.81 18.7529 23.7605 18.9634 23.7605 19.1491C23.7605 19.3595 23.8472 19.5328 24.0081 19.6071C24.169 19.6937 26.7313 19.7308 37.6242 19.7308V21.2162H30.6924C24.986 21.2162 23.6986 21.1915 23.4263 21.0429C23.2283 20.9563 22.9559 20.7459 22.8074 20.5849C22.6589 20.424 22.4484 20.0774 22.3494 19.8299C22.238 19.5699 22.1514 19.2233 22.1514 19.05C22.1514 18.8891 22.5598 17.9484 23.0673 16.9829C23.5625 16.005 24.627 13.9626 25.4316 12.4277Z" fill="white"/>
<path d="M19.8614 22.8997C20.0718 22.7511 20.4308 22.6026 20.666 22.5655C20.9135 22.5159 21.2477 22.5036 21.4087 22.5407C21.582 22.5778 21.8667 22.6769 22.0276 22.7635C22.2009 22.8502 22.4608 23.0482 22.597 23.2091C22.7455 23.37 23.253 24.1375 23.7358 24.9173C24.2185 25.7095 25.0355 27.0711 25.5678 27.95C26.0876 28.8412 27.2388 30.7351 28.1053 32.1586C28.9842 33.5945 29.7021 34.8076 29.7021 34.8571C29.7021 34.9066 29.4298 35.117 28.4643 35.6864L28.2291 35.2903C28.0929 35.0675 26.5085 32.4681 24.726 29.4973C21.9781 24.9545 21.421 24.1127 21.1611 24.0756C20.9878 24.0632 20.7774 24.1375 20.6536 24.2613C20.5422 24.3851 18.9825 26.9102 17.2 29.8686C15.4176 32.8394 13.8951 35.3522 13.8208 35.4636C13.6846 35.6493 13.6227 35.6369 12.3725 34.8818L12.7191 34.3248C12.9172 34.0277 14.514 31.3788 16.2841 28.4699C18.4503 24.8926 19.6138 23.073 19.8614 22.8997Z" fill="white"/>
</g>
<defs>
<clipPath id="clip0_2001_3333">
<rect width="41.6938" height="41.6938" fill="white"/>
</clipPath>
</defs>
</svg>
