<svg width="69" height="60" viewBox="0 0 69 60" fill="none" xmlns="http://www.w3.org/2000/svg">
<g clip-path="url(#clip0_11_5688)">
<g clip-path="url(#clip1_11_5688)">
<g clip-path="url(#clip2_11_5688)">
<path fill-rule="evenodd" clip-rule="evenodd" d="M67.4826 32.9978L53.64 56.9978C52.5685 58.8554 50.5871 60 48.4425 60H20.7676C18.6231 60 16.6417 58.8554 15.5702 56.9978L1.72758 32.9978C0.657501 31.1425 0.657501 28.8575 1.72758 27.0022L15.5702 3.00224C16.6417 1.14457 18.6231 0 20.7676 0L48.4425 0C50.5871 0 52.5685 1.14457 53.64 3.00224L67.4826 27.0022C68.5527 28.8575 68.5527 31.1425 67.4826 32.9978Z" fill="#83BA3B"/>
<path d="M43.0309 42.9391H36.5306C36.308 42.9396 36.1088 42.8011 36.0315 42.5924L31.5126 30.5597C31.4686 30.4432 31.3526 30.3701 31.2285 30.3807C31.1045 30.3913 31.0026 30.4831 30.9791 30.6054L28.7159 42.5009C28.6681 42.7535 28.4471 42.9361 28.1901 42.9353H21.7775C21.6179 42.9351 21.4667 42.8637 21.365 42.7407C21.2634 42.6177 21.2218 42.4558 21.2516 42.299L26.0144 17.8984C26.0638 17.6473 26.2844 17.4667 26.5402 17.4678H32.8461C33.0691 17.4662 33.2689 17.6051 33.3453 17.8145L38.1462 30.6588C38.1911 30.7802 38.3122 30.8561 38.4411 30.8436C38.5699 30.8311 38.6742 30.7333 38.6948 30.6054L40.8286 17.9136C40.8714 17.6565 41.0937 17.4678 41.3544 17.4678H47.7022C47.8617 17.4682 48.0128 17.5396 48.1144 17.6625C48.2161 17.7855 48.2577 17.9474 48.228 18.1041L43.5567 42.5048C43.5073 42.7563 43.2872 42.9381 43.0309 42.9391Z" fill="white"/>
</g>
</g>
</g>
<defs>
<clipPath id="clip0_11_5688">
<rect width="69" height="60" fill="white"/>
</clipPath>
<clipPath id="clip1_11_5688">
<rect width="69" height="60" fill="white"/>
</clipPath>
<clipPath id="clip2_11_5688">
<rect width="69" height="60" fill="white"/>
</clipPath>
</defs>
</svg>
