<svg width="69" height="60" viewBox="0 0 69 60" fill="none" xmlns="http://www.w3.org/2000/svg">
<g clip-path="url(#clip0_11_5696)">
<g clip-path="url(#clip1_11_5696)">
<g clip-path="url(#clip2_11_5696)">
<path fill-rule="evenodd" clip-rule="evenodd" d="M67.4826 32.9978L53.64 56.9978C52.5685 58.8554 50.5871 60 48.4425 60H20.7676C18.6231 60 16.6417 58.8554 15.5702 56.9978L1.72758 32.9978C0.657501 31.1425 0.657501 28.8575 1.72758 27.0022L15.5702 3.00224C16.6417 1.14457 18.6231 0 20.7676 0L48.4425 0C50.5871 0 52.5685 1.14457 53.64 3.00224L67.4826 27.0022C68.5527 28.8575 68.5527 31.1425 67.4826 32.9978Z" fill="#00DCCA"/>
<path d="M34.7749 15.7363C26.8092 15.7363 20.3555 22.1965 20.3555 30.1701C20.3555 38.1436 26.8092 44.6038 34.7749 44.6038C42.7405 44.6038 49.1943 38.1436 49.1943 30.1701C49.1943 22.1965 42.7405 15.7363 34.7749 15.7363ZM38.1009 24.4519V35.9924C38.1024 36.6316 37.8494 37.245 37.3979 37.697C36.9463 38.149 36.3335 38.4022 35.695 38.4007C35.0564 38.4022 34.4436 38.149 33.9921 37.697C33.5406 37.245 33.2876 36.6316 33.289 35.9924V26.8635H32.8274C32.1888 26.865 31.576 26.6117 31.1245 26.1597C30.6729 25.7078 30.4199 25.0943 30.4214 24.4552C30.4199 23.816 30.6729 23.2026 31.1245 22.7506C31.576 22.2986 32.1888 22.0454 32.8274 22.0468H35.695C36.3327 22.0463 36.9444 22.2994 37.3957 22.7505C37.8469 23.2015 38.1006 23.8136 38.1009 24.4519Z" fill="white"/>
</g>
</g>
</g>
<defs>
<clipPath id="clip0_11_5696">
<rect width="69" height="60" fill="white"/>
</clipPath>
<clipPath id="clip1_11_5696">
<rect width="69" height="60" fill="white"/>
</clipPath>
<clipPath id="clip2_11_5696">
<rect width="69" height="60" fill="white"/>
</clipPath>
</defs>
</svg>
