<svg width="176" height="184" viewBox="0 0 176 184" fill="none" xmlns="http://www.w3.org/2000/svg">
<g clip-path="url(#clip0_11_6432)">
<path d="M106.767 88.5915C106.214 89.233 105.234 89.3043 104.593 88.7519L76.3678 64.5895C75.7263 64.0371 75.655 63.057 76.2074 62.4156L86.5424 50.3522C87.0948 49.7107 88.0748 49.6394 88.7163 50.1918L116.924 74.3542C117.565 74.9066 117.636 75.8866 117.084 76.5281L106.767 88.5915ZM107.64 89.3399L117.975 77.2765C118.937 76.1539 118.812 74.4433 117.69 73.4811L89.4647 49.3187C88.3421 48.3564 86.6315 48.4812 85.6693 49.6038L75.3343 61.6672C74.3721 62.7897 74.4968 64.5004 75.6194 65.4626L103.827 89.625C104.967 90.605 106.66 90.4803 107.64 89.3399Z" fill="white"/>
<path d="M91.5857 74.6219L101.386 63.1643C101.6 62.9149 101.956 62.897 102.206 63.093C102.455 63.3069 102.473 63.6633 102.277 63.9127L92.4767 75.3703C92.2628 75.6197 91.9065 75.6376 91.657 75.4415C91.4075 75.2277 91.3719 74.8535 91.5857 74.6219Z" fill="white"/>
<path d="M104.094 82.7644C104.754 81.9804 105.93 81.8913 106.714 82.5684C107.498 83.2455 107.587 84.4038 106.91 85.1878C106.25 85.9718 105.074 86.0609 104.29 85.3838C103.524 84.7245 103.435 83.5485 104.094 82.7644ZM106.037 84.4394C106.286 84.1365 106.25 83.691 105.965 83.4415C105.662 83.1921 105.217 83.2277 104.967 83.5128C104.718 83.7979 104.754 84.2612 105.039 84.5107C105.342 84.7601 105.787 84.7245 106.037 84.4394Z" fill="white"/>
<path d="M95.5044 75.405C96.1637 74.621 97.3397 74.5319 98.1238 75.209C98.9078 75.8683 98.9969 77.0444 98.3198 77.8284C97.6427 78.6124 96.4844 78.7015 95.7004 78.0244C94.9342 77.3651 94.8451 76.1891 95.5044 75.405ZM97.4467 77.08C97.6961 76.7771 97.6605 76.3316 97.3754 76.0822C97.0725 75.8327 96.6448 75.8683 96.3775 76.1534C96.1102 76.4385 96.1637 76.884 96.4488 77.1513C96.7517 77.4008 97.1972 77.3651 97.4467 77.08Z" fill="white"/>
<path d="M88.254 69.1863C88.9133 68.4023 90.0893 68.3132 90.8733 68.9903C91.6574 69.6496 91.7465 70.8256 91.0693 71.6097C90.3922 72.3937 89.234 72.4828 88.45 71.8057C87.6659 71.1464 87.5768 69.9703 88.254 69.1863ZM90.1962 70.8613C90.4457 70.5584 90.41 70.1129 90.1249 69.8634C89.822 69.6139 89.3766 69.6496 89.1271 69.9347C88.8776 70.2376 88.9133 70.6831 89.1984 70.9325C89.5013 71.182 89.9468 71.1464 90.1962 70.8613Z" fill="white"/>
<path d="M87.0415 61.0789C87.7008 60.2948 88.8769 60.2058 89.6609 60.8829C90.4449 61.5422 90.534 62.7182 89.8569 63.5022C89.1798 64.2863 88.0215 64.3754 87.2375 63.6983C86.4713 63.0211 86.3822 61.8629 87.0415 61.0789ZM88.9838 62.736C89.2332 62.4331 89.1976 61.9876 88.9125 61.7382C88.6096 61.4887 88.1641 61.5244 87.9146 61.8095C87.6652 62.1124 87.7008 62.5578 87.9859 62.8073C88.2888 63.0746 88.7343 63.039 88.9838 62.736Z" fill="white"/>
<path d="M86.0606 53.1316C86.7199 52.3476 87.8959 52.2585 88.68 52.9356C89.464 53.6127 89.5531 54.771 88.876 55.555C88.2167 56.339 87.0406 56.4281 86.2566 55.751C85.4726 55.0917 85.3835 53.9156 86.0606 53.1316ZM88.0029 54.8066C88.2523 54.5037 88.2167 54.076 87.9316 53.8087C87.6287 53.5593 87.1832 53.5949 86.9337 53.88C86.6843 54.1829 86.7199 54.6284 87.005 54.8779C87.2901 55.1273 87.7356 55.0917 88.0029 54.8066Z" fill="white"/>
<path d="M102.241 67.5476C102.9 66.7636 104.076 66.6745 104.86 67.3516C105.644 68.0109 105.733 69.187 105.056 69.971C104.397 70.755 103.221 70.8441 102.437 70.167C101.671 69.4899 101.581 68.3138 102.241 67.5476ZM104.183 69.2048C104.432 68.9019 104.397 68.4564 104.112 68.2069C103.809 67.9575 103.381 67.9931 103.114 68.2782C102.847 68.5633 102.9 69.0088 103.185 69.2761C103.488 69.5255 103.934 69.5077 104.183 69.2048Z" fill="white"/>
<path d="M110.829 74.8884C111.488 74.1044 112.664 74.0153 113.448 74.6924C114.232 75.3517 114.321 76.5278 113.644 77.3118C112.985 78.0958 111.809 78.1849 111.025 77.5078C110.258 76.8485 110.169 75.6725 110.829 74.8884ZM112.771 76.5634C113.02 76.2605 112.985 75.815 112.7 75.5656C112.397 75.3161 111.951 75.3517 111.702 75.6368C111.452 75.9219 111.488 76.3852 111.773 76.6347C112.076 76.8842 112.521 76.8485 112.771 76.5634Z" fill="white"/>
<path d="M71.6992 79.6646C72.7862 79.2192 74.0335 79.7359 74.479 80.8229L88.5915 114.946C89.037 116.033 88.5203 117.28 87.4333 117.726L64.9993 126.992C63.9124 127.437 62.665 126.92 62.2196 125.833L48.107 91.7102C47.6615 90.6233 48.1783 89.3759 49.2652 88.9305L71.6992 79.6646ZM71.2538 78.5955L48.8198 87.8791C47.1448 88.5741 46.3608 90.4807 47.0379 92.1557L61.1683 126.279C61.8632 127.954 63.7698 128.738 65.4448 128.061L87.8788 118.777C89.5538 118.082 90.3378 116.176 89.6607 114.501L75.5481 80.3774C74.8532 78.7024 72.9287 77.9184 71.2538 78.5955Z" fill="white"/>
<path d="M73.9088 116.924C74.6928 116.603 75.6016 116.977 75.9223 117.761C76.2431 118.545 75.8689 119.454 75.0848 119.775C74.3008 120.096 73.392 119.721 73.0713 118.937C72.7327 118.153 73.1069 117.245 73.9088 116.924ZM73.4633 115.855C72.0913 116.425 71.432 117.993 72.0022 119.365C72.5724 120.737 74.1404 121.396 75.5125 120.826C76.8845 120.256 77.5438 118.688 76.9736 117.316C76.4034 115.944 74.8354 115.285 73.4633 115.855Z" fill="white"/>
<path d="M72.6621 83.4961L82.9971 108.496L61.3649 117.441L51.03 92.4411L72.6621 83.4961ZM73.2858 81.9814L49.5332 91.7997L60.7413 118.938L84.4939 109.12L73.2858 81.9814Z" fill="white"/>
<path d="M78.5427 38.5206L58.835 46.5213C57.3025 47.1449 55.5563 46.3965 54.9326 44.8641L43.4394 16.5855C42.691 14.7502 43.0118 12.6654 44.2769 11.1508L50.2463 3.96975C51.4223 2.56206 53.2042 1.83149 55.0217 2.02749L64.3054 3.02535C66.2654 3.23918 67.9582 4.50432 68.7066 6.33966L80.182 34.6182C80.8057 36.1507 80.0573 37.9147 78.5427 38.5206ZM52.83 3.47082C52.1885 3.73811 51.6005 4.14794 51.1372 4.70033L45.1679 11.8813C44.17 13.0752 43.9206 14.7145 44.5086 16.1579L55.9839 44.4364C56.3581 45.3808 57.4451 45.8263 58.3895 45.4521L78.0972 37.4514C79.0416 37.0772 79.4871 35.9903 79.1129 35.0459L67.6375 6.76732C67.0495 5.32399 65.7309 4.32613 64.1806 4.16576L54.897 3.1679C54.1842 3.09663 53.4715 3.20354 52.83 3.47082Z" fill="white"/>
<path d="M55.5214 10.0999C54.2028 10.6344 52.6882 9.99294 52.1358 8.67434C51.6013 7.35574 52.2427 5.84114 53.5613 5.28875C54.8799 4.73637 56.3945 5.39567 56.9469 6.71426C57.4815 8.05068 56.84 9.56529 55.5214 10.0999ZM54.0068 6.35789C53.2762 6.66081 52.9199 7.49829 53.205 8.24669C53.4901 8.99508 54.3454 9.33364 55.0938 9.04854C55.8243 8.74562 56.1807 7.90813 55.8956 7.15974C55.6105 6.41134 54.7374 6.05497 54.0068 6.35789Z" fill="white"/>
<path d="M57.266 26.2436C55.1812 27.0811 52.8113 26.0832 51.9559 23.9984C51.1006 21.9136 52.1163 19.5437 54.2011 18.6884C56.2859 17.8331 58.6559 18.8487 59.5112 20.9336C60.3665 23.0005 59.3508 25.3883 57.266 26.2436ZM54.6466 19.7397C53.1498 20.3455 52.4371 22.0561 53.0429 23.5529C53.6487 25.0497 55.3594 25.7625 56.8561 25.1566C58.3529 24.5508 59.0657 22.8402 58.4598 21.3434C57.8362 19.8644 56.1434 19.1338 54.6466 19.7397Z" fill="white"/>
<path d="M71.0769 36.6141C68.9921 37.4516 66.6222 36.4537 65.7669 34.3689C64.9294 32.2841 65.9273 29.9142 68.0121 29.0589C70.0969 28.2214 72.4668 29.2193 73.3221 31.3041C74.1596 33.3889 73.1617 35.7766 71.0769 36.6141ZM68.4397 30.128C66.9429 30.7339 66.2302 32.4445 66.836 33.9413C67.4419 35.438 69.1525 36.1508 70.6493 35.545C72.1461 34.9391 72.8588 33.2285 72.253 31.7317C71.6471 30.2528 69.9365 29.5222 68.4397 30.128Z" fill="white"/>
<path d="M59.6014 41.2651C59.4945 41.3007 59.3698 41.3186 59.245 41.2829C58.9421 41.2117 58.7461 40.8909 58.8174 40.588L65.3391 14.412C65.4104 14.1091 65.7311 13.9131 66.034 13.9844C66.337 14.0557 66.533 14.3764 66.4617 14.6793L59.94 40.8553C59.8865 41.0691 59.7618 41.2117 59.6014 41.2651Z" fill="white"/>
<path d="M171.86 89.9275L168.617 55.929C168.456 54.254 166.977 53.0424 165.302 53.2027L161.881 53.5235L156.054 54.0758L142.957 55.3232C141.282 55.4835 140.071 56.9625 140.231 58.6375L143.474 92.6359C143.634 94.3109 145.113 95.5226 146.788 95.3622L159.885 94.1149L165.712 93.5625L169.133 93.2418C170.808 93.0814 172.02 91.6024 171.86 89.9275ZM162.148 92.8319L160.83 92.9567L157.212 55.0381L160.919 54.6817L164.554 92.6003L162.148 92.8319ZM146.681 94.3109C145.595 94.4178 144.632 93.616 144.543 92.5468L141.3 58.5484C141.193 57.4614 141.995 56.4992 143.064 56.4101L156.161 55.1628L159.778 93.0814L146.681 94.3109ZM169.044 92.1726L165.623 92.4934L162.006 54.5748L165.427 54.254C166.514 54.1471 167.476 54.949 167.565 56.0181L170.808 90.0165C170.915 91.1213 170.113 92.0835 169.044 92.1726Z" fill="white"/>
<path d="M154.522 86.6492C154.451 85.8296 154.148 85.0634 153.649 84.4041C154.006 83.6735 154.148 82.8538 154.077 82.0341C153.845 79.593 151.671 77.8111 149.248 78.0427C146.807 78.2744 145.025 80.4483 145.257 82.8716C145.328 83.6913 145.631 84.4575 146.13 85.1168C145.773 85.8474 145.631 86.6671 145.702 87.4867C145.934 89.9279 148.108 91.7098 150.531 91.4782C152.972 91.2643 154.754 89.0904 154.522 86.6492ZM146.842 87.3976C146.807 86.9343 146.86 86.4711 147.003 86.0256C147.876 86.6849 148.981 87.0056 150.086 86.8987C151.19 86.7918 152.206 86.275 152.954 85.4554C153.186 85.8652 153.329 86.3107 153.382 86.774C153.56 88.5737 152.224 90.1774 150.424 90.3556C148.624 90.5338 147.021 89.1973 146.842 87.3976ZM152.937 82.1589C153.115 83.9586 151.778 85.5623 149.979 85.7405C148.179 85.9187 146.575 84.5822 146.397 82.7825C146.219 80.9828 147.555 79.3791 149.355 79.2009C151.155 79.0406 152.758 80.3592 152.937 82.1589Z" fill="white"/>
<path d="M120.113 40.4628C120.024 40.1599 119.703 39.9817 119.4 40.0708L108.192 43.4386C107.889 43.5277 107.711 43.8484 107.8 44.1514L110.562 53.3637C110.651 53.6666 110.972 53.8448 111.275 53.7557L122.483 50.388C122.786 50.2989 122.964 49.9781 122.875 49.6752L120.113 40.4628ZM111.507 52.4906L109.083 44.383L119.204 41.3538L121.628 49.4614L111.507 52.4906Z" fill="white"/>
<path d="M119.258 37.5942L116.496 28.3818C116.407 28.0789 116.086 27.9007 115.783 27.9898L99.9599 32.7296C99.657 32.8187 99.4788 33.1394 99.5679 33.4424L102.33 42.6369C102.419 42.9398 102.74 43.118 103.043 43.0289L118.866 38.2891C119.169 38.2178 119.347 37.8971 119.258 37.5942ZM103.274 41.7816L100.851 33.674L115.569 29.2549L117.993 37.3625L103.274 41.7816Z" fill="white"/>
<path d="M134.797 36.0791C134.708 35.7761 134.387 35.598 134.084 35.687L122.876 39.0548C122.573 39.1439 122.395 39.4646 122.484 39.7676L125.246 48.9799C125.335 49.2829 125.656 49.461 125.959 49.372L137.167 46.0042C137.47 45.9151 137.648 45.5943 137.559 45.2914L134.797 36.0791ZM126.172 48.089L123.749 39.9814L133.87 36.9522L136.294 45.0598L126.172 48.089Z" fill="white"/>
<path d="M138.519 31.8207L135.758 22.6084C135.668 22.3054 135.348 22.1272 135.045 22.2163L119.222 26.9562C118.919 27.0453 118.741 27.366 118.83 27.6689L121.592 36.8813C121.681 37.1842 122.001 37.3624 122.304 37.2733L138.127 32.5335C138.448 32.4444 138.626 32.1236 138.519 31.8207ZM122.536 36.0082L120.113 27.9006L134.831 23.4815L137.254 31.5891L122.536 36.0082Z" fill="white"/>
<path d="M103.542 28.7022C104.468 29.2903 105.377 29.6288 105.413 29.6466C105.537 29.6823 105.662 29.7001 105.769 29.6645L116.977 26.2967L128.31 22.8933C128.435 22.8576 128.542 22.7864 128.613 22.6794C128.631 22.6438 129.201 21.8776 129.646 20.8619C130.288 19.4186 130.359 18.2247 129.878 17.3338C129.219 16.1399 127.597 15.641 125.067 15.8548C121.628 16.1399 119.008 17.9396 117.494 21.0757C116.924 22.2518 116.621 23.3922 116.443 24.2475C115.837 23.6238 114.946 22.8398 113.823 22.1805C110.847 20.3986 107.658 20.3452 104.629 21.9845C102.401 23.1962 101.314 24.5148 101.421 25.869C101.475 26.9025 102.205 27.8469 103.542 28.7022ZM118.527 21.5747C119.882 18.8127 122.091 17.2981 125.138 17.0309C127.152 16.8705 128.435 17.1734 128.862 17.9218C129.468 19.0088 128.381 21.0045 127.793 21.8598L117.494 24.9424C117.601 24.1406 117.886 22.8576 118.527 21.5747ZM105.163 23.018C107.836 21.5569 110.545 21.6103 113.182 23.1784C114.429 23.9089 115.373 24.8177 115.908 25.4236L105.609 28.5062C104.646 28.1142 102.633 27.0451 102.544 25.8156C102.49 24.9424 103.399 23.9802 105.163 23.018Z" fill="white"/>
<path d="M47.9473 47.1093C48.9986 47.626 49.4441 48.909 48.9273 49.9603L32.6587 83.1034C32.1419 84.1548 30.859 84.6002 29.8077 84.0835L8.01517 73.3921C6.96385 72.8754 6.51838 71.5924 7.03513 70.5411L23.3038 37.398C23.8205 36.3467 25.1035 35.9012 26.1548 36.4179L47.9473 47.1093ZM48.4462 46.0758L26.6537 35.3844C25.0322 34.5826 23.0721 35.2597 22.2703 36.8812L6.00163 70.0244C5.19978 71.6459 5.8769 73.606 7.49842 74.4078L29.2909 85.0991C30.9124 85.901 32.8725 85.2239 33.6744 83.6024L49.943 50.4592C50.7449 48.8377 50.0677 46.8598 48.4462 46.0758Z" fill="white"/>
<path d="M26.4039 69.2933L23.9449 68.0817L21.4858 66.8878C21.2007 66.7452 21.076 66.4067 21.2186 66.1216L21.4858 65.587C21.5749 65.4088 21.7353 65.3019 21.9313 65.2663C22.5193 65.195 23.3925 64.7852 24.2121 63.9477C23.0895 63.8408 22.0739 63.324 21.3255 62.4152C20.292 61.1857 19.9891 59.4929 20.5414 58.1031C20.88 57.2656 21.8244 55.8401 24.426 55.5372C27.8116 55.1451 29.5756 53.6662 30.7517 52.6861C30.8051 52.6327 30.8764 52.5792 30.9299 52.5436C31.0724 52.3832 31.2862 52.2941 31.5179 52.3476C31.5535 52.3654 31.607 52.3832 31.6426 52.401C31.6783 52.4188 31.7139 52.4367 31.7495 52.4723C31.9277 52.6149 31.999 52.8465 31.9455 53.0603C31.9455 53.1316 31.9455 53.2207 31.9455 53.292C31.8921 54.8244 31.803 57.123 33.5671 60.0275C34.9213 62.2727 34.3689 63.8942 33.9234 64.6782C33.175 65.9612 31.6426 66.7631 30.0389 66.6918C28.8629 66.6561 27.8294 66.175 27.0632 65.3375C26.9028 66.5136 27.1166 67.4402 27.4195 67.9569C27.5086 68.1173 27.5265 68.3311 27.4374 68.4915L27.1701 69.0261C27.0275 69.329 26.689 69.4359 26.4039 69.2933ZM22.7688 66.2463L24.4438 67.066L26.1188 67.8856C25.7267 66.7452 25.7624 65.2306 26.2435 63.7517C26.3148 63.5378 26.5108 63.3775 26.7424 63.3596C26.9741 63.3418 27.1879 63.4666 27.2948 63.6804C27.8472 64.803 28.8629 65.4801 30.0567 65.5336C31.2506 65.5692 32.3732 64.999 32.9078 64.0724C33.4601 63.128 33.3532 61.8985 32.5692 60.5977C30.9655 57.9427 30.7517 55.7688 30.7517 54.1473C29.4865 55.1451 27.6334 56.3034 24.5507 56.6597C23.0539 56.8201 22.0026 57.4794 21.5928 58.5129C21.2007 59.5108 21.4324 60.7403 22.1986 61.6669C22.9648 62.5934 24.123 62.9676 25.3525 62.7182C25.5842 62.6647 25.8158 62.7716 25.9406 62.9676C26.0653 63.1636 26.0653 63.4131 25.9406 63.6091C25.1031 64.8921 23.927 65.8543 22.7688 66.2463Z" fill="white"/>
<path d="M28.2394 81.6957C26.8139 81.0007 26.2258 79.2723 26.9208 77.8468C27.6157 76.4213 29.3441 75.8332 30.7696 76.5282C32.1952 77.2231 32.7832 78.9516 32.0882 80.3771C31.3933 81.8026 29.6649 82.3906 28.2394 81.6957ZM30.2707 77.5617C29.4154 77.134 28.3819 77.4904 27.9543 78.3457C27.5266 79.201 27.883 80.2345 28.7383 80.6622C29.5936 81.0898 30.6271 80.7334 31.0547 79.8781C31.4824 79.0228 31.126 77.9893 30.2707 77.5617Z" fill="white"/>
<path d="M24.8722 44.1517C23.4467 43.4568 22.8586 41.7283 23.5536 40.3028C24.2485 38.8773 25.9769 38.2893 27.4025 38.9842C28.828 39.6792 29.416 41.4076 28.7211 42.8331C28.0261 44.2586 26.2977 44.8645 24.8722 44.1517ZM26.9035 40.0177C26.0482 39.5901 25.0147 39.9465 24.5871 40.8018C24.1594 41.6571 24.5158 42.6906 25.3711 43.1182C26.2264 43.5459 27.2599 43.1895 27.6876 42.3342C28.1152 41.4789 27.7588 40.4454 26.9035 40.0177Z" fill="white"/>
<path d="M44.7048 102.9L41.4618 102.009C41.1589 101.92 40.8381 102.098 40.749 102.419L39.8759 105.573L36.7576 104.718L37.6307 101.564C37.7198 101.261 37.5416 100.94 37.2209 100.851L31.8752 99.3719C31.5723 99.2828 31.2516 99.461 31.1625 99.7817L30.2894 102.936L27.1711 102.08L28.0442 98.9264C28.1333 98.6235 27.9551 98.3027 27.6343 98.2136L24.3913 97.3227C24.0884 97.2336 23.7676 97.4118 23.6785 97.7325L21.7363 104.789C21.6472 105.092 21.8254 105.412 22.1461 105.502L25.1753 106.339L16.6044 128.096L14.5731 127.544C14.3058 127.472 14.0207 127.597 13.9138 127.846L11.134 133.459C11.0628 133.62 11.0628 133.798 11.1162 133.958C11.1875 134.119 11.3301 134.226 11.4904 134.279L36.8823 141.246C37.0427 141.3 37.2209 141.264 37.3635 141.157C37.506 141.05 37.5951 140.908 37.6129 140.73L38.0762 134.493C38.094 134.226 37.9158 133.976 37.6486 133.887L35.831 133.388L39.573 110.277L42.4597 111.061C42.7626 111.15 43.0833 110.972 43.1724 110.651L45.1147 103.595C45.186 103.292 45.0078 102.989 44.7048 102.9ZM36.5082 139.928L12.4705 133.335L14.7335 128.773L36.8823 134.849L36.5082 139.928ZM34.7441 132.925L17.7805 128.274L26.2445 106.767L38.4326 110.117L34.7441 132.925ZM42.2102 109.796L23.0014 104.522L24.6229 98.5878L26.7612 99.1759L25.8881 102.33C25.799 102.633 25.9772 102.953 26.2979 103.043L30.521 104.201C30.8239 104.29 31.1447 104.112 31.2338 103.791L32.1069 100.637L36.3656 101.795L35.4925 104.949C35.4034 105.252 35.5816 105.573 35.9023 105.662L40.1254 106.82C40.4283 106.909 40.749 106.731 40.8381 106.41L41.7113 103.256L43.8495 103.844L42.2102 109.796Z" fill="white"/>
<path d="M131.285 121.343L93.2418 98.766C93.0458 98.6413 92.7785 98.6591 92.6003 98.8017C92.4221 98.9442 92.333 99.1759 92.3865 99.4075L103.933 142.262C103.987 142.44 104.129 142.601 104.307 142.654C104.486 142.707 104.682 142.69 104.842 142.565L131.339 122.287C131.499 122.162 131.57 121.984 131.57 121.788C131.552 121.61 131.446 121.432 131.285 121.343ZM106 107.675L99.9061 122.911L93.8655 100.494L106 107.675ZM104.824 141.139L100.405 124.764L106.998 108.281L117.476 114.5L107.782 138.734C107.764 138.787 107.746 138.841 107.746 138.894L104.824 141.139ZM109.475 137.558L118.473 115.088L129.949 121.895L109.475 137.558Z" fill="white"/>
<path d="M80.3422 7.60425C78.5781 7.60425 77.1348 6.16092 77.1348 4.39685C77.1348 2.63278 78.5781 1.18945 80.3422 1.18945C82.1062 1.18945 83.5496 2.63278 83.5496 4.39685C83.5496 6.16092 82.1062 7.60425 80.3422 7.60425ZM80.3422 2.25859C79.1661 2.25859 78.2039 3.22081 78.2039 4.39685C78.2039 5.5729 79.1661 6.53512 80.3422 6.53512C81.5182 6.53512 82.4804 5.5729 82.4804 4.39685C82.4804 3.22081 81.5182 2.25859 80.3422 2.25859Z" fill="white"/>
<path d="M141.282 15.4451C139.518 15.4451 138.074 14.0017 138.074 12.2377C138.074 10.4736 139.518 9.03027 141.282 9.03027C143.046 9.03027 144.489 10.4736 144.489 12.2377C144.489 14.0017 143.046 15.4451 141.282 15.4451ZM141.282 10.0994C140.106 10.0994 139.143 11.0616 139.143 12.2377C139.143 13.4137 140.106 14.3759 141.282 14.3759C142.458 14.3759 143.42 13.4137 143.42 12.2377C143.42 11.0616 142.458 10.0994 141.282 10.0994Z" fill="white"/>
<path d="M17.4418 32.1951C15.6777 32.1951 14.2344 30.7517 14.2344 28.9877C14.2344 27.2236 15.6777 25.7803 17.4418 25.7803C19.2058 25.7803 20.6492 27.2236 20.6492 28.9877C20.6492 30.7517 19.2058 32.1951 17.4418 32.1951ZM17.4418 26.8494C16.2657 26.8494 15.3035 27.8116 15.3035 28.9877C15.3035 30.1637 16.2657 31.1259 17.4418 31.1259C18.6178 31.1259 19.58 30.1637 19.58 28.9877C19.58 27.8116 18.6178 26.8494 17.4418 26.8494Z" fill="white"/>
<path d="M49.1586 74.2468C47.3945 74.2468 45.9512 72.8035 45.9512 71.0394C45.9512 69.2754 47.3945 67.832 49.1586 67.832C50.9226 67.832 52.366 69.2754 52.366 71.0394C52.366 72.8035 50.9226 74.2468 49.1586 74.2468ZM49.1586 68.9012C47.9825 68.9012 47.0203 69.8634 47.0203 71.0394C47.0203 72.2155 47.9825 73.1777 49.1586 73.1777C50.3346 73.1777 51.2968 72.2155 51.2968 71.0394C51.2968 69.8634 50.3346 68.9012 49.1586 68.9012Z" fill="white"/>
<path d="M87.8265 91.1755C86.0625 91.1755 84.6191 89.7322 84.6191 87.9681C84.6191 86.2041 86.0625 84.7607 87.8265 84.7607C89.5906 84.7607 91.0339 86.2041 91.0339 87.9681C91.0339 89.7322 89.5906 91.1755 87.8265 91.1755ZM87.8265 85.8299C86.6505 85.8299 85.6883 86.7921 85.6883 87.9681C85.6883 89.1442 86.6505 90.1064 87.8265 90.1064C89.0026 90.1064 89.9648 89.1442 89.9648 87.9681C89.9648 86.7921 89.0026 85.8299 87.8265 85.8299Z" fill="white"/>
<path d="M133.264 94.739C131.5 94.739 130.057 93.2957 130.057 91.5316C130.057 89.7675 131.5 88.3242 133.264 88.3242C135.028 88.3242 136.471 89.7675 136.471 91.5316C136.471 93.2957 135.028 94.739 133.264 94.739ZM133.264 89.3934C132.088 89.3934 131.126 90.3556 131.126 91.5316C131.126 92.7077 132.088 93.6699 133.264 93.6699C134.44 93.6699 135.402 92.7077 135.402 91.5316C135.402 90.3556 134.44 89.3934 133.264 89.3934Z" fill="white"/>
<path d="M10.6703 103.292C8.90622 103.292 7.46289 101.848 7.46289 100.084C7.46289 98.3203 8.90622 96.877 10.6703 96.877C12.4344 96.877 13.8777 98.3203 13.8777 100.084C13.8777 101.848 12.4344 103.292 10.6703 103.292ZM10.6703 97.9461C9.49424 97.9461 8.53202 98.9083 8.53202 100.084C8.53202 101.26 9.49424 102.223 10.6703 102.223C11.8463 102.223 12.8086 101.26 12.8086 100.084C12.8086 98.9083 11.8463 97.9461 10.6703 97.9461Z" fill="white"/>
<path d="M118.653 61.5955C116.889 61.5955 115.445 60.1521 115.445 58.3881C115.445 56.624 116.889 55.1807 118.653 55.1807C120.417 55.1807 121.86 56.624 121.86 58.3881C121.86 60.1521 120.417 61.5955 118.653 61.5955ZM118.653 56.2498C117.477 56.2498 116.514 57.212 116.514 58.3881C116.514 59.5641 117.477 60.5263 118.653 60.5263C119.829 60.5263 120.791 59.5641 120.791 58.3881C120.791 57.212 119.829 56.2498 118.653 56.2498Z" fill="white"/>
<path d="M47.7328 120.398C45.9687 120.398 44.5254 118.955 44.5254 117.191C44.5254 115.427 45.9687 113.983 47.7328 113.983C49.4969 113.983 50.9402 115.427 50.9402 117.191C50.9402 118.955 49.4969 120.398 47.7328 120.398ZM47.7328 115.053C46.5567 115.053 45.5945 116.015 45.5945 117.191C45.5945 118.367 46.5567 119.329 47.7328 119.329C48.9088 119.329 49.8711 118.367 49.8711 117.191C49.8711 116.015 48.9088 115.053 47.7328 115.053Z" fill="white"/>
<path d="M90.3213 43.0645C87.5772 43.0645 85.332 40.8193 85.332 38.0752C85.332 35.3311 87.5772 33.0859 90.3213 33.0859C93.0654 33.0859 95.3106 35.3311 95.3106 38.0752C95.3106 40.8193 93.0654 43.0645 90.3213 43.0645ZM90.3213 34.1551C88.1652 34.1551 86.4012 35.9191 86.4012 38.0752C86.4012 40.2313 88.1652 41.9954 90.3213 41.9954C92.4774 41.9954 94.2415 40.2313 94.2415 38.0752C94.2415 35.9191 92.4774 34.1551 90.3213 34.1551Z" fill="white"/>
<path d="M27.5987 24.3546C24.8546 24.3546 22.6094 22.1094 22.6094 19.3653C22.6094 16.6212 24.8546 14.376 27.5987 14.376C30.3428 14.376 32.588 16.6212 32.588 19.3653C32.588 22.1094 30.3428 24.3546 27.5987 24.3546ZM27.5987 15.4451C25.4426 15.4451 23.6785 17.2092 23.6785 19.3653C23.6785 21.5214 25.4426 23.2854 27.5987 23.2854C29.7548 23.2854 31.5188 21.5214 31.5188 19.3653C31.5188 17.2092 29.7548 15.4451 27.5987 15.4451Z" fill="white"/>
<path d="M59.8506 59.9923C57.1065 59.9923 54.8613 57.7471 54.8613 55.003C54.8613 52.2589 57.1065 50.0137 59.8506 50.0137C62.5947 50.0137 64.8399 52.2589 64.8399 55.003C64.8399 57.7471 62.5947 59.9923 59.8506 59.9923ZM59.8506 51.0828C57.6945 51.0828 55.9305 52.8469 55.9305 55.003C55.9305 57.159 57.6945 58.9231 59.8506 58.9231C62.0067 58.9231 63.7708 57.159 63.7708 55.003C63.7708 52.8469 62.0067 51.0828 59.8506 51.0828Z" fill="white"/>
<path d="M146.628 50.0137C143.884 50.0137 141.639 47.7686 141.639 45.0244C141.639 42.2803 143.884 40.0352 146.628 40.0352C149.372 40.0352 151.617 42.2803 151.617 45.0244C151.617 47.7686 149.372 50.0137 146.628 50.0137ZM146.628 41.1043C144.472 41.1043 142.708 42.8684 142.708 45.0244C142.708 47.1805 144.472 48.9446 146.628 48.9446C148.784 48.9446 150.548 47.1805 150.548 45.0244C150.548 42.8684 148.784 41.1043 146.628 41.1043Z" fill="white"/>
<path d="M119.364 103.47C116.62 103.47 114.375 101.225 114.375 98.4805C114.375 95.7364 116.62 93.4912 119.364 93.4912C122.108 93.4912 124.354 95.7364 124.354 98.4805C124.354 101.225 122.108 103.47 119.364 103.47ZM119.364 94.5603C117.208 94.5603 115.444 96.3244 115.444 98.4805C115.444 100.637 117.208 102.401 119.364 102.401C121.52 102.401 123.284 100.637 123.284 98.4805C123.284 96.3244 121.52 94.5603 119.364 94.5603Z" fill="white"/>
<path d="M69.5624 51.2605C68.5289 51.2605 67.6914 50.423 67.6914 49.3895C67.6914 48.356 68.5289 47.5186 69.5624 47.5186C70.5959 47.5186 71.4334 48.356 71.4334 49.3895C71.4334 50.423 70.5959 51.2605 69.5624 51.2605ZM69.5624 48.5877C69.1169 48.5877 68.7605 48.9441 68.7605 49.3895C68.7605 49.835 69.1169 50.1914 69.5624 50.1914C70.0079 50.1914 70.3642 49.835 70.3642 49.3895C70.3642 48.9441 70.0079 48.5877 69.5624 48.5877Z" fill="white"/>
<path d="M65.4628 69.9705C64.4293 69.9705 63.5918 69.133 63.5918 68.0995C63.5918 67.066 64.4293 66.2285 65.4628 66.2285C66.4963 66.2285 67.3338 67.066 67.3338 68.0995C67.3338 69.133 66.4963 69.9705 65.4628 69.9705ZM65.4628 67.2976C65.0173 67.2976 64.6609 67.654 64.6609 68.0995C64.6609 68.545 65.0173 68.9013 65.4628 68.9013C65.9083 68.9013 66.2646 68.545 66.2646 68.0995C66.2646 67.654 65.9083 67.2976 65.4628 67.2976Z" fill="white"/>
<path d="M38.5565 32.3728C37.523 32.3728 36.6855 31.5353 36.6855 30.5018C36.6855 29.4683 37.523 28.6309 38.5565 28.6309C39.59 28.6309 40.4275 29.4683 40.4275 30.5018C40.4275 31.5353 39.59 32.3728 38.5565 32.3728ZM38.5565 29.7C38.1111 29.7 37.7547 30.0564 37.7547 30.5018C37.7547 30.9473 38.1111 31.3037 38.5565 31.3037C39.002 31.3037 39.3584 30.9473 39.3584 30.5018C39.3584 30.0564 39.002 29.7 38.5565 29.7Z" fill="white"/>
<path d="M129.076 10.4558C128.043 10.4558 127.205 9.61835 127.205 8.58485C127.205 7.55136 128.043 6.71387 129.076 6.71387C130.11 6.71387 130.947 7.55136 130.947 8.58485C130.947 9.61835 130.11 10.4558 129.076 10.4558ZM129.076 7.783C128.631 7.783 128.274 8.13938 128.274 8.58485C128.274 9.03032 128.631 9.3867 129.076 9.3867C129.522 9.3867 129.878 9.03032 129.878 8.58485C129.878 8.13938 129.522 7.783 129.076 7.783Z" fill="white"/>
<path d="M12.8964 115.053C11.8629 115.053 11.0254 114.215 11.0254 113.182C11.0254 112.148 11.8629 111.311 12.8964 111.311C13.9299 111.311 14.7674 112.148 14.7674 113.182C14.7674 114.215 13.9299 115.053 12.8964 115.053ZM12.8964 112.38C12.4509 112.38 12.0945 112.736 12.0945 113.182C12.0945 113.627 12.4509 113.983 12.8964 113.983C13.3418 113.983 13.6982 113.627 13.6982 113.182C13.6982 112.736 13.3418 112.38 12.8964 112.38Z" fill="white"/>
<path d="M128.185 112.023C127.152 112.023 126.314 111.186 126.314 110.152C126.314 109.119 127.152 108.281 128.185 108.281C129.219 108.281 130.056 109.119 130.056 110.152C130.056 111.186 129.219 112.023 128.185 112.023ZM128.185 109.35C127.74 109.35 127.384 109.707 127.384 110.152C127.384 110.598 127.74 110.954 128.185 110.954C128.631 110.954 128.987 110.598 128.987 110.152C128.987 109.707 128.631 109.35 128.185 109.35Z" fill="white"/>
<path d="M131.928 69.4363C130.894 69.4363 130.057 68.5988 130.057 67.5653C130.057 66.5318 130.894 65.6943 131.928 65.6943C132.961 65.6943 133.799 66.5318 133.799 67.5653C133.799 68.5988 132.961 69.4363 131.928 69.4363ZM131.928 66.7635C131.482 66.7635 131.126 67.1198 131.126 67.5653C131.126 68.0108 131.482 68.3672 131.928 68.3672C132.373 68.3672 132.729 68.0108 132.729 67.5653C132.729 67.1198 132.373 66.7635 131.928 66.7635Z" fill="white"/>
<path d="M87.0233 22.572C85.9898 22.572 85.1523 21.7346 85.1523 20.7011C85.1523 19.6676 85.9898 18.8301 87.0233 18.8301C88.0568 18.8301 88.8943 19.6676 88.8943 20.7011C88.8943 21.7346 88.0568 22.572 87.0233 22.572ZM87.0233 19.8992C86.5779 19.8992 86.2215 20.2556 86.2215 20.7011C86.2215 21.1465 86.5779 21.5029 87.0233 21.5029C87.4688 21.5029 87.8252 21.1465 87.8252 20.7011C87.8252 20.2556 87.4688 19.8992 87.0233 19.8992Z" fill="white"/>
<path d="M7.73036 54.2898C6.69686 54.2898 5.85938 53.4523 5.85938 52.4188C5.85938 51.3853 6.69686 50.5479 7.73036 50.5479C8.76385 50.5479 9.60134 51.3853 9.60134 52.4188C9.60134 53.4523 8.76385 54.2898 7.73036 54.2898ZM7.73036 51.617C7.28489 51.617 6.92851 51.9734 6.92851 52.4188C6.92851 52.8643 7.28489 53.2207 7.73036 53.2207C8.17583 53.2207 8.53221 52.8643 8.53221 52.4188C8.53221 51.9734 8.17583 51.617 7.73036 51.617Z" fill="white"/>
<path d="M173.267 64.8035C172.234 64.8035 171.396 63.966 171.396 62.9325C171.396 61.899 172.234 61.0615 173.267 61.0615C174.301 61.0615 175.138 61.899 175.138 62.9325C175.138 63.966 174.301 64.8035 173.267 64.8035ZM173.267 62.1307C172.822 62.1307 172.466 62.487 172.466 62.9325C172.466 63.378 172.822 63.7344 173.267 63.7344C173.713 63.7344 174.069 63.378 174.069 62.9325C174.069 62.487 173.713 62.1307 173.267 62.1307Z" fill="white"/>
<path d="M173.267 102.222C172.234 102.222 171.396 101.385 171.396 100.351C171.396 99.318 172.234 98.4805 173.267 98.4805C174.301 98.4805 175.138 99.318 175.138 100.351C175.138 101.385 174.301 102.222 173.267 102.222ZM173.267 99.5496C172.822 99.5496 172.466 99.906 172.466 100.351C172.466 100.797 172.822 101.153 173.267 101.153C173.713 101.153 174.069 100.797 174.069 100.351C174.069 99.906 173.713 99.5496 173.267 99.5496Z" fill="white"/>
<path d="M82.9257 141.425C81.8922 141.425 81.0547 140.587 81.0547 139.554C81.0547 138.52 81.8922 137.683 82.9257 137.683C83.9592 137.683 84.7967 138.52 84.7967 139.554C84.7967 140.587 83.9592 141.425 82.9257 141.425ZM82.9257 138.752C82.4802 138.752 82.1238 139.108 82.1238 139.554C82.1238 139.999 82.4802 140.355 82.9257 140.355C83.3711 140.355 83.7275 139.999 83.7275 139.554C83.7275 139.108 83.3711 138.752 82.9257 138.752Z" fill="white"/>
<path d="M172.341 144.614C172.217 144.489 172.038 144.418 171.86 144.436L139.679 146.378L138.806 142.797C138.735 142.512 138.468 142.298 138.165 142.315L132.552 142.654C132.213 142.672 131.946 142.975 131.964 143.313C131.982 143.652 132.284 143.919 132.623 143.901L137.701 143.598L143.974 169.596C144.045 169.881 144.312 170.095 144.615 170.077L169.74 168.563C170.078 168.545 170.346 168.242 170.328 167.903C170.31 167.565 170.007 167.298 169.669 167.315L145.061 168.794L143.813 163.663L170.595 162.041C170.898 162.023 171.147 161.774 171.183 161.471L172.484 145.131C172.537 144.917 172.466 144.739 172.341 144.614ZM170.666 152.633L160.759 153.238L160.349 146.378L171.237 145.719L170.666 152.633ZM151.689 153.773L151.279 146.913L159.102 146.449L159.512 153.31L151.689 153.773ZM159.583 154.557L159.993 161.417L152.17 161.881L151.761 155.02L159.583 154.557ZM150.032 146.984L150.442 153.844L141.622 154.379L139.982 147.59L150.032 146.984ZM141.924 155.608L150.531 155.092L150.941 161.952L143.564 162.397L141.924 155.608ZM170.007 160.811L161.24 161.346L160.83 154.486L170.559 153.898L170.007 160.811Z" fill="white"/>
<path d="M148.874 172.91C146.754 173.035 145.132 174.87 145.257 176.991C145.381 179.111 147.217 180.733 149.337 180.608C151.458 180.483 153.079 178.648 152.955 176.527C152.83 174.407 150.994 172.785 148.874 172.91ZM149.266 179.361C147.84 179.45 146.593 178.345 146.522 176.919C146.433 175.494 147.538 174.246 148.963 174.175C150.389 174.086 151.636 175.191 151.707 176.616C151.796 178.024 150.709 179.271 149.266 179.361Z" fill="white"/>
<path d="M167.067 171.931C164.947 172.055 163.325 173.891 163.45 176.011C163.575 178.132 165.41 179.753 167.531 179.628C169.651 179.504 171.273 177.668 171.148 175.548C171.005 173.41 169.17 171.806 167.067 171.931ZM167.442 178.363C166.016 178.452 164.769 177.348 164.697 175.922C164.608 174.497 165.713 173.249 167.139 173.178C168.564 173.089 169.811 174.194 169.883 175.619C169.972 177.045 168.885 178.274 167.442 178.363Z" fill="white"/>
<path d="M82.3191 151.011C81.9983 150.869 81.642 150.993 81.4994 151.314L77.4367 160.063C76.9912 161.008 75.9934 161.489 75.2093 161.115L53.5416 151.047C52.7575 150.673 52.4724 149.604 52.9179 148.659L56.9806 139.928C57.1232 139.607 56.9984 139.251 56.6777 139.108C56.357 138.966 56.0006 139.09 55.858 139.411L51.7953 148.16C51.0647 149.728 51.6171 151.546 53.0248 152.205L74.7104 162.273C76.1181 162.932 77.8644 162.184 78.5949 160.616L82.6576 151.867C82.7646 151.528 82.6398 151.154 82.3191 151.011Z" fill="white"/>
<path d="M65.9971 151.314C66.0506 151.492 66.1753 151.635 66.3357 151.706C66.496 151.777 66.692 151.777 66.8524 151.706L76.3142 147.483C76.635 147.34 76.7775 146.966 76.635 146.663C76.4924 146.342 76.1182 146.2 75.8153 146.342L67.8681 149.888L75.2095 134.101C75.352 133.78 75.2273 133.424 74.9066 133.281C74.5858 133.139 74.2294 133.263 74.0869 133.584L66.7455 149.372L64.3221 141.015C64.233 140.676 63.8767 140.498 63.5559 140.587C63.2174 140.676 63.0392 141.032 63.1283 141.353L65.9971 151.314Z" fill="white"/>
<path d="M61.2764 175.458C58.5323 175.458 56.2871 173.213 56.2871 170.469C56.2871 167.725 58.5323 165.479 61.2764 165.479C64.0205 165.479 66.2657 167.725 66.2657 170.469C66.2657 173.213 64.0205 175.458 61.2764 175.458ZM61.2764 166.549C59.1203 166.549 57.3562 168.313 57.3562 170.469C57.3562 172.625 59.1203 174.389 61.2764 174.389C63.4325 174.389 65.1966 172.625 65.1966 170.469C65.1966 168.313 63.4325 166.549 61.2764 166.549Z" fill="white"/>
<path d="M78.1151 176.349C77.0816 176.349 76.2441 175.512 76.2441 174.478C76.2441 173.445 77.0816 172.607 78.1151 172.607C79.1486 172.607 79.9861 173.445 79.9861 174.478C79.9861 175.512 79.1486 176.349 78.1151 176.349ZM78.1151 173.677C77.6697 173.677 77.3133 174.033 77.3133 174.478C77.3133 174.924 77.6697 175.28 78.1151 175.28C78.5606 175.28 78.917 174.924 78.917 174.478C78.917 174.033 78.5606 173.677 78.1151 173.677Z" fill="white"/>
<path d="M130.502 135.188C129.468 135.188 128.631 134.351 128.631 133.317C128.631 132.284 129.468 131.446 130.502 131.446C131.535 131.446 132.373 132.284 132.373 133.317C132.373 134.351 131.535 135.188 130.502 135.188ZM130.502 132.515C130.056 132.515 129.7 132.872 129.7 133.317C129.7 133.763 130.056 134.119 130.502 134.119C130.947 134.119 131.304 133.763 131.304 133.317C131.304 132.872 130.947 132.515 130.502 132.515Z" fill="white"/>
<path d="M94.1522 147.661C93.1187 147.661 92.2812 146.823 92.2812 145.79C92.2812 144.756 93.1187 143.919 94.1522 143.919C95.1857 143.919 96.0232 144.756 96.0232 145.79C96.0232 146.823 95.1857 147.661 94.1522 147.661ZM94.1522 144.988C93.7068 144.988 93.3504 145.344 93.3504 145.79C93.3504 146.235 93.7068 146.592 94.1522 146.592C94.5977 146.592 94.9541 146.235 94.9541 145.79C94.9541 145.344 94.5977 144.988 94.1522 144.988Z" fill="white"/>
<path d="M117.582 152.116C115.818 152.116 114.375 150.673 114.375 148.909C114.375 147.145 115.818 145.701 117.582 145.701C119.346 145.701 120.79 147.145 120.79 148.909C120.79 150.673 119.346 152.116 117.582 152.116ZM117.582 146.77C116.406 146.77 115.444 147.733 115.444 148.909C115.444 150.085 116.406 151.047 117.582 151.047C118.758 151.047 119.721 150.085 119.721 148.909C119.721 147.733 118.758 146.77 117.582 146.77Z" fill="white"/>
<path d="M133.62 164.589C131.855 164.589 130.412 163.145 130.412 161.381C130.412 159.617 131.855 158.174 133.62 158.174C135.384 158.174 136.827 159.617 136.827 161.381C136.827 163.145 135.384 164.589 133.62 164.589ZM133.62 159.243C132.443 159.243 131.481 160.205 131.481 161.381C131.481 162.557 132.443 163.519 133.62 163.519C134.796 163.519 135.758 162.557 135.758 161.381C135.758 160.205 134.796 159.243 133.62 159.243Z" fill="white"/>
<path d="M18.6879 148.196C16.9238 148.196 15.4805 146.753 15.4805 144.989C15.4805 143.225 16.9238 141.781 18.6879 141.781C20.4519 141.781 21.8953 143.225 21.8953 144.989C21.8953 146.753 20.4519 148.196 18.6879 148.196ZM18.6879 142.85C17.5118 142.85 16.5496 143.813 16.5496 144.989C16.5496 146.165 17.5118 147.127 18.6879 147.127C19.8639 147.127 20.8261 146.165 20.8261 144.989C20.8261 143.813 19.8639 142.85 18.6879 142.85Z" fill="white"/>
<path d="M8.97645 151.76C7.94296 151.76 7.10547 150.922 7.10547 149.889C7.10547 148.855 7.94296 148.018 8.97645 148.018C10.0099 148.018 10.8474 148.855 10.8474 149.889C10.8474 150.922 10.0099 151.76 8.97645 151.76ZM8.97645 149.087C8.53098 149.087 8.1746 149.443 8.1746 149.889C8.1746 150.334 8.53098 150.69 8.97645 150.69C9.42192 150.69 9.7783 150.334 9.7783 149.889C9.7783 149.443 9.42192 149.087 8.97645 149.087Z" fill="white"/>
<path d="M9.51161 177.596C8.47811 177.596 7.64062 176.759 7.64062 175.725C7.64062 174.692 8.47811 173.854 9.51161 173.854C10.5451 173.854 11.3826 174.692 11.3826 175.725C11.3826 176.759 10.5451 177.596 9.51161 177.596ZM9.51161 174.924C9.06614 174.924 8.70976 175.28 8.70976 175.725C8.70976 176.171 9.06614 176.527 9.51161 176.527C9.95708 176.527 10.3135 176.171 10.3135 175.725C10.3135 175.28 9.95708 174.924 9.51161 174.924Z" fill="white"/>
<path d="M31.6427 153.381C30.2885 153.844 29.5757 155.323 30.039 156.678C30.4489 157.854 31.6071 158.549 32.801 158.406C33.7632 161.186 35.3312 166.763 33.8166 170.131C33.2821 171.307 32.4446 172.091 31.2329 172.501C31.2151 172.501 31.1973 172.519 31.1795 172.519C31.1616 172.519 31.1438 172.519 31.126 172.536C29.9143 172.946 28.7739 172.857 27.6335 172.251C24.3905 170.523 22.1987 165.159 21.2543 162.38C22.3056 161.774 22.8224 160.491 22.4126 159.297C21.9493 157.943 20.4703 157.23 19.1161 157.693C17.7618 158.157 17.0491 159.636 17.5124 160.99C17.8866 162.095 18.9379 162.772 20.0605 162.736C20.3634 163.663 20.8089 164.857 21.3969 166.14C23.0719 169.828 24.9607 172.251 27.0455 173.374C28.4888 174.14 30.0034 174.265 31.5358 173.748C31.5536 173.748 31.5715 173.73 31.5893 173.73C31.6071 173.73 31.6249 173.73 31.6427 173.713C33.1752 173.178 34.2978 172.162 34.9571 170.666C36.6498 166.852 34.9749 160.901 33.9592 157.996C34.8858 157.355 35.3134 156.143 34.9392 155.021C34.4759 153.631 32.997 152.918 31.6427 153.381ZM18.7062 160.562C18.4746 159.867 18.8488 159.101 19.5437 158.852C20.2387 158.62 21.0049 158.994 21.2543 159.689C21.4325 160.224 21.2721 160.776 20.8801 161.132C20.791 160.847 20.7554 160.669 20.7376 160.669C20.6485 160.331 20.3099 160.135 19.9714 160.224C19.6506 160.313 19.4368 160.651 19.5259 160.99C19.5259 161.008 19.5794 161.168 19.6506 161.435C19.223 161.311 18.8488 161.008 18.7062 160.562ZM33.4959 156.713C33.389 156.464 33.3355 156.303 33.2999 156.25C33.1573 155.929 32.801 155.787 32.4802 155.911C32.1595 156.054 32.0169 156.41 32.1417 156.731C32.1417 156.749 32.2129 156.892 32.3199 157.159C31.8209 157.105 31.3755 156.767 31.1973 156.268C30.9656 155.573 31.3398 154.807 32.0348 154.557C32.7297 154.326 33.4959 154.7 33.7454 155.395C33.9236 155.858 33.7988 156.357 33.4959 156.713Z" fill="white"/>
<path d="M126.439 167.494L113.52 163.716C114.34 162.273 116.692 158.638 119.81 158.477C120.078 158.459 120.309 158.263 120.327 157.996C120.363 157.729 120.185 157.479 119.935 157.408L104.504 152.9C104.237 152.829 103.969 152.953 103.845 153.185C103.72 153.434 103.809 153.72 104.023 153.88C106.553 155.68 106.589 160.027 106.5 161.667L93.4027 157.854C91.8168 157.39 90.1419 158.299 89.6786 159.903L83.9587 179.503C83.4954 181.089 84.4042 182.764 86.0079 183.228L86.2573 183.299H90.2131L86.3286 182.159C85.3308 181.873 84.7427 180.804 85.0457 179.806L89.6964 163.859L126.35 174.568L123.802 183.299H124.96L128.488 171.218C128.951 169.614 128.025 167.957 126.439 167.494ZM106.125 154.521L117.654 157.889C114.892 159.137 113.021 162.255 112.415 163.395L107.587 161.988C107.693 160.687 107.783 157.052 106.125 154.521ZM127.419 170.897L126.671 173.481L89.9993 162.772L90.7477 160.188C91.0328 159.19 92.1019 158.602 93.0998 158.905L106.838 162.914L112.54 164.571L126.118 168.527C127.134 168.848 127.704 169.899 127.419 170.897Z" fill="white"/>
<path d="M175.138 132.426L164.357 123.712C164.108 123.516 163.752 123.552 163.555 123.801C163.359 124.051 163.395 124.407 163.645 124.603L175.102 133.851C174.728 134.047 174.282 134.172 173.837 134.154L140.035 133.139C139.607 133.121 139.197 133.014 138.859 132.8L150.904 124.211C151.171 124.033 151.225 123.659 151.047 123.409C150.868 123.142 150.512 123.089 150.245 123.267L138.003 131.98C137.718 131.553 137.558 131.054 137.576 130.501L138.146 111.399L150.975 121.77C152.864 122.982 155.002 123.641 157.159 123.695C159.315 123.766 161.489 123.249 163.449 122.144L175.156 113.805V112.397L162.843 121.182C161.114 122.144 159.172 122.608 157.194 122.554C155.216 122.501 153.31 121.895 151.652 120.843L138.288 110.027C138.609 108.958 139.625 108.192 140.783 108.228L148.481 108.459L174.585 109.243C174.781 109.243 174.977 109.279 175.156 109.332V108.121C175.066 108.103 174.977 108.103 174.888 108.103H174.621L148.516 107.319L140.658 107.087C138.716 107.034 137.094 108.548 137.041 110.509C137.041 110.562 137.023 110.615 137.023 110.669L136.417 130.484C136.364 132.515 137.95 134.225 139.981 134.279L173.784 135.295C174.265 135.312 174.71 135.223 175.138 135.081V132.426Z" fill="white"/>
<path d="M0.691406 108.175V109.386C1.56453 109.618 2.24165 110.295 2.49111 111.151L0.691406 112.434V113.841L2.56239 112.505L1.97437 131.714C1.95655 132.23 1.79618 132.711 1.51108 133.103L0.691406 132.426V135.099C2.08128 134.6 3.07914 133.299 3.13259 131.749L3.73844 111.935C3.73844 111.845 3.73844 111.756 3.73844 111.685L3.75626 111.667C3.79189 109.868 2.45548 108.353 0.691406 108.175Z" fill="white"/>
<path d="M8.88773 91.1749C6.14362 91.1749 3.89844 88.9297 3.89844 86.1856C3.89844 83.4415 6.14362 81.1963 8.88773 81.1963C11.6318 81.1963 13.877 83.4415 13.877 86.1856C13.877 88.9297 11.6318 91.1749 8.88773 91.1749ZM8.88773 82.2654C6.73164 82.2654 4.96757 84.0295 4.96757 86.1856C4.96757 88.3417 6.73164 90.1057 8.88773 90.1057C11.0438 90.1057 12.8079 88.3417 12.8079 86.1856C12.8079 84.0295 11.0438 82.2654 8.88773 82.2654Z" fill="white"/>
<path d="M170.611 38.1104L170.825 41.3178L165.836 41.6563L165.622 38.4489L170.611 38.1104ZM171.556 37.0234L164.535 37.5045L164.892 42.7433L171.912 42.2622L171.556 37.0234Z" fill="white"/>
<path d="M169.721 25.2627L169.935 28.4701L164.945 28.8087L164.731 25.6013L169.721 25.2627ZM170.665 24.1758L163.645 24.6569L164.001 29.8956L171.022 29.4145L170.665 24.1758Z" fill="white"/>
<path d="M161.525 25.833L161.739 29.0404L157.355 29.3434L157.142 26.136L161.525 25.833ZM162.469 24.7461L156.055 25.1916L156.411 30.4303L162.826 29.9848L162.469 24.7461Z" fill="white"/>
<path d="M4.96794 36.4707L0.691406 36.7736V37.7893L4.00572 37.5577L4.23737 40.7651L0.691406 40.9967V42.0302L5.32432 41.7095L4.96794 36.4707Z" fill="white"/>
<path d="M4.52247 30.0566L0.691406 30.3239V31.3396L3.56025 31.1436L3.79189 34.3332L0.691406 34.547V35.5805L4.87885 35.2776L4.52247 30.0566Z" fill="white"/>
<path d="M4.077 23.624L0.691406 23.8557V24.8892L3.11478 24.711L3.34642 27.9184L0.691406 28.0966V29.1301L4.43337 28.8628L4.077 23.624Z" fill="white"/>
<path d="M8.79872 8.49587C7.76522 8.49587 6.92773 7.65839 6.92773 6.62489C6.92773 5.59139 7.76522 4.75391 8.79872 4.75391C9.83221 4.75391 10.6697 5.59139 10.6697 6.62489C10.6697 7.65839 9.83221 8.49587 8.79872 8.49587ZM8.79872 5.82304C8.35325 5.82304 7.99687 6.17942 7.99687 6.62489C7.99687 7.07036 8.35325 7.42674 8.79872 7.42674C9.24419 7.42674 9.60057 7.07036 9.60057 6.62489C9.60057 6.17942 9.24419 5.82304 8.79872 5.82304Z" fill="white"/>
<path d="M146.539 28.2742C145.505 28.2742 144.668 27.4367 144.668 26.4032C144.668 25.3697 145.505 24.5322 146.539 24.5322C147.572 24.5322 148.41 25.3697 148.41 26.4032C148.41 27.4367 147.572 28.2742 146.539 28.2742ZM146.539 25.6014C146.093 25.6014 145.737 25.9577 145.737 26.4032C145.737 26.8487 146.093 27.2051 146.539 27.2051C146.984 27.2051 147.341 26.8487 147.341 26.4032C147.341 25.9577 146.984 25.6014 146.539 25.6014Z" fill="white"/>
<path d="M135.492 176.884C134.459 176.884 133.621 176.046 133.621 175.013C133.621 173.979 134.459 173.142 135.492 173.142C136.526 173.142 137.363 173.979 137.363 175.013C137.363 176.046 136.526 176.884 135.492 176.884ZM135.492 174.211C135.047 174.211 134.69 174.567 134.69 175.013C134.69 175.458 135.047 175.814 135.492 175.814C135.938 175.814 136.294 175.458 136.294 175.013C136.294 174.567 135.938 174.211 135.492 174.211Z" fill="white"/>
<path d="M148.678 103.114C147.644 103.114 146.807 102.277 146.807 101.243C146.807 100.21 147.644 99.3721 148.678 99.3721C149.711 99.3721 150.549 100.21 150.549 101.243C150.549 102.277 149.711 103.114 148.678 103.114ZM148.678 100.441C148.232 100.441 147.876 100.798 147.876 101.243C147.876 101.689 148.232 102.045 148.678 102.045C149.123 102.045 149.479 101.689 149.479 101.243C149.479 100.798 149.123 100.441 148.678 100.441Z" fill="white"/>
<path d="M43.1 144.988C41.3359 144.988 39.8926 143.545 39.8926 141.781C39.8926 140.017 41.3359 138.573 43.1 138.573C44.864 138.573 46.3074 140.017 46.3074 141.781C46.3074 143.545 44.864 144.988 43.1 144.988ZM43.1 139.642C41.9239 139.642 40.9617 140.605 40.9617 141.781C40.9617 142.957 41.9239 143.919 43.1 143.919C44.276 143.919 45.2382 142.957 45.2382 141.781C45.2382 140.605 44.276 139.642 43.1 139.642Z" fill="white"/>
<path d="M102.616 15.8015C100.852 15.8015 99.4082 14.3582 99.4082 12.5941C99.4082 10.83 100.852 9.38672 102.616 9.38672C104.38 9.38672 105.823 10.83 105.823 12.5941C105.823 14.3582 104.38 15.8015 102.616 15.8015ZM102.616 10.4559C101.44 10.4559 100.477 11.4181 100.477 12.5941C100.477 13.7702 101.44 14.7324 102.616 14.7324C103.792 14.7324 104.754 13.7702 104.754 12.5941C104.754 11.4181 103.792 10.4559 102.616 10.4559Z" fill="white"/>
<path d="M41.996 0.298828L19.7581 7.92531C18.7424 5.30594 17.9405 2.75783 17.2634 0.298828H15.9805C16.711 3.06076 17.6376 5.94742 18.8137 8.94099C18.9384 9.24391 19.277 9.40428 19.5977 9.29737L45.8449 0.298828H41.996Z" fill="white"/>
<path d="M123.802 0.298828L121.7 7.51548C121.414 8.51334 120.345 9.10136 119.347 8.79844L90.2136 0.298828H86.2578L119.027 9.86757C120.613 10.3309 122.288 9.4221 122.751 7.8184L124.96 0.298828H123.802Z" fill="white"/>
<path d="M175.138 40.9975L174.051 41.0866L173.837 37.8792L175.138 37.7901V36.7744L172.75 36.9348L173.106 42.1735L175.138 42.031V40.9975Z" fill="white"/>
<path d="M175.139 34.5463L163.2 35.3838L162.184 35.4551L162.256 36.4708L162.63 41.8699L158.246 42.1728L157.872 36.7737L157.569 32.5506L162.986 32.1764L175.139 31.3389V30.3232L162.915 31.1607L156.482 31.6062L156.857 36.845L157.302 43.2598L163.717 42.8143L163.271 36.3995L175.139 35.5798V34.5463Z" fill="white"/>
<path d="M175.138 28.0964L173.16 28.2389L172.946 25.0315L175.138 24.889V23.8555L171.859 24.0871L172.216 29.3259L175.138 29.1299V28.0964Z" fill="white"/>
<path d="M175.137 43.9018L157.924 45.0956C156.481 45.2025 155.234 44.0978 155.127 42.6723L152.935 10.8477C152.828 9.40438 153.933 8.15706 155.358 8.05015L169.899 7.03447L175.137 11.9881V10.5804L170.433 6.14353C170.326 6.05443 170.184 6.00098 170.041 6.00098L155.287 7.01665C153.291 7.1592 151.777 8.88764 151.919 10.9012L154.111 42.7435C154.254 44.7392 155.982 46.2539 157.996 46.1113L175.137 44.9174V43.9018Z" fill="white"/>
<path d="M108.478 167.315C109.155 167.511 109.886 167.119 110.082 166.442C110.278 165.765 109.886 165.035 109.209 164.839C108.532 164.643 107.801 165.035 107.605 165.712C107.409 166.389 107.801 167.102 108.478 167.315ZM108.995 165.534C109.298 165.623 109.458 165.926 109.369 166.228C109.28 166.531 108.977 166.692 108.674 166.603C108.371 166.514 108.211 166.211 108.3 165.908C108.389 165.623 108.692 165.444 108.995 165.534Z" fill="white"/>
<path d="M41.4434 156.945C37.6836 151.706 34.7079 148.997 34.5832 148.873C34.4228 148.712 34.1733 148.677 33.9595 148.748L14.3053 155.483C14.0914 155.555 13.9311 155.733 13.8954 155.965C13.8598 156.125 13.1649 160.099 13.4321 166.531C13.5925 170.736 14.2162 176.581 15.9802 183.281H17.2632C13.5212 169.4 14.7686 158.602 15.0537 156.535L34.013 150.031C35.777 151.741 46.0051 162.201 51.3864 180.056L41.978 183.281H45.8269L52.3486 181.036C52.6693 180.929 52.8475 180.59 52.7406 180.27C49.6758 169.739 44.9003 161.774 41.4434 156.945Z" fill="white"/>
<path d="M6.83892 16.568C6.83892 16.4432 6.76765 16.3185 6.67855 16.2294L0.691406 10.5986V12.0063L5.84107 16.8531L7.49822 40.8195C7.60514 42.2628 6.50036 43.5101 5.07485 43.617L0.691406 43.9021V44.9178L5.14613 44.6149C7.14184 44.4723 8.65645 42.7439 8.5139 40.7304L6.83892 16.568Z" fill="white"/>
</g>
<defs>
<clipPath id="clip0_11_6432">
<rect width="174.447" height="183" fill="white" transform="translate(0.691406 0.298828)"/>
</clipPath>
</defs>
</svg>
