<svg width="69" height="60" viewBox="0 0 69 60" fill="none" xmlns="http://www.w3.org/2000/svg">
<g clip-path="url(#clip0_11_5725)">
<g clip-path="url(#clip1_11_5725)">
<g clip-path="url(#clip2_11_5725)">
<path fill-rule="evenodd" clip-rule="evenodd" d="M67.4826 32.9978L53.64 56.9978C52.5685 58.8554 50.5871 60 48.4425 60H20.7676C18.6231 60 16.6417 58.8554 15.5702 56.9978L1.72758 32.9978C0.657501 31.1425 0.657501 28.8575 1.72758 27.0022L15.5702 3.00224C16.6417 1.14457 18.6231 0 20.7676 0L48.4425 0C50.5871 0 52.5685 1.14457 53.64 3.00224L67.4826 27.0022C68.5527 28.8575 68.5527 31.1425 67.4826 32.9978Z" fill="#5B1F5D"/>
<path fill-rule="evenodd" clip-rule="evenodd" d="M44.5585 25.5423C45.5768 25.541 46.4014 24.7141 46.4007 23.6948C46.4001 22.6756 45.5745 21.8496 44.5562 21.8496C43.538 21.8496 42.7124 22.6756 42.7117 23.6948C42.7111 24.7141 43.5357 25.541 44.554 25.5423H44.5585ZM30.4045 26.5391C29.8987 27.8703 29.1768 29.1088 28.268 30.2046V22.6833L24.3979 23.449V37.0825H28.268V32.8688C29.3906 34.5497 29.9428 37.0825 29.9428 37.0825H34.5778C34.1206 35.1795 32.1154 31.6635 32.1154 31.6635C33.917 29.38 34.7045 26.9469 34.8313 26.5436L30.4045 26.5391ZM40.5708 26.3986C37.1035 26.5119 35.3473 28.066 35.3473 31.1606V37.0825H39.1268V32.2526C39.1268 30.3994 39.3713 29.6065 41.5666 29.5295V26.453C41.1999 26.3714 40.5753 26.3986 40.5708 26.3986ZM17.9116 28.0388C17.4363 28.0071 16.341 27.9346 16.341 26.9469C16.341 25.7552 17.9207 25.7552 18.5136 25.7552C19.5547 25.7552 20.9036 26.0633 21.8677 26.3533C21.8677 26.3533 22.4063 26.5436 22.8635 26.7385L22.9042 26.752V23.4807L22.8454 23.4626C21.7093 23.0639 20.3876 22.6833 17.9343 22.6833C13.7111 22.6833 12.2129 25.1481 12.2129 27.2595C12.2129 28.4783 12.7334 31.3418 17.5767 31.6726C17.9886 31.6998 19.0749 31.7587 19.0749 32.7827C19.0749 33.6254 18.1832 34.1238 16.685 34.1238C15.0419 34.1238 13.4486 33.7025 12.4799 33.3083V36.6747C13.9284 37.0553 15.5624 37.2456 17.4771 37.2456C21.6097 37.2456 23.461 34.9122 23.461 32.6014C23.4565 29.978 21.3879 28.2744 17.9116 28.0388ZM42.6891 37.087H46.4415V26.5572H42.6891V37.087ZM53.4936 23.3539V37.0825H57.246V22.6833L53.4936 23.3539ZM48.0212 23.3539L51.7691 22.6833V37.0825H48.0212V23.3539Z" fill="white"/>
</g>
</g>
</g>
<defs>
<clipPath id="clip0_11_5725">
<rect width="69" height="60" fill="white"/>
</clipPath>
<clipPath id="clip1_11_5725">
<rect width="69" height="60" fill="white"/>
</clipPath>
<clipPath id="clip2_11_5725">
<rect width="69" height="60" fill="white"/>
</clipPath>
</defs>
</svg>
