<svg width="69" height="60" viewBox="0 0 69 60" fill="none" xmlns="http://www.w3.org/2000/svg">
<g clip-path="url(#clip0_11_5733)">
<g clip-path="url(#clip1_11_5733)">
<g clip-path="url(#clip2_11_5733)">
<path fill-rule="evenodd" clip-rule="evenodd" d="M67.5 33L53.6 57C52.5 58.9 50.5 60 48.4 60H20.8C18.7 60 16.7 58.9 15.6 57L1.7 33C0.6 31.1 0.6 28.9 1.7 27L15.6 3C16.7 1.1 18.7 0 20.8 0H48.5C50.6 0 52.6 1.1 53.7 3L67.5 27C68.6 28.9 68.6 31.1 67.5 33Z" fill="#FF99B2"/>
<path d="M20.1 49.5008C21.6 49.6008 22.9 48.5008 23 47.0008C23 46.9008 23 46.9008 23 46.8008C23 45.3008 22 44.7008 20.7 44.3008C19.9 44.1008 19.4 43.9008 19.4 43.3008C19.4 42.8008 19.8 42.4008 20.2 42.4008H20.3C20.8 42.4008 21.2 42.7008 21.4 43.1008L22.7 42.3008C22.3 41.4008 21.3 40.9008 20.3 40.9008C18.9 40.8008 17.7 41.9008 17.7 43.3008V43.4008C17.7 44.5008 18.4 45.3008 19.9 45.8008C20.8 46.0008 21.3 46.2008 21.3 46.9008C21.3 47.5008 20.9 47.9008 20.3 48.0008H20.2C19.6 48.0008 19 47.6008 18.6 47.1008L17.5 48.2008C18.1 49.0008 19.1 49.5008 20.1 49.5008ZM26.7 49.5008C25 49.5008 23.7 48.1008 23.7 46.4008C23.7 44.7008 25.1 43.4008 26.8 43.4008C28.5 43.4008 29.8 44.8008 29.8 46.4008C29.8 48.1008 28.4 49.5008 26.7 49.5008ZM26.7 47.9008C27.5 47.9008 28.2 47.3008 28.2 46.4008C28.2 45.6008 27.6 44.9008 26.7 44.9008C25.9 44.9008 25.2 45.5008 25.2 46.4008C25.2 47.2008 25.8 47.9008 26.7 47.9008C26.6 47.9008 26.6 47.9008 26.7 47.9008ZM33.8 42.5008V41.0008H33.6C32.1 40.9008 30.8 42.0008 30.7 43.5008C30.7 43.6008 30.7 43.8008 30.7 43.9008V49.4008H32.3V47.0008C32.3 46.2008 33 45.6008 33.7 45.6008H33.8V44.0008C33.2 44.0008 32.7 44.2008 32.3 44.6008V44.0008C32.2 43.3008 32.8 42.6008 33.5 42.6008C33.6 42.5008 33.7 42.5008 33.8 42.5008ZM37.3 49.5008C35.6 49.5008 34.3 48.1008 34.3 46.4008C34.3 44.7008 35.7 43.4008 37.4 43.4008C39.1 43.4008 40.4 44.8008 40.4 46.4008C40.4 48.1008 39 49.5008 37.3 49.5008ZM37.3 47.9008C38.1 47.9008 38.8 47.2008 38.8 46.4008C38.8 45.6008 38.1 44.9008 37.3 44.9008C36.5 44.9008 35.8 45.6008 35.8 46.4008C35.8 47.2008 36.5 47.9008 37.3 47.9008ZM42.9 44.2008V43.5008H41.3V49.3008H42.9V46.7008C42.8 45.9008 43.4 45.3008 44.1 45.2008C44.2 45.2008 44.3 45.2008 44.4 45.2008V43.5008C43.8 43.4008 43.2 43.7008 42.9 44.2008ZM47 46.4008V45.0008C47.4 45.4008 48 45.6008 48.5 45.6008V44.0008C47.7 44.0008 47 43.4008 47 42.6008V41.7008H45.4V46.5008C45.3 48.0008 46.5 49.3008 48 49.4008C48.1 49.4008 48.3 49.4008 48.4 49.4008H48.6V47.9008C47.9 48.0008 47.2 47.5008 47.1 46.8008C47 46.6008 47 46.5008 47 46.4008ZM50.5 49.4008C51.1 49.4008 51.6 48.9008 51.6 48.3008C51.6 47.7008 51.1 47.2008 50.5 47.2008C49.9 47.2008 49.4 47.7008 49.4 48.3008C49.4 48.9008 49.9 49.4008 50.5 49.4008Z" fill="white"/>
<path d="M42.9004 25.3004C42.6004 25.0004 42.3004 24.8004 41.9004 24.7004L40.9004 24.5004L43.1004 13.5004C43.4004 12.3004 42.6004 11.0004 41.4004 10.7004C40.0004 10.3004 38.6004 11.2004 38.3004 12.5004L36.3004 19.4004L34.7004 12.6004C34.4004 11.3004 33.2004 10.4004 31.8004 10.7004C30.5004 11.1004 29.7004 12.4004 30.0004 13.7004L30.9004 21.4004C30.1004 20.6004 29.1004 20.3004 28.0004 21.0004H28.1004C27.1004 21.7004 26.9004 23.1004 27.5004 24.3004C27.0004 24.3004 26.4004 24.5004 26.0004 25.0004V25.1004C25.1004 26.0004 25.3004 27.7004 26.4004 28.8004L27.3004 29.7004C27.4004 34.0004 30.8004 36.9004 34.9004 37.0004H35.0004C35.0004 37.0004 35.0004 37.0004 35.1004 37.0004C40.7004 37.0004 43.2004 33.6004 43.6004 28.5004C43.8004 27.0004 43.5004 25.9004 42.9004 25.3004ZM32.1004 11.6004C32.5004 11.5004 32.9004 11.6004 33.2004 11.8004C33.5004 12.0004 33.7004 12.3004 33.8004 12.7004L35.8004 21.3004C35.8004 21.3004 35.8004 21.3004 35.8004 21.4004C35.8004 21.5004 35.8004 21.5004 35.9004 21.5004L36.0004 21.6004C36.1004 21.7004 36.3004 21.8004 36.4004 21.7004C36.7004 21.6004 36.8004 21.4004 36.8004 21.1004L39.3004 12.5004C39.5004 11.7004 40.3004 11.2004 41.1004 11.4004C41.8004 11.6004 42.2004 12.3004 42.1004 13.0004L39.9004 24.0004L35.9004 23.1004C35.8004 23.1004 35.7004 23.1004 35.6004 23.1004C35.1004 23.0004 34.7004 23.0004 34.2004 23.1004C33.7004 23.2004 33.2004 23.5004 32.9004 23.9004L32.3004 23.0004L31.1004 13.5004V13.4004C30.9004 12.7004 31.4004 11.9004 32.1004 11.6004ZM28.7004 21.9004L28.8004 21.8004C29.6004 21.4004 30.2004 21.7004 30.9004 22.7004L32.6004 25.3004C32.4004 26.1004 32.6004 26.8004 33.1004 27.4004C33.0004 27.6004 32.9004 27.7004 32.7004 27.8004L32.6004 27.9004C32.0004 28.3004 31.3004 28.1004 30.8004 27.6004L28.6004 24.3004C28.0004 23.3004 28.1004 22.3004 28.7004 21.9004ZM26.7004 25.9004L26.8004 25.8004C27.2004 25.4004 27.9004 25.3004 28.4004 25.7004L30.1004 28.2004C30.6004 28.9004 31.3004 29.2004 32.0004 29.2004C32.4004 29.7004 32.4004 30.4004 31.9004 30.9004L31.7004 31.0004C31.2004 31.5004 30.4004 31.5004 29.9004 31.0004L28.3004 29.4004C28.2004 29.3004 28.2004 29.2004 28.0004 29.1004L27.0004 28.1004C26.3004 27.3004 26.2004 26.4004 26.7004 25.9004ZM42.7004 28.6004C42.3004 33.2004 40.2004 36.1004 35.0004 36.1004C31.8004 36.1004 29.1004 34.0004 28.5004 31.0004L29.3004 31.8004C30.2004 32.7004 31.7004 32.7004 32.6004 31.8004L32.7004 31.7004C33.4004 31.0004 33.5004 29.8004 33.0004 29.0004C33.1004 29.0004 33.1004 28.9004 33.2004 28.9004L33.3004 28.8004C33.6004 28.6004 33.8004 28.4004 33.9004 28.1004C34.3004 28.3004 34.7004 28.5004 35.2004 28.6004L36.6004 28.9004C35.5004 29.5004 34.9004 30.6004 34.8004 32.3004C34.8004 32.6004 35.1004 32.8004 35.3004 32.8004C35.5004 32.8004 35.8004 32.6004 35.8004 32.4004C35.9004 30.9004 36.5004 30.0004 37.4004 29.7004C37.9004 29.5004 38.4004 29.5004 39.0004 29.5004H39.1004C39.4004 29.5004 39.6004 29.3004 39.7004 29.1004C39.7004 28.8004 39.6004 28.6004 39.3004 28.5004L35.3004 27.6004C33.7004 27.2004 33.3004 26.6004 33.4004 25.7004C33.5004 25.6004 33.5004 25.4004 33.5004 25.3004C33.6004 24.9004 34.0004 24.5004 34.4004 24.5004C34.7004 24.4004 35.0004 24.4004 35.4004 24.5004H35.6004L40.0004 25.5004C40.1004 25.5004 40.1004 25.6004 40.2004 25.6004H40.3004L41.7004 25.9004H41.8004C41.9004 26.0004 42.0004 26.0004 42.1004 26.1004C42.5004 26.4004 42.8004 27.2004 42.7004 28.6004Z" fill="white"/>
</g>
</g>
</g>
<defs>
<clipPath id="clip0_11_5733">
<rect width="69" height="60" fill="white"/>
</clipPath>
<clipPath id="clip1_11_5733">
<rect width="69" height="60" fill="white"/>
</clipPath>
<clipPath id="clip2_11_5733">
<rect width="69" height="60" fill="white"/>
</clipPath>
</defs>
</svg>
