<svg width="31" height="32" viewBox="0 0 31 32" fill="none" xmlns="http://www.w3.org/2000/svg">
<g clip-path="url(#clip0_2001_5231)">
<path d="M4.62305 6.37207H6.62829C7.52345 6.37207 7.97104 6.37207 8.308 6.61494C8.64496 6.85781 8.7865 7.28242 9.06957 8.13164L9.76971 10.2321" stroke="white" stroke-width="1.28667" stroke-linecap="round"/>
<path d="M22.6358 23.0983H10.4779C10.2898 23.0983 10.1958 23.0983 10.1244 23.0903C9.36839 23.0056 8.85047 22.2871 9.00924 21.5431C9.02423 21.4729 9.05397 21.3836 9.11345 21.2052V21.2052C9.1795 21.0071 9.21252 20.908 9.249 20.8206C9.62249 19.9256 10.4675 19.3165 11.4346 19.2452C11.5291 19.2383 11.6335 19.2383 11.8424 19.2383H18.7758" stroke="white" stroke-width="1.28667" stroke-linecap="round" stroke-linejoin="round"/>
<path d="M18.3619 19.2391H14.449C12.8031 19.2391 11.9801 19.2391 11.3356 18.8141C10.691 18.3891 10.3668 17.6326 9.71847 16.1198L9.50125 15.613C8.4597 13.1827 7.93893 11.9675 8.51099 11.1C9.08305 10.2324 10.4051 10.2324 13.0492 10.2324H19.8438C22.8019 10.2324 24.281 10.2324 24.8389 11.1937C25.3967 12.155 24.6629 13.4392 23.1953 16.0075L22.8305 16.6459C22.1075 17.9112 21.7459 18.5438 21.1469 18.8915C20.5479 19.2391 19.8192 19.2391 18.3619 19.2391Z" stroke="white" stroke-width="1.28667" stroke-linecap="round"/>
<circle cx="21.9917" cy="26.315" r="1.28667" fill="white"/>
<circle cx="11.6988" cy="26.315" r="1.28667" fill="white"/>
</g>
<defs>
<clipPath id="clip0_2001_5231">
<rect width="30.88" height="30.88" fill="white" transform="translate(0.119141 0.582031)"/>
</clipPath>
</defs>
</svg>
