<svg width="51" height="51" viewBox="0 0 51 51" fill="none" xmlns="http://www.w3.org/2000/svg">
<g clip-path="url(#clip0_2001_4320)">
<path d="M7.53711 9.48438H10.7951C12.2495 9.48438 12.9767 9.48438 13.5242 9.87897C14.0717 10.2736 14.3016 10.9635 14.7615 12.3432L15.8991 15.7559" stroke="white" stroke-width="2.09049" stroke-linecap="round"/>
<path d="M36.804 36.6611H17.0507C16.7451 36.6611 16.5923 36.6611 16.4764 36.6481C15.248 36.5106 14.4066 35.3431 14.6645 34.1343C14.6889 34.0202 14.7372 33.8753 14.8339 33.5853V33.5853C14.9412 33.2634 14.9948 33.1025 15.0541 32.9605C15.6609 31.5063 17.0337 30.5168 18.6052 30.401C18.7587 30.3896 18.9283 30.3896 19.2676 30.3896H30.5325" stroke="white" stroke-width="2.09049" stroke-linecap="round" stroke-linejoin="round"/>
<path d="M29.8596 30.3893H23.5021C20.8279 30.3893 19.4908 30.3893 18.4436 29.6988C17.3964 29.0083 16.8697 27.7793 15.8163 25.3213L15.4633 24.4978C13.7711 20.5492 12.925 18.5749 13.8544 17.1654C14.7839 15.7559 16.9318 15.7559 21.2277 15.7559H32.2673C37.0734 15.7559 39.4765 15.7559 40.3829 17.3177C41.2892 18.8795 40.097 20.966 37.7125 25.1389L37.1198 26.176C35.9451 28.2318 35.3577 29.2597 34.3844 29.8245C33.4112 30.3893 32.2273 30.3893 29.8596 30.3893Z" stroke="white" stroke-width="2.09049" stroke-linecap="round"/>
<circle cx="35.7585" cy="41.8874" r="2.09049" fill="white"/>
<circle cx="19.0339" cy="41.8874" r="2.09049" fill="white"/>
</g>
<defs>
<clipPath id="clip0_2001_4320">
<rect width="50.1718" height="50.1718" fill="white" transform="translate(0.220703 0.0771484)"/>
</clipPath>
</defs>
</svg>
