<svg width="32" height="32" viewBox="0 0 32 32" fill="none" xmlns="http://www.w3.org/2000/svg">
<g clip-path="url(#clip0_2001_5233)">
<path d="M5.06445 6.37207H7.0697C7.96486 6.37207 8.41244 6.37207 8.7494 6.61494C9.08637 6.85781 9.2279 7.28242 9.51098 8.13164L10.2111 10.2321" stroke="black" stroke-width="1.28667" stroke-linecap="round"/>
<path d="M23.0772 23.0983H10.9193C10.7312 23.0983 10.6372 23.0983 10.5658 23.0903C9.80979 23.0056 9.29188 22.2871 9.45065 21.5431C9.46564 21.4729 9.49538 21.3836 9.55486 21.2052V21.2052C9.6209 21.0071 9.65392 20.908 9.69041 20.8206C10.0639 19.9256 10.9089 19.3165 11.8761 19.2452C11.9705 19.2383 12.0749 19.2383 12.2838 19.2383H19.2172" stroke="black" stroke-width="1.28667" stroke-linecap="round" stroke-linejoin="round"/>
<path d="M18.8033 19.2391H14.8904C13.2445 19.2391 12.4215 19.2391 11.777 18.8141C11.1324 18.3891 10.8082 17.6326 10.1599 16.1198L9.94266 15.613C8.90111 13.1827 8.38034 11.9675 8.9524 11.1C9.52446 10.2324 10.8465 10.2324 13.4906 10.2324H20.2852C23.2434 10.2324 24.7224 10.2324 25.2803 11.1937C25.8381 12.155 25.1043 13.4392 23.6367 16.0075L23.2719 16.6459C22.5489 17.9112 22.1873 18.5438 21.5883 18.8915C20.9893 19.2391 20.2606 19.2391 18.8033 19.2391Z" stroke="black" stroke-width="1.28667" stroke-linecap="round"/>
<circle cx="22.4332" cy="26.315" r="1.28667" fill="black"/>
<circle cx="12.1402" cy="26.315" r="1.28667" fill="black"/>
</g>
<defs>
<clipPath id="clip0_2001_5233">
<rect width="30.88" height="30.88" fill="white" transform="translate(0.560547 0.582031)"/>
</clipPath>
</defs>
</svg>
