<svg width="51" height="51" viewBox="0 0 51 51" fill="none" xmlns="http://www.w3.org/2000/svg">
<g clip-path="url(#clip0_2001_4322)">
<path d="M7.79492 9.48438H11.0529C12.5073 9.48438 13.2345 9.48438 13.782 9.87897C14.3295 10.2736 14.5594 10.9635 15.0193 12.3432L16.1569 15.7559" stroke="black" stroke-width="2.09049" stroke-linecap="round"/>
<path d="M37.0618 36.6611H17.3086C17.003 36.6611 16.8501 36.6611 16.7342 36.6481C15.5059 36.5106 14.6644 35.3431 14.9224 34.1343C14.9467 34.0202 14.995 33.8753 15.0917 33.5853V33.5853C15.199 33.2634 15.2526 33.1025 15.3119 32.9605C15.9187 31.5063 17.2916 30.5168 18.863 30.401C19.0165 30.3896 19.1861 30.3896 19.5255 30.3896H30.7903" stroke="black" stroke-width="2.09049" stroke-linecap="round" stroke-linejoin="round"/>
<path d="M30.1193 30.3893H23.7619C21.0877 30.3893 19.7506 30.3893 18.7034 29.6988C17.6562 29.0083 17.1294 27.7793 16.076 25.3213L15.7231 24.4978C14.0309 20.5492 13.1847 18.5749 14.1142 17.1654C15.0436 15.7559 17.1916 15.7559 21.4875 15.7559H32.5271C37.3332 15.7559 39.7363 15.7559 40.6426 17.3177C41.549 18.8795 40.3567 20.966 37.9722 25.1389L37.3796 26.176C36.2048 28.2318 35.6175 29.2597 34.6442 29.8245C33.6709 30.3893 32.4871 30.3893 30.1193 30.3893Z" stroke="black" stroke-width="2.09049" stroke-linecap="round"/>
<circle cx="36.0163" cy="41.8874" r="2.09049" fill="black"/>
<circle cx="19.2917" cy="41.8874" r="2.09049" fill="black"/>
</g>
<defs>
<clipPath id="clip0_2001_4322">
<rect width="50.1718" height="50.1718" fill="white" transform="translate(0.478516 0.0771484)"/>
</clipPath>
</defs>
</svg>
