<svg width="25" height="25" viewBox="0 0 25 25" fill="none" xmlns="http://www.w3.org/2000/svg">
<g clip-path="url(#clip0_2001_2797)">
<path d="M4.30078 4.7002H5.85926C6.55498 4.7002 6.90284 4.7002 7.16473 4.88895C7.42662 5.07771 7.53662 5.40772 7.75663 6.06774L8.30078 7.7002" stroke="black" stroke-linecap="round"/>
<path d="M18.3008 17.7002H8.85169C8.7055 17.7002 8.6324 17.7002 8.57694 17.694C7.98935 17.6282 7.58683 17.0697 7.71023 16.4915C7.72188 16.4369 7.74499 16.3676 7.79122 16.2289V16.2289C7.84255 16.0749 7.86821 15.9979 7.89657 15.93C8.18685 15.2344 8.84355 14.761 9.59526 14.7056C9.66868 14.7002 9.74984 14.7002 9.91215 14.7002H15.3008" stroke="black" stroke-linecap="round" stroke-linejoin="round"/>
<path d="M14.9795 14.7002H11.9384C10.6591 14.7002 10.0195 14.7002 9.51859 14.3699C9.01765 14.0396 8.7657 13.4517 8.26179 12.2759L8.09296 11.882C7.28347 9.99313 6.87872 9.04872 7.32333 8.37446C7.76793 7.7002 8.79542 7.7002 10.8504 7.7002H16.1312C18.4303 7.7002 19.5798 7.7002 20.0134 8.44731C20.4469 9.19441 19.8766 10.1925 18.736 12.1886L18.4525 12.6848C17.8905 13.6681 17.6096 14.1598 17.144 14.43C16.6784 14.7002 16.1121 14.7002 14.9795 14.7002Z" stroke="black" stroke-linecap="round"/>
<circle cx="17.8008" cy="20.2002" r="1" fill="black"/>
<circle cx="9.80078" cy="20.2002" r="1" fill="black"/>
</g>
<defs>
<clipPath id="clip0_2001_2797">
<rect width="24" height="24" fill="white" transform="translate(0.800781 0.200195)"/>
</clipPath>
</defs>
</svg>
