<svg width="24" height="25" viewBox="0 0 24 25" fill="none" xmlns="http://www.w3.org/2000/svg">
<g clip-path="url(#clip0_2001_1535)">
<path d="M3.5 5.3623H5.05848C5.7542 5.3623 6.10206 5.3623 6.36395 5.55106C6.62584 5.73982 6.73584 6.06983 6.95585 6.72985L7.5 8.3623" stroke="black" stroke-linecap="round"/>
<path d="M17.5 18.3623H8.05091C7.90471 18.3623 7.83162 18.3623 7.77616 18.3561C7.18857 18.2903 6.78605 17.7318 6.90945 17.1536C6.92109 17.099 6.94421 17.0297 6.99044 16.891V16.891C7.04177 16.737 7.06743 16.66 7.09579 16.5921C7.38607 15.8965 8.04277 15.4231 8.79448 15.3677C8.8679 15.3623 8.94906 15.3623 9.11137 15.3623H14.5" stroke="black" stroke-linecap="round" stroke-linejoin="round"/>
<path d="M14.1787 15.3623H11.1376C9.85836 15.3623 9.21875 15.3623 8.71781 15.032C8.21687 14.7017 7.96492 14.1138 7.461 12.938L7.29218 12.5441C6.48269 10.6552 6.07794 9.71083 6.52255 9.03657C6.96715 8.3623 7.99464 8.3623 10.0496 8.3623H15.3305C17.6295 8.3623 18.779 8.3623 19.2126 9.10941C19.6462 9.85652 19.0758 10.8546 17.9352 12.8507L17.6517 13.3469C17.0897 14.3303 16.8088 14.8219 16.3432 15.0921C15.8776 15.3623 15.3113 15.3623 14.1787 15.3623Z" stroke="black" stroke-linecap="round"/>
<circle cx="17" cy="20.8623" r="1" fill="black"/>
<circle cx="9" cy="20.8623" r="1" fill="black"/>
</g>
<defs>
<clipPath id="clip0_2001_1535">
<rect width="24" height="24" fill="white" transform="translate(0 0.862305)"/>
</clipPath>
</defs>
</svg>
