<svg width="20" height="21" viewBox="0 0 20 21" fill="none" xmlns="http://www.w3.org/2000/svg">
<g clip-path="url(#clip0_7_9837)">
<g clip-path="url(#clip1_7_9837)">
<g clip-path="url(#clip2_7_9837)">
<path d="M18.9669 1.69314C19.1223 1.84688 19.2457 2.02993 19.3299 2.23168C19.4141 2.43343 19.4575 2.64989 19.4575 2.86851C19.4575 3.08713 19.4141 3.30359 19.3299 3.50534C19.2457 3.70709 19.1223 3.89014 18.9669 4.04388L14.6538 8.35692L17.0046 18.5466L15.441 20.1209L11.1393 11.8828L6.81493 16.2066L7.21419 18.9453L6.02774 20.1204L4.07626 16.5945L0.539603 14.6322L1.71471 13.435L4.48633 13.8451L8.77722 9.55418L0.539062 5.21899L2.11343 3.65542L12.3031 6.00617L16.6161 1.69314C17.2369 1.0502 18.3455 1.0502 18.9669 1.69314Z" fill="black"/>
</g>
</g>
</g>
<defs>
<clipPath id="clip0_7_9837">
<rect width="20" height="19.45" fill="white" transform="translate(0 0.941406)"/>
</clipPath>
<clipPath id="clip1_7_9837">
<rect width="20" height="19.45" fill="white" transform="translate(0 0.941406)"/>
</clipPath>
<clipPath id="clip2_7_9837">
<rect width="19.9903" height="19.45" fill="white" transform="translate(0.00390625 0.941406)"/>
</clipPath>
</defs>
</svg>
