<svg width="308" height="65" viewBox="0 0 308 65" fill="none" xmlns="http://www.w3.org/2000/svg">
<g clip-path="url(#clip0_2016_6109)">
<path fill-rule="evenodd" clip-rule="evenodd" d="M38.6828 11.7533C36.1396 12.4548 34.4848 14.0716 33.9865 16.3401C33.7577 17.3806 33.3308 18.3798 33.0371 18.5614C32.2608 19.0414 30.2565 15.7212 30.7955 14.8485C31.0499 14.4375 30.96 14.2906 30.5935 14.5168C30.2316 14.741 29.3032 14.1962 28.5296 13.3071C26.7613 11.2733 24.677 11.251 22.362 13.2429C20.0843 15.2019 19.9525 18.1045 22.0525 20.0773C27.1816 24.8956 41.7099 24.4465 46.2929 19.3272C48.2768 17.1118 47.7956 15.4871 44.4899 13.2409C41.7735 11.394 40.8445 11.1566 38.6828 11.7533ZM37.8174 18.4106C35.8944 20.5467 35.2079 21.858 36.3566 21.201C37.8548 20.3441 40.2282 18.0612 40.2282 17.477C40.2282 16.4988 39.1687 16.9092 37.8174 18.4106ZM26.9514 19.0296C27.7428 19.8209 28.5984 20.2609 28.8522 20.0065C29.1065 19.7521 28.7459 19.1141 28.051 18.5883C26.1011 17.1131 25.3405 17.4187 26.9514 19.0296ZM16.4612 24.0223C15.8298 24.1442 15.304 24.7382 15.2915 25.3427C15.2791 25.9472 15.2423 30.7937 15.2102 36.113C15.1584 44.5589 15.0162 45.7902 14.0851 45.8355C13.1935 45.8787 13.1797 45.9463 14.0025 46.2485C14.5434 46.4478 15.4285 46.9619 15.9695 47.392C16.5104 47.8214 18.2806 48.5721 19.9033 49.0593C21.526 49.5471 23.1343 50.1896 23.4765 50.4872C23.8194 50.7849 24.4095 51.0196 24.7878 51.0091C25.1668 50.998 24.9485 50.682 24.304 50.3069C23.2386 49.6867 23.1389 48.4888 23.2104 37.158C23.2536 30.302 23.152 24.5553 22.9848 24.3881C22.5921 23.9954 17.9508 23.7351 16.4612 24.0223ZM26.1378 24.693C25.6638 25.9335 25.7221 50.0526 26.202 51.3029C26.421 51.8733 27.0282 52.3401 27.552 52.3401C28.0759 52.3401 28.3696 52.5617 28.2057 52.8318C27.7048 53.6586 33.854 53.6769 36.2943 52.8561C39.7378 51.6976 40.2157 51.7015 40.3646 52.8895C40.44 53.4888 40.6616 48.0784 40.8563 40.8664C41.0517 33.6543 41.1067 26.9602 40.9789 25.9899L40.7468 24.2268L33.6088 24.0229C28.1231 23.8669 26.3942 24.0216 26.1378 24.693ZM45.6372 24.0295C44.1647 24.238 44.162 24.2635 44.162 37.0492V49.8598L45.929 49.4166C46.9007 49.1727 48.6709 48.5656 49.8628 48.0673L52.0297 47.1618V35.7235V24.2852L49.5711 24.0524C48.2191 23.9246 46.4489 23.9141 45.6372 24.0295Z" fill="white"/>
<path d="M106.656 18.9019L105.76 25.1099H104L103.808 23.9899C103.488 22.0379 102.624 21.4619 99.7124 21.4619H97.6644L95.2004 35.3819C94.6244 38.4859 94.9124 39.2859 96.6404 39.4779L97.9844 39.6379L97.6324 41.4939C96.9924 41.4939 93.7284 41.4299 92.5124 41.4299C91.2964 41.4299 87.7124 41.4939 87.0724 41.4939L87.3924 39.6379L88.7044 39.4779C90.5604 39.2539 91.0724 38.5179 91.6164 35.3819L94.0804 21.4619H92.0964C89.0564 21.4619 88.0964 21.9739 86.8804 23.9259L86.1444 25.1099H84.3204L86.1444 18.9019H87.7764C88.5124 19.5419 89.0244 19.6379 96.0324 19.6379C103.264 19.6379 104 19.5419 105.088 18.9019H106.656ZM122.367 39.4139C120.607 41.0459 119.295 41.7179 117.919 41.7179C115.935 41.7179 115.039 40.2779 115.455 38.2939L116.927 31.2539C116.991 30.9339 117.151 29.9739 117.151 29.5259C117.151 28.7579 116.831 28.2779 115.999 28.2779C114.911 28.2779 113.567 29.0139 111.263 30.8059L109.279 41.4619H106.015L109.407 23.0619C109.663 21.6539 109.311 20.9499 108.191 20.5019L107.135 20.0859L107.455 18.8059L113.279 17.6219L113.631 18.0059L111.711 28.3419C114.527 26.0379 115.871 25.3979 117.599 25.3979C119.423 25.3979 120.607 26.4219 120.607 28.4379C120.607 28.9499 120.543 29.7499 120.415 30.3579L118.943 37.4299C118.719 38.4859 118.975 39.0939 119.551 39.0939C120.095 39.0939 120.575 38.8059 121.439 38.1659L122.367 39.4139ZM137.21 29.1099C137.21 32.5019 134.074 34.4219 127.13 35.3179C127.322 38.2619 128.762 39.4779 130.65 39.4779C132.026 39.4779 133.274 38.9659 134.97 37.7179L136.218 39.0939C134.234 40.7899 132.57 41.8779 129.818 41.8779C126.17 41.8779 123.578 39.2219 123.578 35.3179C123.578 30.2619 127.482 25.3339 132.57 25.3339C135.45 25.3339 137.21 26.7099 137.21 29.1099ZM133.722 29.1419C133.722 27.9259 133.082 27.0619 131.738 27.0619C129.562 27.0619 127.45 30.1339 127.13 33.6539C131.738 33.0779 133.722 31.8619 133.722 29.1419ZM151.343 19.5419L151.023 21.3979L149.839 21.5579C148.015 21.8139 147.343 22.5499 146.863 25.6539L144.943 38.1019C144.207 42.9339 142.479 44.9499 136.239 47.5099L135.375 45.7499C139.279 43.7019 140.719 42.1659 141.263 38.6459L143.279 25.6539C143.759 22.5499 143.471 21.7499 141.775 21.5579L140.431 21.3979L140.783 19.5419C141.423 19.5419 144.751 19.6059 145.967 19.6059C147.183 19.6059 150.703 19.5419 151.343 19.5419ZM165.686 32.2459C165.686 37.7819 162.134 41.8779 157.142 41.8779C153.27 41.8779 150.614 39.2219 150.614 34.9659C150.614 29.4299 154.198 25.3339 159.19 25.3339C163.062 25.3339 165.686 27.9899 165.686 32.2459ZM162.006 31.8299C162.006 28.9179 161.174 27.2219 158.998 27.2219C156.118 27.2219 154.294 30.9659 154.294 35.3819C154.294 38.2939 155.158 39.9899 157.334 39.9899C160.214 39.9899 162.006 36.2459 162.006 31.8299ZM182.327 28.8219C182.327 30.8699 180.727 35.5739 177.143 40.8539C173.367 46.3899 170.743 48.5019 168.727 48.5019C167.159 48.5019 166.359 47.7019 166.359 46.5179C166.359 45.4299 167.031 44.4379 167.831 44.4379C168.535 44.4379 169.399 44.7259 170.935 45.2059C171.991 44.3739 172.887 43.4459 174.135 41.7179L169.943 30.1339C169.559 29.0779 169.047 28.4699 167.991 28.0539L167.159 27.7339L167.479 26.4539L171.735 25.4299L172.183 25.8139L176.407 38.3579C178.135 35.4779 179.191 32.7259 179.511 30.4859C178.455 29.3339 177.559 28.1179 177.559 27.3179C177.559 26.3899 178.583 25.4299 179.703 25.4299C181.431 25.4299 182.327 26.6459 182.327 28.8219ZM199.624 32.2459C199.624 37.7819 196.072 41.8779 191.08 41.8779C187.208 41.8779 184.552 39.2219 184.552 34.9659C184.552 29.4299 188.136 25.3339 193.128 25.3339C197 25.3339 199.624 27.9899 199.624 32.2459ZM195.944 31.8299C195.944 28.9179 195.112 27.2219 192.936 27.2219C190.056 27.2219 188.232 30.9659 188.232 35.3819C188.232 38.2939 189.096 39.9899 191.272 39.9899C194.152 39.9899 195.944 36.2459 195.944 31.8299ZM218.28 39.4139C216.52 41.0459 215.208 41.7179 213.832 41.7179C212.072 41.7179 211.304 40.4699 211.464 38.7739C208.648 41.0779 207.176 41.8139 205.448 41.8139C203.624 41.8139 202.44 40.7899 202.44 38.7739C202.44 38.2619 202.568 37.4619 202.696 36.8539L203.88 30.7099C204.136 29.3019 203.784 28.5979 202.664 28.1499L201.608 27.7339L201.928 26.4539L207.784 25.4299L208.136 25.8139L206.152 35.9579C206.056 36.5339 205.896 37.2699 205.896 37.6859C205.896 38.4539 206.216 38.9339 207.048 38.9339C208.136 38.9339 209.448 38.1979 211.752 36.4059L213.8 25.7499H217.064L214.856 37.4299C214.632 38.5179 214.888 39.0939 215.464 39.0939C216.008 39.0939 216.488 38.8059 217.352 38.1659L218.28 39.4139ZM231.322 28.1179C231.322 29.0779 230.074 29.8779 229.242 29.8779C228.474 29.8779 227.962 29.2059 226.97 27.2539C226.778 27.1579 226.586 27.1259 226.362 27.1259C224.922 27.1259 223.962 28.0219 223.962 29.2379C223.962 30.5819 224.634 31.1899 226.65 32.3099C229.562 33.8779 230.362 35.1579 230.362 36.9179C230.362 39.6699 228.378 41.8779 224.218 41.8779C220.858 41.8779 218.938 40.5339 218.938 39.0939C218.938 38.2299 220.09 37.2379 221.018 37.2379C221.754 37.2379 222.426 37.9419 223.322 39.8939C223.642 39.9899 224.09 40.0859 224.57 40.0859C226.234 40.0859 227.29 39.0299 227.29 37.7499C227.29 36.5659 226.682 35.9259 224.538 34.7739C221.978 33.3979 220.89 32.0859 220.89 30.0699C220.89 28.0219 222.458 25.3339 226.714 25.3339C229.658 25.3339 231.322 26.9339 231.322 28.1179ZM255.511 31.4139L255.159 33.2059L254.007 33.3659C252.407 33.5899 251.927 34.4219 251.703 36.0219L251.639 36.4699C251.415 37.9739 251.895 38.5179 253.367 38.8699L253.303 40.1499C250.519 41.1739 247.959 41.8779 244.823 41.8779C239.191 41.8779 234.071 38.6139 234.071 31.7979C234.071 24.2139 239.863 19.1899 247.447 19.1899C250.455 19.1899 252.855 20.1179 254.423 21.0459V26.4219H252.503L252.247 25.6219C251.447 23.0939 250.263 21.2699 246.839 21.2699C241.591 21.2699 238.199 26.0699 238.199 32.7259C238.199 37.1739 240.695 39.7659 244.983 39.7659C247.095 39.7659 248.183 38.9019 248.471 37.2699L248.631 36.3739C249.015 34.1979 248.759 33.5579 247.159 33.3659L245.815 33.2059L246.167 31.4139C246.839 31.4139 249.879 31.4779 251.095 31.4779C252.311 31.4779 254.807 31.4139 255.511 31.4139ZM264.79 19.7019C264.79 21.1099 263.702 22.1659 262.39 22.1659C261.046 22.1659 259.926 21.1099 259.926 19.7019C259.926 18.3899 261.046 17.3339 262.39 17.3339C263.702 17.3339 264.79 18.3899 264.79 19.7019ZM265.078 39.4139C263.318 41.0459 262.038 41.7179 260.662 41.7179C258.678 41.7179 257.846 40.3099 258.23 38.2939L259.67 30.7099C259.926 29.3019 259.574 28.5979 258.454 28.1499L257.398 27.7339L257.718 26.4539L263.542 25.4299L263.894 25.8139L261.654 37.4299C261.43 38.5179 261.686 39.0939 262.262 39.0939C262.806 39.0939 263.286 38.8059 264.15 38.1659L265.078 39.4139ZM281.169 19.6699C281.169 20.8539 280.049 21.7179 279.217 21.7179C278.609 21.7179 277.969 21.3979 275.505 19.7979C274.481 20.5979 273.553 22.4219 273.169 25.3979L273.105 25.9099H276.273L275.889 28.2139H272.753L271.441 36.8219C270.481 43.1899 267.185 48.5019 263.665 48.5019C262.353 48.5019 261.617 47.8299 261.617 46.7419C261.617 45.4619 262.417 44.5979 263.121 44.5979C263.697 44.5979 264.273 44.6939 265.937 45.3979C266.641 44.6619 267.153 42.9659 267.473 40.7899L269.393 28.2139H267.185L267.441 26.5819L269.777 25.9739C270.769 20.6939 274.097 17.4299 278.161 17.4299C280.337 17.4299 281.169 18.1979 281.169 19.6699ZM287.411 25.9099L287.027 28.2139H282.931L281.363 36.6299C281.299 37.0139 281.235 37.6219 281.235 37.9419C281.235 38.7739 281.587 39.2539 282.419 39.2539C283.251 39.2539 283.827 38.9019 284.627 38.2939L285.779 39.6699C284.627 40.8539 283.091 41.7499 281.331 41.7499C279.283 41.7499 277.907 40.6619 277.907 38.9019C277.907 38.5819 278.003 37.6539 278.067 37.3339L279.731 28.2139H277.715L277.971 26.5819L280.051 26.0699L281.651 21.7499H284.147L283.347 25.9099H287.411ZM299.978 28.1179C299.978 29.0779 298.73 29.8779 297.898 29.8779C297.13 29.8779 296.618 29.2059 295.626 27.2539C295.434 27.1579 295.242 27.1259 295.018 27.1259C293.578 27.1259 292.618 28.0219 292.618 29.2379C292.618 30.5819 293.29 31.1899 295.306 32.3099C298.218 33.8779 299.018 35.1579 299.018 36.9179C299.018 39.6699 297.034 41.8779 292.874 41.8779C289.514 41.8779 287.594 40.5339 287.594 39.0939C287.594 38.2299 288.746 37.2379 289.674 37.2379C290.41 37.2379 291.082 37.9419 291.978 39.8939C292.298 39.9899 292.746 40.0859 293.226 40.0859C294.89 40.0859 295.946 39.0299 295.946 37.7499C295.946 36.5659 295.338 35.9259 293.194 34.7739C290.634 33.3979 289.546 32.0859 289.546 30.0699C289.546 28.0219 291.114 25.3339 295.37 25.3339C298.314 25.3339 299.978 26.9339 299.978 28.1179Z" fill="white"/>
</g>
<defs>
<clipPath id="clip0_2016_6109">
<rect width="307" height="64" fill="white" transform="translate(0.400391 0.461914)"/>
</clipPath>
</defs>
</svg>
