<svg width="307" height="65" viewBox="0 0 307 65" fill="none" xmlns="http://www.w3.org/2000/svg">
<g clip-path="url(#clip0_2016_5711)">
<path fill-rule="evenodd" clip-rule="evenodd" d="M38.2825 11.7913C35.7392 12.4929 34.0844 14.1097 33.5861 16.3782C33.3573 17.4187 32.9304 18.4179 32.6367 18.5995C31.8604 19.0795 29.8561 15.7593 30.3951 14.8866C30.6495 14.4755 30.5596 14.3287 30.1931 14.5549C29.8312 14.7791 28.9028 14.2343 28.1292 13.3452C26.3609 11.3114 24.2766 11.2891 21.9616 13.281C19.6839 15.24 19.5521 18.1425 21.6521 20.1154C26.7812 24.9337 41.3095 24.4846 45.8925 19.3653C47.8764 17.1499 47.3952 15.5252 44.0895 13.279C41.3731 11.4321 40.4441 11.1947 38.2825 11.7913ZM37.417 18.4487C35.494 20.5848 34.8076 21.8961 35.9562 21.2391C37.4544 20.3822 39.8278 18.0993 39.8278 17.5151C39.8278 16.5369 38.7683 16.9473 37.417 18.4487ZM26.5511 19.0677C27.3424 19.859 28.198 20.299 28.4518 20.0446C28.7062 19.7902 28.3455 19.1522 27.6506 18.6264C25.7007 17.1512 24.9401 17.4567 26.5511 19.0677ZM16.0608 24.0604C15.4294 24.1823 14.9036 24.7763 14.8911 25.3808C14.8787 25.9853 14.842 30.8318 14.8098 36.151C14.758 44.597 14.6158 45.8283 13.6848 45.8736C12.7931 45.9168 12.7793 45.9844 13.6021 46.2866C14.143 46.4859 15.0282 46.9999 15.5691 47.43C16.11 47.8595 17.8802 48.6102 19.5029 49.0973C21.1256 49.5851 22.7339 50.2277 23.0762 50.5253C23.4191 50.823 24.0091 51.0577 24.3874 51.0472C24.7664 51.0361 24.5481 50.7201 23.9036 50.345C22.8382 49.7248 22.7385 48.5269 22.81 37.1961C22.8532 30.3401 22.7516 24.5934 22.5844 24.4262C22.1917 24.0335 17.5504 23.7732 16.0608 24.0604ZM25.7374 24.7311C25.2634 25.9716 25.3217 50.0906 25.8017 51.3409C26.0206 51.9114 26.6278 52.3782 27.1516 52.3782C27.6755 52.3782 27.9692 52.5998 27.8053 52.8699C27.3044 53.6967 33.4536 53.715 35.8939 52.8942C39.3374 51.7356 39.8153 51.7396 39.9642 52.9276C40.0396 53.5269 40.2612 48.1165 40.4559 40.9044C40.6513 33.6924 40.7064 26.9983 40.5785 26.0279L40.3464 24.2649L33.2084 24.061C27.7227 23.905 25.9938 24.0597 25.7374 24.7311ZM45.2368 24.0676C43.7643 24.2761 43.7616 24.3016 43.7616 37.0873V49.8979L45.5286 49.4547C46.5003 49.2108 48.2705 48.6036 49.4625 48.1054L51.6293 47.1999V35.7616V24.3233L49.1707 24.0905C47.8188 23.9627 46.0485 23.9522 45.2368 24.0676Z" fill="black"/>
<path d="M106.256 18.94L105.36 25.148H103.6L103.408 24.028C103.088 22.076 102.224 21.5 99.312 21.5H97.264L94.8 35.42C94.224 38.524 94.512 39.324 96.24 39.516L97.584 39.676L97.232 41.532C96.592 41.532 93.328 41.468 92.112 41.468C90.896 41.468 87.312 41.532 86.672 41.532L86.992 39.676L88.304 39.516C90.16 39.292 90.672 38.556 91.216 35.42L93.68 21.5H91.696C88.656 21.5 87.696 22.012 86.48 23.964L85.744 25.148H83.92L85.744 18.94H87.376C88.112 19.58 88.624 19.676 95.632 19.676C102.864 19.676 103.6 19.58 104.688 18.94H106.256ZM121.967 39.452C120.207 41.084 118.895 41.756 117.519 41.756C115.535 41.756 114.639 40.316 115.055 38.332L116.527 31.292C116.591 30.972 116.751 30.012 116.751 29.564C116.751 28.796 116.431 28.316 115.599 28.316C114.511 28.316 113.167 29.052 110.863 30.844L108.879 41.5H105.615L109.007 23.1C109.263 21.692 108.911 20.988 107.791 20.54L106.735 20.124L107.055 18.844L112.879 17.66L113.231 18.044L111.311 28.38C114.127 26.076 115.471 25.436 117.199 25.436C119.023 25.436 120.207 26.46 120.207 28.476C120.207 28.988 120.143 29.788 120.015 30.396L118.543 37.468C118.319 38.524 118.575 39.132 119.151 39.132C119.695 39.132 120.175 38.844 121.039 38.204L121.967 39.452ZM136.81 29.148C136.81 32.54 133.674 34.46 126.73 35.356C126.922 38.3 128.362 39.516 130.25 39.516C131.626 39.516 132.874 39.004 134.57 37.756L135.818 39.132C133.834 40.828 132.17 41.916 129.418 41.916C125.77 41.916 123.178 39.26 123.178 35.356C123.178 30.3 127.082 25.372 132.17 25.372C135.05 25.372 136.81 26.748 136.81 29.148ZM133.322 29.18C133.322 27.964 132.682 27.1 131.338 27.1C129.162 27.1 127.05 30.172 126.73 33.692C131.338 33.116 133.322 31.9 133.322 29.18ZM150.943 19.58L150.623 21.436L149.439 21.596C147.615 21.852 146.943 22.588 146.463 25.692L144.543 38.14C143.807 42.972 142.079 44.988 135.839 47.548L134.975 45.788C138.879 43.74 140.319 42.204 140.863 38.684L142.879 25.692C143.359 22.588 143.071 21.788 141.375 21.596L140.031 21.436L140.383 19.58C141.023 19.58 144.351 19.644 145.567 19.644C146.783 19.644 150.303 19.58 150.943 19.58ZM165.286 32.284C165.286 37.82 161.734 41.916 156.742 41.916C152.87 41.916 150.214 39.26 150.214 35.004C150.214 29.468 153.798 25.372 158.79 25.372C162.662 25.372 165.286 28.028 165.286 32.284ZM161.606 31.868C161.606 28.956 160.774 27.26 158.598 27.26C155.718 27.26 153.894 31.004 153.894 35.42C153.894 38.332 154.758 40.028 156.934 40.028C159.814 40.028 161.606 36.284 161.606 31.868ZM181.926 28.86C181.926 30.908 180.326 35.612 176.742 40.892C172.966 46.428 170.342 48.54 168.326 48.54C166.758 48.54 165.958 47.74 165.958 46.556C165.958 45.468 166.63 44.476 167.43 44.476C168.134 44.476 168.998 44.764 170.534 45.244C171.59 44.412 172.486 43.484 173.734 41.756L169.542 30.172C169.158 29.116 168.646 28.508 167.59 28.092L166.758 27.772L167.078 26.492L171.334 25.468L171.782 25.852L176.006 38.396C177.734 35.516 178.79 32.764 179.11 30.524C178.054 29.372 177.158 28.156 177.158 27.356C177.158 26.428 178.182 25.468 179.302 25.468C181.03 25.468 181.926 26.684 181.926 28.86ZM199.223 32.284C199.223 37.82 195.671 41.916 190.679 41.916C186.807 41.916 184.151 39.26 184.151 35.004C184.151 29.468 187.735 25.372 192.727 25.372C196.599 25.372 199.223 28.028 199.223 32.284ZM195.543 31.868C195.543 28.956 194.711 27.26 192.535 27.26C189.655 27.26 187.831 31.004 187.831 35.42C187.831 38.332 188.695 40.028 190.871 40.028C193.751 40.028 195.543 36.284 195.543 31.868ZM217.88 39.452C216.12 41.084 214.808 41.756 213.432 41.756C211.672 41.756 210.904 40.508 211.064 38.812C208.248 41.116 206.776 41.852 205.048 41.852C203.224 41.852 202.04 40.828 202.04 38.812C202.04 38.3 202.168 37.5 202.296 36.892L203.48 30.748C203.736 29.34 203.384 28.636 202.264 28.188L201.208 27.772L201.528 26.492L207.384 25.468L207.736 25.852L205.752 35.996C205.656 36.572 205.496 37.308 205.496 37.724C205.496 38.492 205.816 38.972 206.648 38.972C207.736 38.972 209.048 38.236 211.352 36.444L213.4 25.788H216.664L214.456 37.468C214.232 38.556 214.488 39.132 215.064 39.132C215.608 39.132 216.088 38.844 216.952 38.204L217.88 39.452ZM230.921 28.156C230.921 29.116 229.673 29.916 228.841 29.916C228.073 29.916 227.561 29.244 226.569 27.292C226.377 27.196 226.185 27.164 225.961 27.164C224.521 27.164 223.561 28.06 223.561 29.276C223.561 30.62 224.233 31.228 226.249 32.348C229.161 33.916 229.961 35.196 229.961 36.956C229.961 39.708 227.977 41.916 223.817 41.916C220.457 41.916 218.537 40.572 218.537 39.132C218.537 38.268 219.689 37.276 220.617 37.276C221.353 37.276 222.025 37.98 222.921 39.932C223.241 40.028 223.689 40.124 224.169 40.124C225.833 40.124 226.889 39.068 226.889 37.788C226.889 36.604 226.281 35.964 224.137 34.812C221.577 33.436 220.489 32.124 220.489 30.108C220.489 28.06 222.057 25.372 226.313 25.372C229.257 25.372 230.921 26.972 230.921 28.156ZM255.111 31.452L254.759 33.244L253.607 33.404C252.007 33.628 251.527 34.46 251.303 36.06L251.239 36.508C251.015 38.012 251.495 38.556 252.967 38.908L252.903 40.188C250.119 41.212 247.559 41.916 244.423 41.916C238.791 41.916 233.671 38.652 233.671 31.836C233.671 24.252 239.463 19.228 247.047 19.228C250.055 19.228 252.455 20.156 254.023 21.084V26.46H252.103L251.847 25.66C251.047 23.132 249.863 21.308 246.439 21.308C241.191 21.308 237.799 26.108 237.799 32.764C237.799 37.212 240.295 39.804 244.583 39.804C246.695 39.804 247.783 38.94 248.071 37.308L248.231 36.412C248.615 34.236 248.359 33.596 246.759 33.404L245.415 33.244L245.767 31.452C246.439 31.452 249.479 31.516 250.695 31.516C251.911 31.516 254.407 31.452 255.111 31.452ZM264.389 19.74C264.389 21.148 263.301 22.204 261.989 22.204C260.645 22.204 259.525 21.148 259.525 19.74C259.525 18.428 260.645 17.372 261.989 17.372C263.301 17.372 264.389 18.428 264.389 19.74ZM264.677 39.452C262.917 41.084 261.637 41.756 260.261 41.756C258.277 41.756 257.445 40.348 257.829 38.332L259.269 30.748C259.525 29.34 259.173 28.636 258.053 28.188L256.997 27.772L257.317 26.492L263.141 25.468L263.493 25.852L261.253 37.468C261.029 38.556 261.285 39.132 261.861 39.132C262.405 39.132 262.885 38.844 263.749 38.204L264.677 39.452ZM280.769 19.708C280.769 20.892 279.649 21.756 278.817 21.756C278.209 21.756 277.569 21.436 275.105 19.836C274.081 20.636 273.153 22.46 272.769 25.436L272.705 25.948H275.873L275.489 28.252H272.353L271.041 36.86C270.081 43.228 266.785 48.54 263.264 48.54C261.952 48.54 261.216 47.868 261.216 46.78C261.216 45.5 262.016 44.636 262.72 44.636C263.296 44.636 263.872 44.732 265.537 45.436C266.241 44.7 266.753 43.004 267.073 40.828L268.993 28.252H266.785L267.041 26.62L269.377 26.012C270.369 20.732 273.697 17.468 277.761 17.468C279.937 17.468 280.769 18.236 280.769 19.708ZM287.011 25.948L286.627 28.252H282.531L280.963 36.668C280.899 37.052 280.835 37.66 280.835 37.98C280.835 38.812 281.187 39.292 282.019 39.292C282.851 39.292 283.427 38.94 284.227 38.332L285.379 39.708C284.227 40.892 282.691 41.788 280.931 41.788C278.883 41.788 277.507 40.7 277.507 38.94C277.507 38.62 277.603 37.692 277.667 37.372L279.331 28.252H277.315L277.571 26.62L279.651 26.108L281.251 21.788H283.747L282.947 25.948H287.011ZM299.578 28.156C299.578 29.116 298.33 29.916 297.498 29.916C296.73 29.916 296.218 29.244 295.226 27.292C295.034 27.196 294.842 27.164 294.618 27.164C293.178 27.164 292.218 28.06 292.218 29.276C292.218 30.62 292.89 31.228 294.906 32.348C297.818 33.916 298.618 35.196 298.618 36.956C298.618 39.708 296.634 41.916 292.474 41.916C289.114 41.916 287.194 40.572 287.194 39.132C287.194 38.268 288.346 37.276 289.274 37.276C290.01 37.276 290.682 37.98 291.578 39.932C291.898 40.028 292.346 40.124 292.826 40.124C294.49 40.124 295.546 39.068 295.546 37.788C295.546 36.604 294.938 35.964 292.794 34.812C290.234 33.436 289.146 32.124 289.146 30.108C289.146 28.06 290.714 25.372 294.97 25.372C297.914 25.372 299.578 26.972 299.578 28.156Z" fill="black"/>
</g>
<defs>
<clipPath id="clip0_2016_5711">
<rect width="307" height="64" fill="white" transform="translate(0 0.5)"/>
</clipPath>
</defs>
</svg>
